G04*
G04 #@! TF.GenerationSoftware,Altium Limited,Altium Designer,19.0.10 (269)*
G04*
G04 Layer_Color=32896*
%FSLAX23Y23*%
%MOIN*%
G70*
G01*
G75*
%ADD11C,0.010*%
%ADD12C,0.008*%
D11*
X4430Y4360D02*
G03*
X4730Y4360I150J0D01*
G01*
D02*
G03*
X4430Y4360I-150J0D01*
G01*
X6600Y4700D02*
G03*
X6900Y4700I150J0D01*
G01*
D02*
G03*
X6600Y4700I-150J0D01*
G01*
X4630Y2380D02*
G03*
X4930Y2380I150J0D01*
G01*
D02*
G03*
X4630Y2380I-150J0D01*
G01*
X6630Y2390D02*
G03*
X6930Y2390I150J0D01*
G01*
D02*
G03*
X6630Y2390I-150J0D01*
G01*
X5530Y2230D02*
X6030D01*
X5530Y2130D02*
X6030D01*
Y2230D01*
X5530Y2130D02*
Y2230D01*
X4455Y4636D02*
X4465Y4646D01*
X4485D01*
X4495Y4636D01*
Y4596D01*
X4485Y4586D01*
X4465D01*
X4455Y4596D01*
X4405Y4586D02*
Y4646D01*
X4435Y4616D01*
X4395D01*
X6910Y4520D02*
X6920Y4530D01*
X6940D01*
X6950Y4520D01*
Y4480D01*
X6940Y4470D01*
X6920D01*
X6910Y4480D01*
X6890Y4520D02*
X6880Y4530D01*
X6860D01*
X6850Y4520D01*
Y4510D01*
X6860Y4500D01*
X6870D01*
X6860D01*
X6850Y4490D01*
Y4480D01*
X6860Y4470D01*
X6880D01*
X6890Y4480D01*
X4830Y2890D02*
Y2850D01*
X4810Y2830D01*
X4790Y2850D01*
Y2890D01*
X4770D02*
Y2830D01*
X4740D01*
X4730Y2840D01*
Y2880D01*
X4740Y2890D01*
X4770D01*
X4710Y2830D02*
X4690D01*
X4700D01*
Y2890D01*
X4710Y2880D01*
X4520Y2660D02*
X4530Y2670D01*
X4550D01*
X4560Y2660D01*
Y2620D01*
X4550Y2610D01*
X4530D01*
X4520Y2620D01*
X4500Y2610D02*
X4480D01*
X4490D01*
Y2670D01*
X4500Y2660D01*
X7040Y2540D02*
X7030Y2550D01*
Y2570D01*
X7040Y2580D01*
X7080D01*
X7090Y2570D01*
Y2550D01*
X7080Y2540D01*
X7090Y2480D02*
Y2520D01*
X7050Y2480D01*
X7040D01*
X7030Y2490D01*
Y2510D01*
X7040Y2520D01*
X6870Y2910D02*
Y2870D01*
X6850Y2850D01*
X6830Y2870D01*
Y2910D01*
X6810D02*
Y2850D01*
X6780D01*
X6770Y2860D01*
Y2900D01*
X6780Y2910D01*
X6810D01*
X6750Y2850D02*
X6730D01*
X6740D01*
Y2910D01*
X6750Y2900D01*
X6660Y2910D02*
X6700D01*
Y2880D01*
X6680Y2890D01*
X6670D01*
X6660Y2880D01*
Y2860D01*
X6670Y2850D01*
X6690D01*
X6700Y2860D01*
D12*
X4746Y2700D02*
X4758D01*
X4786D02*
X4794D01*
X4758Y2684D02*
Y2720D01*
X4786Y2700D01*
X4758Y2684D02*
X4786Y2700D01*
Y2680D02*
Y2720D01*
X4616Y2611D02*
X4924D01*
X4616D02*
Y2642D01*
X4924Y2611D02*
Y2680D01*
X4616Y2758D02*
Y2789D01*
X4918Y2680D02*
X4924D01*
X4918Y2611D02*
Y2680D01*
Y2720D02*
Y2789D01*
Y2720D02*
X4924D01*
X4616Y2789D02*
X4924D01*
Y2720D02*
Y2789D01*
X6736Y2690D02*
X6748D01*
X6776D02*
X6784D01*
X6748Y2674D02*
Y2710D01*
X6776Y2690D01*
X6748Y2674D02*
X6776Y2690D01*
Y2670D02*
Y2710D01*
X6606Y2601D02*
X6914D01*
X6606D02*
Y2632D01*
X6914Y2601D02*
Y2670D01*
X6606Y2748D02*
Y2779D01*
X6908Y2670D02*
X6914D01*
X6908Y2601D02*
Y2670D01*
Y2710D02*
Y2779D01*
Y2710D02*
X6914D01*
X6606Y2779D02*
X6914D01*
Y2710D02*
Y2779D01*
M02*
