G04*
G04 #@! TF.GenerationSoftware,Altium Limited,Altium Designer,19.0.10 (269)*
G04*
G04 Layer_Physical_Order=1*
G04 Layer_Color=255*
%FSLAX23Y23*%
%MOIN*%
G70*
G01*
G75*
%ADD11C,0.010*%
%ADD28R,0.031X0.034*%
%ADD29R,0.047X0.047*%
%ADD30R,0.051X0.024*%
%ADD31R,0.034X0.031*%
%ADD32R,0.024X0.051*%
%ADD33C,0.050*%
%ADD34C,0.060*%
%ADD35C,0.087*%
%ADD36R,0.087X0.087*%
%ADD37C,0.079*%
%ADD38R,0.079X0.079*%
%ADD39C,0.157*%
%ADD40C,0.236*%
%ADD41C,0.028*%
G36*
X7339Y4919D02*
X7354Y4916D01*
X7369Y4912D01*
X7382Y4905D01*
X7395Y4897D01*
X7407Y4887D01*
X7418Y4876D01*
X7427Y4864D01*
X7434Y4850D01*
X7440Y4836D01*
X7444Y4822D01*
X7445Y4815D01*
Y4290D01*
X6765D01*
X6765Y4920D01*
X7315Y4920D01*
X7316Y4920D01*
X7316Y4920D01*
X7324Y4920D01*
X7339Y4919D01*
D02*
G37*
G36*
X4715Y4865D02*
X4490D01*
X4482Y4878D01*
X4472Y4892D01*
X4458Y4902D01*
X4443Y4910D01*
X4428Y4915D01*
X4429Y4920D01*
X4715Y4920D01*
Y4865D01*
D02*
G37*
G36*
X4392Y4915D02*
X4377Y4910D01*
X4362Y4902D01*
X4348Y4892D01*
X4338Y4878D01*
X4330Y4863D01*
X4325Y4850D01*
X4410D01*
Y4830D01*
X4430D01*
Y4745D01*
X4443Y4750D01*
X4458Y4758D01*
X4472Y4768D01*
X4482Y4782D01*
X4490Y4797D01*
X4495Y4813D01*
X4497Y4830D01*
X4497Y4835D01*
X4500Y4838D01*
X4715D01*
X4715Y4411D01*
X4629D01*
Y4310D01*
X4506D01*
X4505Y4315D01*
X4506Y4315D01*
X4517Y4323D01*
X4525Y4334D01*
X4527Y4340D01*
X4480D01*
X4433D01*
X4435Y4334D01*
X4443Y4323D01*
X4454Y4315D01*
X4455Y4315D01*
X4454Y4310D01*
X4041Y4310D01*
X4041Y4817D01*
Y4824D01*
X4043Y4837D01*
X4047Y4850D01*
X4052Y4863D01*
X4059Y4874D01*
X4067Y4885D01*
X4076Y4895D01*
X4087Y4903D01*
X4099Y4909D01*
X4111Y4915D01*
X4124Y4918D01*
X4138Y4920D01*
X4144Y4920D01*
X4391D01*
X4392Y4915D01*
D02*
G37*
G36*
X6740Y4290D02*
X6005D01*
Y4866D01*
X6007Y4870D01*
X6008Y4880D01*
X6007Y4890D01*
X6005Y4894D01*
Y4920D01*
X6740D01*
Y4290D01*
D02*
G37*
G36*
X5980Y2734D02*
X5434D01*
X5363Y2804D01*
Y2850D01*
X5980D01*
Y2734D01*
D02*
G37*
G36*
X6065Y2663D02*
X6065D01*
Y2633D01*
X6019Y2587D01*
X6015Y2589D01*
Y2667D01*
X6064D01*
X6065Y2663D01*
D02*
G37*
G36*
X5632D02*
X5632D01*
Y2616D01*
X5644D01*
Y2452D01*
X5624D01*
Y2446D01*
X5616D01*
X5615Y2450D01*
X5615Y2451D01*
Y2490D01*
X5593D01*
Y2523D01*
X5596Y2524D01*
X5600Y2532D01*
X5602Y2540D01*
X5600Y2548D01*
X5596Y2556D01*
X5588Y2560D01*
X5580Y2562D01*
X5572Y2560D01*
X5564Y2556D01*
X5560Y2548D01*
X5558Y2540D01*
X5560Y2532D01*
X5564Y2524D01*
X5567Y2523D01*
Y2490D01*
X5548D01*
Y2450D01*
X5563D01*
X5564Y2445D01*
X5561Y2445D01*
X5557Y2442D01*
X5537Y2422D01*
X5532Y2424D01*
Y2452D01*
X5513D01*
Y2616D01*
X5525D01*
Y2663D01*
X5525D01*
X5526Y2667D01*
X5631D01*
X5632Y2663D01*
D02*
G37*
G36*
X4718Y2422D02*
X4713Y2419D01*
X4706Y2425D01*
X4700Y2427D01*
Y2380D01*
Y2333D01*
X4706Y2335D01*
X4706Y2335D01*
X4718Y2324D01*
Y2134D01*
X4146D01*
X4139Y2135D01*
X4125Y2139D01*
X4111Y2145D01*
X4098Y2152D01*
X4085Y2161D01*
X4075Y2172D01*
X4065Y2184D01*
X4058Y2197D01*
X4052Y2211D01*
X4048Y2225D01*
X4046Y2240D01*
X4045Y2255D01*
X4046Y2263D01*
X4046Y2264D01*
X4046Y2265D01*
X4043Y2851D01*
X4046Y2854D01*
X4718D01*
Y2422D01*
D02*
G37*
G36*
X6730Y2416D02*
X6725Y2415D01*
X6725Y2416D01*
X6717Y2427D01*
X6706Y2435D01*
X6700Y2437D01*
Y2390D01*
Y2343D01*
X6706Y2345D01*
X6717Y2353D01*
X6725Y2364D01*
X6725Y2365D01*
X6730Y2364D01*
Y2134D01*
X6015D01*
Y2147D01*
X6021Y2156D01*
X6023Y2160D01*
X5980D01*
Y2200D01*
X6023D01*
X6021Y2204D01*
X6015Y2213D01*
Y2304D01*
X6020Y2309D01*
X6025Y2307D01*
Y2266D01*
X6060D01*
X6063Y2261D01*
X6060Y2256D01*
X6058Y2248D01*
X6060Y2239D01*
X6064Y2232D01*
X6067Y2230D01*
Y2211D01*
X6047D01*
Y2149D01*
X6110D01*
Y2211D01*
X6093D01*
Y2230D01*
X6096Y2232D01*
X6100Y2239D01*
X6102Y2248D01*
X6100Y2256D01*
X6096Y2263D01*
X6088Y2268D01*
X6080Y2270D01*
X6077Y2269D01*
X6073Y2272D01*
X6075Y2277D01*
X6103D01*
X6104Y2274D01*
X6112Y2270D01*
X6120Y2268D01*
X6128Y2270D01*
X6136Y2274D01*
X6140Y2282D01*
X6142Y2290D01*
X6140Y2298D01*
X6136Y2306D01*
X6128Y2310D01*
X6120Y2312D01*
X6112Y2310D01*
X6104Y2306D01*
X6103Y2303D01*
X6071D01*
Y2315D01*
X6033D01*
X6031Y2320D01*
X6061Y2350D01*
X6086Y2376D01*
X6134D01*
X6135Y2367D01*
X6140Y2347D01*
X6147Y2329D01*
X6158Y2312D01*
X6170Y2297D01*
X6186Y2284D01*
X6202Y2274D01*
X6203Y2274D01*
X6203Y2268D01*
X6202Y2268D01*
X6194Y2263D01*
X6190Y2256D01*
X6188Y2248D01*
X6190Y2239D01*
X6194Y2232D01*
X6197Y2230D01*
Y2219D01*
X6198Y2214D01*
X6201Y2209D01*
X6217Y2193D01*
Y2149D01*
X6280D01*
Y2211D01*
X6236D01*
X6223Y2224D01*
Y2230D01*
X6226Y2232D01*
X6230Y2239D01*
X6232Y2248D01*
X6230Y2256D01*
X6228Y2259D01*
X6231Y2264D01*
X6240Y2262D01*
X6240Y2262D01*
Y2387D01*
Y2511D01*
X6240Y2511D01*
X6221Y2507D01*
X6202Y2499D01*
X6186Y2489D01*
X6170Y2476D01*
X6158Y2461D01*
X6147Y2444D01*
X6140Y2426D01*
X6138Y2419D01*
X6135Y2415D01*
X6068D01*
Y2394D01*
X6042Y2368D01*
X6019Y2345D01*
X6015Y2347D01*
Y2413D01*
X6052D01*
Y2452D01*
X6032D01*
Y2563D01*
X6085Y2616D01*
X6115D01*
Y2663D01*
X6094D01*
X6094Y2668D01*
X6099Y2668D01*
X6107Y2672D01*
X6113Y2677D01*
X6114Y2677D01*
X6115D01*
Y2679D01*
X6119Y2684D01*
X6122Y2692D01*
X6123Y2701D01*
X6122Y2709D01*
X6119Y2717D01*
X6115Y2722D01*
Y2724D01*
X6114D01*
X6113Y2724D01*
X6107Y2729D01*
X6099Y2733D01*
X6090Y2734D01*
X6015D01*
Y2850D01*
X6730D01*
Y2416D01*
D02*
G37*
G36*
X5980Y2396D02*
X5980Y2396D01*
X5975Y2399D01*
Y2415D01*
X5908D01*
Y2394D01*
X5830Y2316D01*
X5806D01*
Y2292D01*
X5771Y2257D01*
X5768Y2253D01*
X5767Y2248D01*
Y2226D01*
X5756Y2221D01*
X5746Y2214D01*
X5739Y2204D01*
X5734Y2192D01*
X5733Y2181D01*
X5727D01*
X5726Y2192D01*
X5721Y2204D01*
X5714Y2214D01*
X5704Y2221D01*
X5695Y2225D01*
X5695Y2230D01*
X5717Y2253D01*
X5717Y2253D01*
X5729Y2264D01*
X5730Y2267D01*
X5734D01*
Y2316D01*
X5733D01*
Y2376D01*
X5773D01*
Y2415D01*
X5707D01*
Y2390D01*
X5706Y2388D01*
Y2316D01*
X5687D01*
Y2267D01*
X5687D01*
X5689Y2262D01*
X5671Y2244D01*
X5668Y2239D01*
X5667Y2234D01*
Y2226D01*
X5656Y2221D01*
X5646Y2214D01*
X5639Y2204D01*
X5634Y2192D01*
X5632Y2180D01*
X5634Y2168D01*
X5639Y2156D01*
X5646Y2146D01*
X5655Y2139D01*
X5655Y2134D01*
X5627D01*
Y2227D01*
X5593D01*
Y2300D01*
Y2376D01*
X5615D01*
Y2415D01*
X5615D01*
X5616Y2419D01*
X5624D01*
Y2413D01*
X5637D01*
Y2316D01*
X5626D01*
Y2267D01*
X5627D01*
X5627Y2265D01*
X5630Y2261D01*
X5634Y2258D01*
X5639Y2257D01*
X5645Y2258D01*
X5649Y2261D01*
X5655Y2267D01*
X5673D01*
Y2316D01*
X5663D01*
Y2413D01*
X5691D01*
Y2452D01*
X5670D01*
Y2616D01*
X5682D01*
Y2663D01*
X5682D01*
X5683Y2667D01*
X5874D01*
X5875Y2663D01*
X5875Y2662D01*
Y2633D01*
X5849Y2607D01*
X5847Y2603D01*
X5846Y2598D01*
Y2452D01*
X5825D01*
Y2431D01*
X5801Y2407D01*
X5798Y2403D01*
X5797Y2398D01*
Y2367D01*
X5794Y2366D01*
X5790Y2358D01*
X5788Y2350D01*
X5790Y2342D01*
X5794Y2334D01*
X5802Y2330D01*
X5810Y2328D01*
X5818Y2330D01*
X5826Y2334D01*
X5830Y2342D01*
X5832Y2350D01*
X5830Y2358D01*
X5826Y2366D01*
X5823Y2367D01*
Y2392D01*
X5844Y2413D01*
X5892D01*
Y2452D01*
X5872D01*
Y2593D01*
X5895Y2616D01*
X5925D01*
Y2662D01*
X5925Y2663D01*
X5926Y2667D01*
X5980D01*
Y2396D01*
D02*
G37*
G36*
X5867Y2310D02*
Y2267D01*
X5913D01*
X5914Y2264D01*
X5922Y2260D01*
X5926Y2259D01*
X5927Y2253D01*
X5898Y2224D01*
X5892Y2226D01*
X5880Y2228D01*
X5868Y2226D01*
X5856Y2221D01*
X5846Y2214D01*
X5839Y2204D01*
X5834Y2192D01*
X5833Y2181D01*
X5827D01*
X5826Y2192D01*
X5821Y2204D01*
X5814Y2214D01*
X5804Y2221D01*
X5793Y2226D01*
Y2242D01*
X5818Y2267D01*
X5853D01*
Y2302D01*
X5863Y2312D01*
X5867Y2310D01*
D02*
G37*
G36*
X5297Y2791D02*
X5298Y2782D01*
X5301Y2774D01*
X5307Y2767D01*
X5397Y2677D01*
X5403Y2672D01*
X5411Y2668D01*
X5420Y2667D01*
X5474D01*
X5475Y2663D01*
X5475D01*
Y2616D01*
X5487D01*
Y2452D01*
X5465D01*
Y2413D01*
X5486D01*
Y2362D01*
X5443Y2319D01*
X5443Y2319D01*
X5317Y2193D01*
X5293D01*
Y2211D01*
X5230D01*
Y2149D01*
X5293D01*
Y2167D01*
X5315D01*
X5319Y2163D01*
X5318Y2160D01*
X5320Y2152D01*
X5324Y2144D01*
X5332Y2140D01*
X5333Y2139D01*
X5333Y2134D01*
X4780D01*
Y2255D01*
X4785Y2257D01*
X4890Y2151D01*
X4895Y2148D01*
X4900Y2147D01*
X5081D01*
X5086Y2148D01*
X5086Y2148D01*
X5160D01*
X5161Y2149D01*
X5210D01*
Y2211D01*
X5192D01*
Y2222D01*
X5196Y2224D01*
X5200Y2232D01*
X5202Y2240D01*
X5200Y2248D01*
X5196Y2256D01*
X5188Y2260D01*
X5180Y2262D01*
X5172Y2260D01*
X5164Y2256D01*
X5160Y2248D01*
X5158Y2240D01*
X5160Y2232D01*
X5164Y2224D01*
X5166Y2224D01*
Y2211D01*
X5147D01*
Y2175D01*
X5092D01*
X5091Y2180D01*
X5102Y2188D01*
X5112Y2202D01*
X5120Y2217D01*
X5125Y2230D01*
X5040D01*
X4955D01*
X4960Y2217D01*
X4968Y2202D01*
X4978Y2188D01*
X4991Y2178D01*
X4989Y2173D01*
X4905D01*
X4780Y2299D01*
Y2850D01*
X5297D01*
Y2791D01*
D02*
G37*
G36*
X7445Y2266D02*
X7444Y2259D01*
X7441Y2242D01*
X7435Y2226D01*
X7428Y2211D01*
X7419Y2196D01*
X7408Y2183D01*
X7396Y2171D01*
X7383Y2160D01*
X7369Y2151D01*
X7353Y2144D01*
X7337Y2139D01*
X7320Y2135D01*
X7313Y2134D01*
X6770D01*
Y2860D01*
X7445D01*
Y2266D01*
D02*
G37*
G36*
X5466Y2295D02*
Y2265D01*
X5507D01*
Y2235D01*
X5484Y2211D01*
X5440D01*
Y2149D01*
X5503D01*
Y2193D01*
X5528Y2218D01*
X5533Y2216D01*
Y2134D01*
X5347D01*
X5347Y2139D01*
X5348Y2140D01*
X5356Y2144D01*
X5358Y2148D01*
X5370D01*
X5371Y2149D01*
X5420D01*
Y2211D01*
X5379D01*
X5377Y2216D01*
X5458Y2297D01*
X5464D01*
X5466Y2295D01*
D02*
G37*
%LPC*%
G36*
X7110Y4895D02*
Y4830D01*
X7175D01*
X7170Y4843D01*
X7162Y4858D01*
X7152Y4872D01*
X7138Y4882D01*
X7123Y4890D01*
X7110Y4895D01*
D02*
G37*
G36*
X7070D02*
X7057Y4890D01*
X7042Y4882D01*
X7028Y4872D01*
X7018Y4858D01*
X7010Y4843D01*
X7005Y4830D01*
X7070D01*
Y4895D01*
D02*
G37*
G36*
X7175Y4790D02*
X7110D01*
Y4725D01*
X7123Y4730D01*
X7138Y4738D01*
X7152Y4748D01*
X7162Y4762D01*
X7170Y4777D01*
X7175Y4790D01*
D02*
G37*
G36*
X7070D02*
X7005D01*
X7010Y4777D01*
X7018Y4762D01*
X7028Y4748D01*
X7042Y4738D01*
X7057Y4730D01*
X7070Y4725D01*
Y4790D01*
D02*
G37*
G36*
X6901Y4751D02*
X6870D01*
Y4720D01*
X6901D01*
Y4751D01*
D02*
G37*
G36*
X6830D02*
X6799D01*
Y4720D01*
X6830D01*
Y4751D01*
D02*
G37*
G36*
X7303Y4795D02*
Y4690D01*
X7408D01*
X7408Y4690D01*
X7404Y4709D01*
X7396Y4727D01*
X7386Y4744D01*
X7373Y4759D01*
X7358Y4772D01*
X7341Y4783D01*
X7323Y4790D01*
X7303Y4795D01*
X7303Y4795D01*
D02*
G37*
G36*
X7264Y4795D02*
X7264Y4795D01*
X7244Y4790D01*
X7226Y4783D01*
X7209Y4772D01*
X7194Y4759D01*
X7181Y4744D01*
X7171Y4727D01*
X7163Y4709D01*
X7159Y4690D01*
X7159Y4690D01*
X7264D01*
Y4795D01*
D02*
G37*
G36*
X6901Y4680D02*
X6870D01*
Y4649D01*
X6901D01*
Y4680D01*
D02*
G37*
G36*
X6830D02*
X6799D01*
Y4649D01*
X6830D01*
Y4680D01*
D02*
G37*
G36*
X7408Y4650D02*
X7303D01*
Y4545D01*
X7303Y4545D01*
X7323Y4550D01*
X7341Y4557D01*
X7358Y4568D01*
X7373Y4581D01*
X7386Y4596D01*
X7396Y4613D01*
X7404Y4631D01*
X7408Y4650D01*
X7408Y4650D01*
D02*
G37*
G36*
X7264D02*
X7159D01*
X7159Y4650D01*
X7163Y4631D01*
X7171Y4613D01*
X7181Y4596D01*
X7194Y4581D01*
X7209Y4568D01*
X7226Y4557D01*
X7244Y4550D01*
X7264Y4545D01*
X7264Y4545D01*
Y4650D01*
D02*
G37*
G36*
X4390Y4810D02*
X4325D01*
X4330Y4797D01*
X4337Y4782D01*
X4336Y4780D01*
X4334Y4779D01*
X4327Y4783D01*
X4309Y4790D01*
X4290Y4795D01*
X4290Y4795D01*
Y4690D01*
X4395D01*
X4395Y4690D01*
X4390Y4709D01*
X4383Y4727D01*
X4372Y4744D01*
X4369Y4748D01*
X4372Y4752D01*
X4377Y4750D01*
X4390Y4745D01*
Y4810D01*
D02*
G37*
G36*
X4250Y4795D02*
X4250Y4795D01*
X4231Y4790D01*
X4213Y4783D01*
X4196Y4772D01*
X4181Y4759D01*
X4168Y4744D01*
X4157Y4727D01*
X4150Y4709D01*
X4145Y4690D01*
X4145Y4690D01*
X4250D01*
Y4795D01*
D02*
G37*
G36*
X4395Y4650D02*
X4290D01*
Y4545D01*
X4290Y4545D01*
X4309Y4550D01*
X4327Y4557D01*
X4344Y4568D01*
X4359Y4581D01*
X4372Y4596D01*
X4383Y4613D01*
X4390Y4631D01*
X4395Y4650D01*
X4395Y4650D01*
D02*
G37*
G36*
X4250D02*
X4145D01*
X4145Y4650D01*
X4150Y4631D01*
X4157Y4613D01*
X4168Y4596D01*
X4181Y4581D01*
X4196Y4568D01*
X4213Y4557D01*
X4231Y4550D01*
X4250Y4545D01*
X4250Y4545D01*
Y4650D01*
D02*
G37*
G36*
X4164Y4550D02*
X4152Y4549D01*
X4140Y4546D01*
X4130Y4540D01*
X4120Y4532D01*
X4112Y4523D01*
X4107Y4512D01*
X4103Y4500D01*
X4102Y4488D01*
X4103Y4476D01*
X4107Y4464D01*
X4112Y4454D01*
X4120Y4444D01*
X4130Y4436D01*
X4140Y4431D01*
X4152Y4427D01*
X4164Y4426D01*
X4176Y4427D01*
X4188Y4431D01*
X4199Y4436D01*
X4208Y4444D01*
X4216Y4454D01*
X4222Y4464D01*
X4225Y4476D01*
X4226Y4488D01*
X4225Y4500D01*
X4222Y4512D01*
X4216Y4523D01*
X4208Y4532D01*
X4199Y4540D01*
X4188Y4546D01*
X4176Y4549D01*
X4164Y4550D01*
D02*
G37*
G36*
X4500Y4407D02*
Y4380D01*
X4527D01*
X4525Y4386D01*
X4517Y4397D01*
X4506Y4405D01*
X4500Y4407D01*
D02*
G37*
G36*
X4460D02*
X4454Y4405D01*
X4443Y4397D01*
X4435Y4386D01*
X4433Y4380D01*
X4460D01*
Y4407D01*
D02*
G37*
G36*
X6450Y4895D02*
Y4830D01*
X6515D01*
X6510Y4843D01*
X6502Y4858D01*
X6492Y4872D01*
X6478Y4882D01*
X6463Y4890D01*
X6450Y4895D01*
D02*
G37*
G36*
X6410D02*
X6397Y4890D01*
X6382Y4882D01*
X6368Y4872D01*
X6358Y4858D01*
X6350Y4843D01*
X6345Y4830D01*
X6410D01*
Y4895D01*
D02*
G37*
G36*
X6515Y4790D02*
X6450D01*
Y4725D01*
X6463Y4730D01*
X6478Y4738D01*
X6492Y4748D01*
X6502Y4762D01*
X6510Y4777D01*
X6515Y4790D01*
D02*
G37*
G36*
X6410D02*
X6345D01*
X6350Y4777D01*
X6358Y4762D01*
X6368Y4748D01*
X6382Y4738D01*
X6397Y4730D01*
X6410Y4725D01*
Y4790D01*
D02*
G37*
G36*
X6670Y4747D02*
Y4720D01*
X6697D01*
X6695Y4726D01*
X6687Y4737D01*
X6676Y4745D01*
X6670Y4747D01*
D02*
G37*
G36*
X6630D02*
X6624Y4745D01*
X6613Y4737D01*
X6605Y4726D01*
X6603Y4720D01*
X6630D01*
Y4747D01*
D02*
G37*
G36*
X6280Y4795D02*
Y4690D01*
X6385D01*
X6385Y4690D01*
X6380Y4709D01*
X6372Y4727D01*
X6362Y4744D01*
X6349Y4759D01*
X6334Y4772D01*
X6317Y4783D01*
X6299Y4790D01*
X6280Y4795D01*
X6280Y4795D01*
D02*
G37*
G36*
X6240D02*
X6240Y4795D01*
X6221Y4790D01*
X6202Y4783D01*
X6186Y4772D01*
X6170Y4759D01*
X6158Y4744D01*
X6147Y4727D01*
X6140Y4709D01*
X6135Y4690D01*
X6135Y4690D01*
X6240D01*
Y4795D01*
D02*
G37*
G36*
X6697Y4680D02*
X6670D01*
Y4653D01*
X6676Y4655D01*
X6687Y4663D01*
X6695Y4674D01*
X6697Y4680D01*
D02*
G37*
G36*
X6630D02*
X6603D01*
X6605Y4674D01*
X6613Y4663D01*
X6624Y4655D01*
X6630Y4653D01*
Y4680D01*
D02*
G37*
G36*
X6240Y4650D02*
X6135D01*
X6135Y4650D01*
X6140Y4631D01*
X6147Y4613D01*
X6158Y4596D01*
X6170Y4581D01*
X6186Y4568D01*
X6202Y4557D01*
X6221Y4550D01*
X6240Y4545D01*
X6240Y4545D01*
Y4650D01*
D02*
G37*
G36*
X6385D02*
X6280D01*
Y4545D01*
X6280Y4545D01*
X6299Y4550D01*
X6317Y4557D01*
X6334Y4568D01*
X6349Y4581D01*
X6362Y4596D01*
X6372Y4613D01*
X6380Y4631D01*
X6385Y4650D01*
X6385Y4650D01*
D02*
G37*
G36*
X6448Y4550D02*
X6435Y4549D01*
X6424Y4546D01*
X6413Y4540D01*
X6404Y4532D01*
X6396Y4523D01*
X6390Y4512D01*
X6387Y4500D01*
X6385Y4488D01*
X6387Y4476D01*
X6390Y4464D01*
X6396Y4454D01*
X6404Y4444D01*
X6413Y4436D01*
X6424Y4431D01*
X6435Y4427D01*
X6448Y4426D01*
X6460Y4427D01*
X6471Y4431D01*
X6482Y4436D01*
X6492Y4444D01*
X6499Y4454D01*
X6505Y4464D01*
X6509Y4476D01*
X6510Y4488D01*
X6509Y4500D01*
X6505Y4512D01*
X6499Y4523D01*
X6492Y4532D01*
X6482Y4540D01*
X6471Y4546D01*
X6460Y4549D01*
X6448Y4550D01*
D02*
G37*
G36*
X4164Y2621D02*
X4152Y2620D01*
X4140Y2617D01*
X4130Y2611D01*
X4120Y2603D01*
X4112Y2594D01*
X4107Y2583D01*
X4103Y2571D01*
X4102Y2559D01*
X4103Y2547D01*
X4107Y2535D01*
X4112Y2524D01*
X4120Y2515D01*
X4130Y2507D01*
X4140Y2501D01*
X4152Y2498D01*
X4164Y2497D01*
X4176Y2498D01*
X4188Y2501D01*
X4199Y2507D01*
X4208Y2515D01*
X4216Y2524D01*
X4222Y2535D01*
X4225Y2547D01*
X4226Y2559D01*
X4225Y2571D01*
X4222Y2583D01*
X4216Y2594D01*
X4208Y2603D01*
X4199Y2611D01*
X4188Y2617D01*
X4176Y2620D01*
X4164Y2621D01*
D02*
G37*
G36*
X4290Y2511D02*
Y2406D01*
X4395D01*
X4395Y2406D01*
X4390Y2426D01*
X4383Y2444D01*
X4372Y2461D01*
X4359Y2476D01*
X4344Y2489D01*
X4327Y2499D01*
X4309Y2507D01*
X4290Y2511D01*
X4290Y2511D01*
D02*
G37*
G36*
X4250D02*
X4250Y2511D01*
X4231Y2507D01*
X4213Y2499D01*
X4196Y2489D01*
X4181Y2476D01*
X4168Y2461D01*
X4157Y2444D01*
X4150Y2426D01*
X4145Y2406D01*
X4145Y2406D01*
X4250D01*
Y2511D01*
D02*
G37*
G36*
X4660Y2427D02*
X4654Y2425D01*
X4643Y2417D01*
X4635Y2406D01*
X4633Y2400D01*
X4660D01*
Y2427D01*
D02*
G37*
G36*
Y2360D02*
X4633D01*
X4635Y2354D01*
X4643Y2343D01*
X4654Y2335D01*
X4660Y2333D01*
Y2360D01*
D02*
G37*
G36*
X4520Y2335D02*
Y2270D01*
X4585D01*
X4580Y2283D01*
X4572Y2298D01*
X4562Y2312D01*
X4548Y2322D01*
X4533Y2330D01*
X4520Y2335D01*
D02*
G37*
G36*
X4480D02*
X4467Y2330D01*
X4452Y2322D01*
X4438Y2312D01*
X4428Y2298D01*
X4420Y2283D01*
X4415Y2270D01*
X4480D01*
Y2335D01*
D02*
G37*
G36*
X4395Y2367D02*
X4290D01*
Y2262D01*
X4290Y2262D01*
X4309Y2266D01*
X4327Y2274D01*
X4344Y2284D01*
X4359Y2297D01*
X4372Y2312D01*
X4383Y2329D01*
X4390Y2347D01*
X4395Y2367D01*
X4395Y2367D01*
D02*
G37*
G36*
X4250D02*
X4145D01*
X4145Y2367D01*
X4150Y2347D01*
X4157Y2329D01*
X4168Y2312D01*
X4181Y2297D01*
X4196Y2284D01*
X4213Y2274D01*
X4231Y2266D01*
X4250Y2262D01*
X4250Y2262D01*
Y2367D01*
D02*
G37*
G36*
X4585Y2230D02*
X4520D01*
Y2165D01*
X4533Y2170D01*
X4548Y2178D01*
X4562Y2188D01*
X4572Y2202D01*
X4580Y2217D01*
X4585Y2230D01*
D02*
G37*
G36*
X4480D02*
X4415D01*
X4420Y2217D01*
X4428Y2202D01*
X4438Y2188D01*
X4452Y2178D01*
X4467Y2170D01*
X4480Y2165D01*
Y2230D01*
D02*
G37*
G36*
X6448Y2621D02*
X6435Y2620D01*
X6424Y2617D01*
X6413Y2611D01*
X6404Y2603D01*
X6396Y2594D01*
X6390Y2583D01*
X6387Y2571D01*
X6385Y2559D01*
X6387Y2547D01*
X6390Y2535D01*
X6396Y2524D01*
X6404Y2515D01*
X6413Y2507D01*
X6424Y2501D01*
X6435Y2498D01*
X6448Y2497D01*
X6460Y2498D01*
X6471Y2501D01*
X6482Y2507D01*
X6492Y2515D01*
X6499Y2524D01*
X6505Y2535D01*
X6509Y2547D01*
X6510Y2559D01*
X6509Y2571D01*
X6505Y2583D01*
X6499Y2594D01*
X6492Y2603D01*
X6482Y2611D01*
X6471Y2617D01*
X6460Y2620D01*
X6448Y2621D01*
D02*
G37*
G36*
X6100Y2553D02*
X6095Y2552D01*
X6091Y2549D01*
X6088Y2545D01*
X6087Y2540D01*
Y2509D01*
X6101D01*
Y2470D01*
Y2490D01*
X6113D01*
Y2540D01*
X6112Y2545D01*
X6109Y2549D01*
X6105Y2552D01*
X6100Y2553D01*
D02*
G37*
G36*
X6660Y2437D02*
X6654Y2435D01*
X6643Y2427D01*
X6635Y2416D01*
X6633Y2410D01*
X6660D01*
Y2437D01*
D02*
G37*
G36*
X6280Y2511D02*
Y2406D01*
X6385D01*
X6385Y2406D01*
X6380Y2426D01*
X6372Y2444D01*
X6362Y2461D01*
X6349Y2476D01*
X6334Y2489D01*
X6317Y2499D01*
X6299Y2507D01*
X6280Y2511D01*
X6280Y2511D01*
D02*
G37*
G36*
X6660Y2370D02*
X6633D01*
X6635Y2364D01*
X6643Y2353D01*
X6654Y2345D01*
X6660Y2343D01*
Y2370D01*
D02*
G37*
G36*
X6385Y2367D02*
X6280D01*
Y2262D01*
X6280Y2262D01*
X6299Y2266D01*
X6317Y2274D01*
X6334Y2284D01*
X6349Y2297D01*
X6362Y2312D01*
X6372Y2329D01*
X6380Y2347D01*
X6385Y2367D01*
X6385Y2367D01*
D02*
G37*
G36*
X6520Y2325D02*
Y2260D01*
X6585D01*
X6580Y2273D01*
X6572Y2288D01*
X6562Y2302D01*
X6548Y2312D01*
X6533Y2320D01*
X6520Y2325D01*
D02*
G37*
G36*
X6160Y2233D02*
X6155Y2232D01*
X6151Y2229D01*
X6148Y2225D01*
X6147Y2220D01*
Y2219D01*
X6161D01*
X6173D01*
Y2220D01*
X6172Y2225D01*
X6169Y2229D01*
X6165Y2232D01*
X6160Y2233D01*
D02*
G37*
G36*
X6480Y2325D02*
X6467Y2320D01*
X6452Y2312D01*
X6438Y2302D01*
X6428Y2288D01*
X6420Y2273D01*
X6415Y2257D01*
X6413Y2240D01*
X6414Y2230D01*
X6411Y2226D01*
X6364D01*
X6359Y2225D01*
X6355Y2222D01*
X6348Y2215D01*
X6343Y2217D01*
Y2230D01*
X6342Y2235D01*
X6339Y2239D01*
X6335Y2242D01*
X6330Y2243D01*
X6325Y2242D01*
X6321Y2239D01*
X6318Y2235D01*
X6317Y2230D01*
Y2219D01*
X6331D01*
Y2180D01*
X6363D01*
Y2193D01*
X6370Y2200D01*
X6423D01*
X6428Y2192D01*
X6438Y2178D01*
X6452Y2168D01*
X6467Y2160D01*
X6480Y2155D01*
Y2240D01*
Y2325D01*
D02*
G37*
G36*
X6585Y2220D02*
X6520D01*
Y2155D01*
X6533Y2160D01*
X6548Y2168D01*
X6562Y2178D01*
X6572Y2192D01*
X6580Y2207D01*
X6585Y2220D01*
D02*
G37*
G36*
X5940Y2562D02*
X5932Y2560D01*
X5924Y2556D01*
X5920Y2548D01*
X5918Y2540D01*
X5920Y2532D01*
X5924Y2524D01*
X5927Y2523D01*
Y2490D01*
X5908D01*
Y2450D01*
X5975D01*
Y2490D01*
X5953D01*
Y2523D01*
X5956Y2524D01*
X5960Y2532D01*
X5962Y2540D01*
X5960Y2548D01*
X5956Y2556D01*
X5948Y2560D01*
X5940Y2562D01*
D02*
G37*
G36*
X5740D02*
X5732Y2560D01*
X5724Y2556D01*
X5720Y2548D01*
X5718Y2540D01*
X5720Y2532D01*
X5724Y2524D01*
X5727Y2523D01*
Y2490D01*
X5707D01*
Y2450D01*
X5773D01*
Y2490D01*
X5753D01*
Y2523D01*
X5756Y2524D01*
X5760Y2532D01*
X5762Y2540D01*
X5760Y2548D01*
X5756Y2556D01*
X5748Y2560D01*
X5740Y2562D01*
D02*
G37*
G36*
X5313Y2511D02*
Y2406D01*
X5418D01*
X5418Y2406D01*
X5414Y2426D01*
X5406Y2444D01*
X5396Y2461D01*
X5383Y2476D01*
X5368Y2489D01*
X5351Y2499D01*
X5333Y2507D01*
X5313Y2511D01*
X5313Y2511D01*
D02*
G37*
G36*
X5274D02*
X5274Y2511D01*
X5255Y2507D01*
X5236Y2499D01*
X5219Y2489D01*
X5204Y2476D01*
X5191Y2461D01*
X5181Y2444D01*
X5173Y2426D01*
X5169Y2406D01*
X5169Y2406D01*
X5274D01*
Y2511D01*
D02*
G37*
G36*
X4931Y2431D02*
X4900D01*
Y2400D01*
X4931D01*
Y2431D01*
D02*
G37*
G36*
X4860D02*
X4829D01*
Y2400D01*
X4860D01*
Y2431D01*
D02*
G37*
G36*
X4931Y2360D02*
X4900D01*
Y2329D01*
X4931D01*
Y2360D01*
D02*
G37*
G36*
X4860D02*
X4829D01*
Y2329D01*
X4860D01*
Y2360D01*
D02*
G37*
G36*
X5060Y2335D02*
Y2270D01*
X5125D01*
X5120Y2283D01*
X5112Y2298D01*
X5102Y2312D01*
X5088Y2322D01*
X5073Y2330D01*
X5060Y2335D01*
D02*
G37*
G36*
X5020D02*
X5007Y2330D01*
X4992Y2322D01*
X4978Y2312D01*
X4968Y2298D01*
X4960Y2283D01*
X4955Y2270D01*
X5020D01*
Y2335D01*
D02*
G37*
G36*
X5418Y2367D02*
X5313D01*
Y2262D01*
X5313Y2262D01*
X5333Y2266D01*
X5351Y2274D01*
X5368Y2284D01*
X5383Y2297D01*
X5396Y2312D01*
X5406Y2329D01*
X5414Y2347D01*
X5418Y2367D01*
X5418Y2367D01*
D02*
G37*
G36*
X5274D02*
X5169D01*
X5169Y2367D01*
X5173Y2347D01*
X5181Y2329D01*
X5191Y2312D01*
X5204Y2297D01*
X5219Y2284D01*
X5236Y2274D01*
X5255Y2266D01*
X5274Y2262D01*
X5274Y2262D01*
Y2367D01*
D02*
G37*
G36*
X6931Y2441D02*
X6900D01*
Y2410D01*
X6931D01*
Y2441D01*
D02*
G37*
G36*
X6860D02*
X6829D01*
Y2410D01*
X6860D01*
Y2441D01*
D02*
G37*
G36*
X7303Y2511D02*
Y2406D01*
X7408D01*
X7408Y2406D01*
X7404Y2426D01*
X7396Y2444D01*
X7386Y2461D01*
X7373Y2476D01*
X7358Y2489D01*
X7341Y2499D01*
X7323Y2507D01*
X7303Y2511D01*
X7303Y2511D01*
D02*
G37*
G36*
X7264Y2511D02*
X7264Y2511D01*
X7244Y2507D01*
X7226Y2499D01*
X7209Y2489D01*
X7194Y2476D01*
X7181Y2461D01*
X7171Y2444D01*
X7163Y2426D01*
X7159Y2406D01*
X7159Y2406D01*
X7264D01*
Y2511D01*
D02*
G37*
G36*
X6931Y2370D02*
X6900D01*
Y2339D01*
X6931D01*
Y2370D01*
D02*
G37*
G36*
X6860D02*
X6829D01*
Y2339D01*
X6860D01*
Y2370D01*
D02*
G37*
G36*
X7408Y2367D02*
X7303D01*
Y2262D01*
X7303Y2262D01*
X7323Y2266D01*
X7341Y2274D01*
X7358Y2284D01*
X7373Y2297D01*
X7386Y2312D01*
X7396Y2329D01*
X7404Y2347D01*
X7408Y2367D01*
X7408Y2367D01*
D02*
G37*
G36*
X7264D02*
X7159D01*
X7159Y2367D01*
X7163Y2347D01*
X7171Y2329D01*
X7181Y2312D01*
X7194Y2297D01*
X7209Y2284D01*
X7226Y2274D01*
X7244Y2266D01*
X7264Y2262D01*
X7264Y2262D01*
Y2367D01*
D02*
G37*
G36*
X7080Y2325D02*
Y2260D01*
X7145D01*
X7140Y2273D01*
X7132Y2288D01*
X7122Y2302D01*
X7108Y2312D01*
X7093Y2320D01*
X7080Y2325D01*
D02*
G37*
G36*
X7040D02*
X7027Y2320D01*
X7012Y2312D01*
X6998Y2302D01*
X6988Y2288D01*
X6980Y2273D01*
X6975Y2260D01*
X7040D01*
Y2325D01*
D02*
G37*
G36*
X7145Y2220D02*
X7080D01*
Y2155D01*
X7093Y2160D01*
X7108Y2168D01*
X7122Y2178D01*
X7132Y2192D01*
X7140Y2207D01*
X7145Y2220D01*
D02*
G37*
G36*
X7040D02*
X6975D01*
X6980Y2207D01*
X6988Y2192D01*
X6998Y2178D01*
X7012Y2168D01*
X7027Y2160D01*
X7040Y2155D01*
Y2220D01*
D02*
G37*
%LPD*%
D11*
X4810Y4482D02*
X4952Y4340D01*
X4749Y4544D02*
X4810Y4482D01*
Y4490D01*
X4890Y4570D01*
X4749Y4760D02*
X4840Y4851D01*
X4410Y4830D02*
X4431Y4851D01*
X4840D01*
X4859Y4870D01*
X4952Y4340D02*
X5597D01*
X4749Y4544D02*
Y4760D01*
X4889Y4571D02*
X4890Y4570D01*
X4889Y4571D02*
Y4647D01*
X4887Y4649D02*
X4889Y4647D01*
X5069Y4521D02*
X5070Y4520D01*
X5069Y4521D02*
Y4647D01*
X5067Y4649D02*
X5069Y4647D01*
X5070Y4879D02*
Y4910D01*
Y4879D02*
X5079Y4870D01*
X4905Y4910D02*
X5070D01*
X4898Y4917D02*
X4905Y4910D01*
X4890Y4917D02*
X4898D01*
X4877Y4904D02*
X4890Y4917D01*
X4877Y4889D02*
Y4904D01*
X4859Y4870D02*
X4877Y4889D01*
X6100Y2471D02*
Y2540D01*
Y2471D02*
X6101Y2470D01*
X5940Y2471D02*
Y2540D01*
Y2471D02*
X5941Y2470D01*
X5740D02*
Y2540D01*
X5580Y2471D02*
Y2540D01*
Y2471D02*
X5581Y2470D01*
X5179Y2180D02*
Y2239D01*
X5180Y2240D01*
X5340Y2160D02*
X5341Y2161D01*
X5370D01*
X5389Y2180D01*
X4680Y2380D02*
X4900Y2160D01*
X5081D01*
X5082Y2161D01*
X5160D01*
X5179Y2180D01*
X5099Y4731D02*
X5110Y4720D01*
Y4566D02*
Y4720D01*
Y4566D02*
X5166Y4510D01*
X6058Y2293D02*
Y2300D01*
Y2293D02*
X6061Y2290D01*
X6120D01*
X5991Y2299D02*
X6018Y2325D01*
X6051Y2359D01*
X6088Y2395D01*
X5901Y2280D02*
X5930D01*
X5891Y2290D02*
X5901Y2280D01*
X5891Y2290D02*
Y2292D01*
X5708Y2262D02*
X5719Y2274D01*
X5566Y2433D02*
X5657D01*
X5657D01*
X5650Y2426D02*
X5657Y2433D01*
X5650Y2280D02*
Y2426D01*
X5639Y2270D02*
X5650Y2280D01*
X5452Y2310D02*
X5499Y2356D01*
X5322Y2180D02*
X5452Y2310D01*
X5469D01*
X5477Y2302D01*
X5479D01*
X5489Y2292D01*
Y2290D02*
Y2292D01*
X5580Y2300D02*
Y2394D01*
Y2180D02*
Y2300D01*
X5561D02*
X5580D01*
X5551Y2290D02*
X5561Y2300D01*
X5500Y2434D02*
Y2639D01*
X5499Y2433D02*
X5500Y2434D01*
X4993Y4497D02*
Y4649D01*
Y4497D02*
X5060Y4430D01*
X4780Y4600D02*
Y4602D01*
X4813Y4635D01*
Y4649D01*
X4920Y4710D02*
X4941Y4731D01*
Y4870D01*
X5091Y4731D02*
X5099D01*
X5160Y4800D02*
Y4869D01*
X5161Y4870D01*
X5091Y4731D02*
X5160Y4800D01*
X5030Y4731D02*
X5091D01*
X4920Y4520D02*
X5050Y4390D01*
X4920Y4520D02*
Y4710D01*
X5050Y4390D02*
X5369D01*
X5597Y4618D01*
X5599D01*
X5609Y4628D01*
Y4630D01*
X4899Y4731D02*
X4920Y4710D01*
X4850Y4731D02*
X4899D01*
X5166Y4510D02*
X5369D01*
X5597Y4738D01*
X5599D01*
X5609Y4748D01*
Y4750D01*
X6473Y2213D02*
X6511Y2251D01*
X6364Y2213D02*
X6473D01*
X6331Y2180D02*
X6364Y2213D01*
X6330Y2181D02*
X6331Y2180D01*
X6330Y2181D02*
Y2230D01*
X6160Y2181D02*
Y2220D01*
Y2181D02*
X6161Y2180D01*
X6210Y2219D02*
X6249Y2180D01*
X6210Y2219D02*
Y2248D01*
X5930Y2323D02*
X5998Y2391D01*
Y2426D01*
X6005Y2433D01*
X6019D01*
X5810Y2398D02*
X5845Y2433D01*
X5859D01*
X5810Y2350D02*
Y2398D01*
X6080Y2181D02*
Y2248D01*
X6079Y2180D02*
X6080Y2181D01*
X6019Y2433D02*
Y2568D01*
X6078Y2627D01*
Y2629D01*
X6088Y2639D01*
X6090D01*
X5859Y2433D02*
Y2598D01*
X5888Y2627D01*
Y2629D01*
X5898Y2639D01*
X5900D01*
X5657Y2433D02*
Y2639D01*
X5261Y2180D02*
X5322D01*
X5499Y2356D02*
Y2433D01*
X5521Y2387D02*
X5566Y2433D01*
X5521Y2229D02*
Y2387D01*
X5471Y2180D02*
X5521Y2229D01*
X6088Y2395D02*
X6101D01*
X5880Y2188D02*
X5991Y2299D01*
X5880Y2180D02*
Y2188D01*
X5580Y2394D02*
X5581Y2395D01*
X5928D02*
X5941D01*
X5780Y2248D02*
X5928Y2395D01*
X5780Y2180D02*
Y2248D01*
X5680Y2234D02*
X5708Y2262D01*
X5719Y2274D02*
Y2388D01*
X5726Y2395D01*
X5740D01*
X5680Y2180D02*
Y2234D01*
D28*
X5987Y2290D02*
D03*
X6048D02*
D03*
X5829Y2292D02*
D03*
X5891D02*
D03*
X5711D02*
D03*
X5649D02*
D03*
X5551Y2290D02*
D03*
X5489D02*
D03*
X5671Y4750D02*
D03*
X5609D02*
D03*
X5671Y4630D02*
D03*
X5609D02*
D03*
D29*
X5389Y2180D02*
D03*
X5471D02*
D03*
X5179D02*
D03*
X5261D02*
D03*
X4859Y4870D02*
D03*
X4941D02*
D03*
X5079D02*
D03*
X5161D02*
D03*
X6331Y2180D02*
D03*
X6249D02*
D03*
X6161D02*
D03*
X6079D02*
D03*
D30*
X5657Y2433D02*
D03*
X5740Y2470D02*
D03*
Y2395D02*
D03*
X5499Y2433D02*
D03*
X5581Y2470D02*
D03*
Y2395D02*
D03*
X6019Y2433D02*
D03*
X6101Y2470D02*
D03*
Y2395D02*
D03*
X5859Y2433D02*
D03*
X5941Y2470D02*
D03*
Y2395D02*
D03*
D31*
X5500Y2701D02*
D03*
Y2639D02*
D03*
X5657Y2701D02*
D03*
Y2639D02*
D03*
X6090Y2701D02*
D03*
Y2639D02*
D03*
X5900Y2701D02*
D03*
Y2639D02*
D03*
D32*
X5030Y4731D02*
D03*
X5067Y4649D02*
D03*
X4993D02*
D03*
X4850Y4731D02*
D03*
X4887Y4649D02*
D03*
X4813D02*
D03*
D33*
X5671Y3930D02*
Y4630D01*
X5330Y3589D02*
X5671Y3930D01*
X5330Y2791D02*
Y3589D01*
Y2791D02*
X5420Y2701D01*
X5671Y4750D02*
Y4879D01*
Y4630D02*
Y4750D01*
X5670Y4880D02*
X5671Y4879D01*
X5420Y2701D02*
X5500D01*
X5294Y2387D02*
X5299Y2392D01*
X5900Y2701D02*
X6090D01*
X5657D02*
X5900D01*
X5500D02*
X5657D01*
D34*
X5770Y4880D02*
D03*
X5670D02*
D03*
X5970D02*
D03*
X5870D02*
D03*
D35*
X4480Y4360D02*
D03*
X6650Y4700D02*
D03*
X4680Y2380D02*
D03*
X6680Y2390D02*
D03*
D36*
X4680Y4360D02*
D03*
X6850Y4700D02*
D03*
X4880Y2380D02*
D03*
X6880Y2390D02*
D03*
D37*
X5780Y2180D02*
D03*
X5980D02*
D03*
X5880D02*
D03*
X5680D02*
D03*
D38*
X5580D02*
D03*
D39*
X5420Y4840D02*
D03*
X4410Y4830D02*
D03*
X5040Y2250D02*
D03*
X4500D02*
D03*
X7060Y2240D02*
D03*
X6500D02*
D03*
X7090Y4810D02*
D03*
X6430D02*
D03*
D40*
X7283Y2387D02*
D03*
Y4670D02*
D03*
X6260Y2387D02*
D03*
Y4670D02*
D03*
X5294Y2387D02*
D03*
Y4670D02*
D03*
X4270Y2387D02*
D03*
Y4670D02*
D03*
D41*
X5597Y4340D02*
D03*
X4890Y4570D02*
D03*
X5070Y4520D02*
D03*
X6100Y2540D02*
D03*
X5940D02*
D03*
X5740D02*
D03*
X5580D02*
D03*
X5180Y2240D02*
D03*
X5340Y2160D02*
D03*
X6120Y2290D02*
D03*
X5930Y2280D02*
D03*
X5060Y4430D02*
D03*
X4780Y4600D02*
D03*
X6330Y2230D02*
D03*
X6160Y2220D02*
D03*
X6210Y2248D02*
D03*
X5930Y2323D02*
D03*
X5810Y2350D02*
D03*
X6080Y2248D02*
D03*
M02*
