G04*
G04 #@! TF.GenerationSoftware,Altium Limited,Altium Designer,19.0.10 (269)*
G04*
G04 Layer_Color=8388736*
%FSLAX23Y23*%
%MOIN*%
G70*
G01*
G75*
%ADD14R,0.037X0.040*%
%ADD15R,0.053X0.053*%
%ADD16R,0.057X0.030*%
%ADD17R,0.040X0.037*%
%ADD18R,0.030X0.057*%
%ADD19C,0.066*%
%ADD20C,0.093*%
%ADD21R,0.093X0.093*%
%ADD22C,0.085*%
%ADD23R,0.085X0.085*%
%ADD24C,0.163*%
%ADD25C,0.242*%
%ADD26C,0.006*%
%ADD27C,0.033*%
D14*
X5987Y2290D02*
D03*
X6048D02*
D03*
X5829Y2292D02*
D03*
X5891D02*
D03*
X5711D02*
D03*
X5649D02*
D03*
X5551Y2290D02*
D03*
X5489D02*
D03*
X5671Y4750D02*
D03*
X5609D02*
D03*
X5671Y4630D02*
D03*
X5609D02*
D03*
D15*
X5389Y2180D02*
D03*
X5471D02*
D03*
X5179D02*
D03*
X5261D02*
D03*
X4859Y4870D02*
D03*
X4941D02*
D03*
X5079D02*
D03*
X5161D02*
D03*
X6331Y2180D02*
D03*
X6249D02*
D03*
X6161D02*
D03*
X6079D02*
D03*
D16*
X5657Y2433D02*
D03*
X5740Y2470D02*
D03*
Y2395D02*
D03*
X5499Y2433D02*
D03*
X5581Y2470D02*
D03*
Y2395D02*
D03*
X6019Y2433D02*
D03*
X6101Y2470D02*
D03*
Y2395D02*
D03*
X5859Y2433D02*
D03*
X5941Y2470D02*
D03*
Y2395D02*
D03*
D17*
X5500Y2701D02*
D03*
Y2639D02*
D03*
X5657Y2701D02*
D03*
Y2639D02*
D03*
X6090Y2701D02*
D03*
Y2639D02*
D03*
X5900Y2701D02*
D03*
Y2639D02*
D03*
D18*
X5030Y4731D02*
D03*
X5067Y4649D02*
D03*
X4993D02*
D03*
X4850Y4731D02*
D03*
X4887Y4649D02*
D03*
X4813D02*
D03*
D19*
X5770Y4880D02*
D03*
X5670D02*
D03*
X5970D02*
D03*
X5870D02*
D03*
D20*
X4480Y4360D02*
D03*
X6650Y4700D02*
D03*
X4680Y2380D02*
D03*
X6680Y2390D02*
D03*
D21*
X4680Y4360D02*
D03*
X6850Y4700D02*
D03*
X4880Y2380D02*
D03*
X6880Y2390D02*
D03*
D22*
X5780Y2180D02*
D03*
X5980D02*
D03*
X5880D02*
D03*
X5680D02*
D03*
D23*
X5580D02*
D03*
D24*
X5420Y4840D02*
D03*
X4410Y4830D02*
D03*
X5040Y2250D02*
D03*
X4500D02*
D03*
X7060Y2240D02*
D03*
X6500D02*
D03*
X7090Y4810D02*
D03*
X6430D02*
D03*
D25*
X7283Y2387D02*
D03*
Y4670D02*
D03*
X6260Y2387D02*
D03*
Y4670D02*
D03*
X5294Y2387D02*
D03*
Y4670D02*
D03*
X4270Y2387D02*
D03*
Y4670D02*
D03*
D26*
X6448Y2559D02*
D03*
Y4488D02*
D03*
X4164Y2559D02*
D03*
Y4488D02*
D03*
D27*
X5597Y4340D02*
D03*
X4890Y4570D02*
D03*
X5070Y4520D02*
D03*
X6100Y2540D02*
D03*
X5940D02*
D03*
X5740D02*
D03*
X5580D02*
D03*
X5180Y2240D02*
D03*
X5340Y2160D02*
D03*
X6120Y2290D02*
D03*
X5930Y2280D02*
D03*
X5060Y4430D02*
D03*
X4780Y4600D02*
D03*
X6330Y2230D02*
D03*
X6160Y2220D02*
D03*
X6210Y2248D02*
D03*
X5930Y2323D02*
D03*
X5810Y2350D02*
D03*
X6080Y2248D02*
D03*
M02*
