M48
;Layer_Color=9474304
;FILE_FORMAT=2:3
INCH,LZ
;TYPE=PLATED
T1F00S00C0.012
T2F00S00C0.038
T3F00S00C0.043
T4F00S00C0.118
T5F00S00C0.138
;TYPE=NON_PLATED
T6F00S00C0.108
%
T01
X0593Y0228
Y02323
X0612Y0229
X0608Y02248
X0616Y0222
X0621Y02248
X0633Y0223
X0534Y0216
X0518Y0224
X0558Y0254
X0574
X0594
X061
X0581Y0235
X05597Y0434
X0506Y0443
X0507Y0452
X0489Y0457
X0478Y046
T02
X0468Y0238
X0488
X0668Y0239
X0688
X0685Y047
X0665
X0597Y0488
X0587
X0577
X0567
X0468Y0436
X0448
T03
X0558Y0218
X0568
X0578
X0588
X0598
T04
X065Y0224
X0706
X0504Y0225
X045
X0643Y0481
X0709
X0542Y0484
X0441Y0483
T05
X0427Y02387
X05294
X0626
X07283
Y0467
X0626
X05294
X0427
T06
X04164Y02559
X06448
Y04488
X04164
M30
