G04*
G04 #@! TF.GenerationSoftware,Altium Limited,Altium Designer,19.0.10 (269)*
G04*
G04 Layer_Color=16711935*
%FSLAX23Y23*%
%MOIN*%
G70*
G01*
G75*
%ADD14R,0.040X0.037*%
%ADD15R,0.070X0.070*%
%ADD16R,0.070X0.070*%
%ADD19R,0.037X0.040*%
%ADD20R,0.091X0.102*%
%ADD25C,0.104*%
%ADD26C,0.089*%
%ADD27C,0.085*%
%ADD28C,0.093*%
%ADD29R,0.093X0.093*%
%ADD30R,0.093X0.093*%
%ADD31R,0.085X0.085*%
%ADD32C,0.053*%
%ADD33R,0.085X0.085*%
%ADD34C,0.006*%
%ADD63R,0.102X0.091*%
D14*
X4825Y3484D02*
D03*
Y3546D02*
D03*
X4732Y4058D02*
D03*
Y3997D02*
D03*
X4380Y2676D02*
D03*
Y2614D02*
D03*
X5087Y3851D02*
D03*
Y3789D02*
D03*
D15*
X7110Y3461D02*
D03*
Y3595D02*
D03*
X7105Y2735D02*
D03*
Y2869D02*
D03*
X6590Y2855D02*
D03*
Y2989D02*
D03*
X6245Y2980D02*
D03*
Y2846D02*
D03*
X6485Y2850D02*
D03*
Y2984D02*
D03*
X6355D02*
D03*
Y2850D02*
D03*
X6595Y3440D02*
D03*
Y3574D02*
D03*
X6480Y3441D02*
D03*
Y3575D02*
D03*
X6245Y3579D02*
D03*
Y3445D02*
D03*
X6360Y3579D02*
D03*
Y3445D02*
D03*
X6595Y4056D02*
D03*
Y4190D02*
D03*
X6345D02*
D03*
Y4056D02*
D03*
X6475D02*
D03*
Y4190D02*
D03*
X6235D02*
D03*
Y4056D02*
D03*
X7280Y2864D02*
D03*
Y2730D02*
D03*
X7090Y4176D02*
D03*
Y4310D02*
D03*
X7280Y3594D02*
D03*
Y3460D02*
D03*
X7275Y4305D02*
D03*
Y4171D02*
D03*
D16*
X7246Y3270D02*
D03*
X7380D02*
D03*
X7246Y3175D02*
D03*
X7380D02*
D03*
X7245Y3070D02*
D03*
X7379D02*
D03*
X7159Y4525D02*
D03*
X7025D02*
D03*
X7240Y3820D02*
D03*
X7374D02*
D03*
X7241Y3985D02*
D03*
X7375D02*
D03*
X7144Y3100D02*
D03*
X7010D02*
D03*
X7129Y3245D02*
D03*
X6995D02*
D03*
X6925Y4135D02*
D03*
X6791D02*
D03*
X6920Y3490D02*
D03*
X6786D02*
D03*
X7145Y2505D02*
D03*
X7011D02*
D03*
X6905Y2735D02*
D03*
X6771D02*
D03*
X5518Y4032D02*
D03*
X5652D02*
D03*
X7241Y3905D02*
D03*
X7375D02*
D03*
X7122Y3918D02*
D03*
X6988D02*
D03*
X7129Y3820D02*
D03*
X6995D02*
D03*
D19*
X4481Y3905D02*
D03*
X4419D02*
D03*
X4926Y3630D02*
D03*
X4864D02*
D03*
X4936Y3550D02*
D03*
X4874D02*
D03*
X4476Y3505D02*
D03*
X4537D02*
D03*
X4851Y2925D02*
D03*
X4789D02*
D03*
X5286Y3615D02*
D03*
X5224D02*
D03*
X5291Y3805D02*
D03*
X5229D02*
D03*
D20*
X4510Y4430D02*
D03*
Y4260D02*
D03*
X5250Y4435D02*
D03*
Y4265D02*
D03*
X5060Y4435D02*
D03*
Y4265D02*
D03*
X4880Y4430D02*
D03*
Y4260D02*
D03*
X4695Y4430D02*
D03*
Y4260D02*
D03*
D25*
X5695Y3610D02*
D03*
X4120D02*
D03*
X5695Y4279D02*
D03*
X4120D02*
D03*
X5695Y2760D02*
D03*
X4120D02*
D03*
X5695Y3429D02*
D03*
X4120D02*
D03*
D26*
X7365Y4240D02*
D03*
Y4340D02*
D03*
Y4140D02*
D03*
X7368Y3527D02*
D03*
Y3627D02*
D03*
Y3427D02*
D03*
X7193Y2798D02*
D03*
Y2698D02*
D03*
Y2898D02*
D03*
Y4235D02*
D03*
Y4135D02*
D03*
Y4335D02*
D03*
Y3528D02*
D03*
Y3428D02*
D03*
Y3628D02*
D03*
X7368Y2797D02*
D03*
Y2897D02*
D03*
Y2697D02*
D03*
D27*
X6805Y4235D02*
D03*
X6905D02*
D03*
X6070Y2990D02*
D03*
Y3090D02*
D03*
X6075Y4300D02*
D03*
Y4400D02*
D03*
X5260Y4545D02*
D03*
X4860D02*
D03*
X5060D02*
D03*
X5160D02*
D03*
X4960D02*
D03*
X4920Y2530D02*
D03*
X4520D02*
D03*
X4720D02*
D03*
X4820D02*
D03*
X4620D02*
D03*
X6780Y3920D02*
D03*
Y4020D02*
D03*
Y3280D02*
D03*
Y3380D02*
D03*
X6805Y3585D02*
D03*
X6905D02*
D03*
X6075Y3645D02*
D03*
Y3745D02*
D03*
X6780Y2500D02*
D03*
Y2600D02*
D03*
X6795Y2840D02*
D03*
X6895D02*
D03*
X5490Y3405D02*
D03*
Y3805D02*
D03*
Y3605D02*
D03*
Y3505D02*
D03*
Y3705D02*
D03*
D28*
X5900Y2500D02*
D03*
X5800D02*
D03*
X5695D02*
D03*
X5100D02*
D03*
X5600D02*
D03*
X5500D02*
D03*
X5985Y3930D02*
D03*
X7155Y4025D02*
D03*
X6955D02*
D03*
X5695Y4540D02*
D03*
X6875Y3125D02*
D03*
X6675D02*
D03*
X6875Y3820D02*
D03*
X6675D02*
D03*
X6875Y4440D02*
D03*
X6675D02*
D03*
X7184D02*
D03*
X6984D02*
D03*
X7155Y3735D02*
D03*
X6955D02*
D03*
X5495Y4405D02*
D03*
X4125Y3940D02*
D03*
Y3840D02*
D03*
Y3740D02*
D03*
Y3315D02*
D03*
Y2990D02*
D03*
Y3100D02*
D03*
X5200Y2500D02*
D03*
X5300D02*
D03*
X5400D02*
D03*
X5985Y3270D02*
D03*
X7155Y3330D02*
D03*
X6955D02*
D03*
X5985Y2615D02*
D03*
X7155Y2595D02*
D03*
X6955D02*
D03*
X7155Y3005D02*
D03*
X6955D02*
D03*
D29*
X5985Y4130D02*
D03*
Y3470D02*
D03*
Y2815D02*
D03*
D30*
X5695Y4405D02*
D03*
D31*
X4760Y4545D02*
D03*
X4420Y2530D02*
D03*
D32*
X5175Y3622D02*
D03*
Y3805D02*
D03*
D33*
X5490Y3905D02*
D03*
D34*
X6448Y2559D02*
D03*
Y4488D02*
D03*
X4164Y2559D02*
D03*
Y4488D02*
D03*
D63*
X6470Y3235D02*
D03*
X6300D02*
D03*
M02*
