G04*
G04 #@! TF.GenerationSoftware,Altium Limited,Altium Designer,19.0.10 (269)*
G04*
G04 Layer_Physical_Order=4*
G04 Layer_Color=16711680*
%FSLAX23Y23*%
%MOIN*%
G70*
G01*
G75*
%ADD10C,0.010*%
%ADD35R,0.034X0.031*%
%ADD36R,0.064X0.064*%
%ADD37R,0.064X0.064*%
%ADD40R,0.031X0.034*%
%ADD41R,0.085X0.096*%
%ADD46C,0.050*%
%ADD47C,0.039*%
%ADD48C,0.020*%
%ADD49C,0.020*%
%ADD50C,0.100*%
%ADD51C,0.079*%
%ADD52C,0.098*%
%ADD53C,0.083*%
%ADD54C,0.079*%
%ADD55C,0.087*%
%ADD56R,0.087X0.087*%
%ADD57R,0.087X0.087*%
%ADD58R,0.079X0.079*%
%ADD59C,0.047*%
%ADD60R,0.079X0.079*%
%ADD61C,0.028*%
%ADD62R,0.096X0.085*%
G36*
X7339Y4610D02*
X7354Y4607D01*
X7369Y4603D01*
X7382Y4596D01*
X7395Y4588D01*
X7407Y4578D01*
X7418Y4567D01*
X7427Y4555D01*
X7434Y4541D01*
X7440Y4527D01*
X7444Y4513D01*
X7445Y4506D01*
X7445Y4191D01*
X7440Y4190D01*
X7438Y4193D01*
X7410Y4220D01*
X7413Y4227D01*
X7415Y4240D01*
X7413Y4253D01*
X7408Y4265D01*
X7400Y4275D01*
X7390Y4283D01*
X7379Y4287D01*
X7379Y4287D01*
Y4293D01*
X7379Y4293D01*
X7390Y4297D01*
X7400Y4305D01*
X7408Y4315D01*
X7410Y4320D01*
X7365D01*
Y4340D01*
X7345D01*
Y4385D01*
X7340Y4383D01*
X7330Y4375D01*
X7322Y4365D01*
X7317Y4353D01*
X7317Y4349D01*
X7315Y4345D01*
X7311Y4345D01*
X7242D01*
X7241Y4348D01*
X7236Y4360D01*
X7228Y4370D01*
X7222Y4375D01*
Y4405D01*
X7229Y4414D01*
X7234Y4427D01*
X7236Y4440D01*
X7234Y4453D01*
X7229Y4466D01*
X7221Y4477D01*
X7210Y4485D01*
X7199Y4489D01*
Y4518D01*
X7199Y4520D01*
Y4565D01*
X7119D01*
Y4485D01*
X7133D01*
Y4468D01*
X7134Y4460D01*
X7136Y4456D01*
X7135Y4453D01*
X7133Y4440D01*
X7135Y4427D01*
X7140Y4414D01*
X7148Y4403D01*
X7156Y4398D01*
Y4367D01*
X7150Y4360D01*
X7146Y4350D01*
X7097D01*
X7095Y4350D01*
X7050D01*
Y4270D01*
X7130D01*
Y4284D01*
X7166D01*
X7171Y4284D01*
X7172Y4280D01*
X7168Y4278D01*
X7158Y4270D01*
X7150Y4260D01*
X7148Y4255D01*
X7193D01*
X7238D01*
X7236Y4260D01*
X7236Y4260D01*
X7239Y4265D01*
X7315D01*
Y4319D01*
X7320Y4320D01*
X7322Y4315D01*
X7330Y4305D01*
X7340Y4297D01*
X7351Y4293D01*
X7351Y4293D01*
Y4287D01*
X7351Y4287D01*
X7340Y4283D01*
X7330Y4275D01*
X7322Y4265D01*
X7317Y4253D01*
X7315Y4240D01*
X7317Y4227D01*
X7322Y4215D01*
X7330Y4205D01*
X7333Y4203D01*
X7332Y4198D01*
X7332Y4197D01*
X7315D01*
Y4211D01*
X7241D01*
X7238Y4215D01*
X7238Y4215D01*
X7193D01*
X7148D01*
X7150Y4210D01*
X7158Y4200D01*
X7168Y4192D01*
X7179Y4188D01*
X7179Y4188D01*
Y4182D01*
X7179Y4182D01*
X7168Y4178D01*
X7158Y4170D01*
X7143D01*
X7130Y4183D01*
Y4216D01*
X7050D01*
Y4136D01*
X7083D01*
X7106Y4114D01*
X7112Y4108D01*
X7120Y4105D01*
X7129Y4104D01*
X7155D01*
X7158Y4100D01*
X7165Y4095D01*
X7163Y4090D01*
X6789D01*
X6789Y4090D01*
X6792Y4095D01*
X6831D01*
Y4140D01*
X6831Y4142D01*
Y4196D01*
X6839Y4201D01*
X6846Y4211D01*
X6851Y4223D01*
X6852Y4231D01*
X6852Y4234D01*
X6858D01*
X6858Y4231D01*
X6859Y4223D01*
X6864Y4211D01*
X6871Y4201D01*
X6881Y4194D01*
X6885Y4192D01*
Y4235D01*
Y4278D01*
X6881Y4276D01*
X6871Y4269D01*
X6864Y4259D01*
X6859Y4247D01*
X6858Y4239D01*
X6858Y4236D01*
X6852D01*
X6852Y4239D01*
X6851Y4247D01*
X6846Y4259D01*
X6839Y4269D01*
X6833Y4273D01*
Y4315D01*
X6832Y4324D01*
X6828Y4332D01*
X6823Y4339D01*
X6726Y4436D01*
X6727Y4440D01*
X6725Y4453D01*
X6720Y4466D01*
X6712Y4477D01*
X6701Y4485D01*
X6700Y4485D01*
Y4611D01*
X7315D01*
X7316Y4611D01*
X7316Y4611D01*
X7324Y4611D01*
X7339Y4610D01*
D02*
G37*
G36*
X6766Y4302D02*
Y4262D01*
X6764Y4259D01*
X6759Y4247D01*
X6757Y4235D01*
X6759Y4223D01*
X6764Y4211D01*
X6765Y4210D01*
Y4175D01*
X6751D01*
Y4130D01*
X6747Y4128D01*
X6714Y4161D01*
X6700D01*
Y4338D01*
X6700Y4338D01*
X6701Y4347D01*
Y4360D01*
X6706Y4362D01*
X6766Y4302D01*
D02*
G37*
G36*
X7282Y4131D02*
X7317D01*
X7317Y4127D01*
X7322Y4115D01*
X7330Y4105D01*
X7340Y4097D01*
X7345Y4095D01*
X7344Y4090D01*
X7272D01*
X7269Y4096D01*
X7264Y4102D01*
X7242Y4125D01*
X7242Y4131D01*
X7280D01*
X7282Y4131D01*
D02*
G37*
G36*
X5000Y3894D02*
X4949Y3842D01*
X4946Y3838D01*
X4945Y3833D01*
Y3806D01*
X4938Y3802D01*
X4934Y3795D01*
X4932Y3786D01*
X4934Y3778D01*
X4938Y3771D01*
X4946Y3766D01*
X4954Y3764D01*
X4962Y3766D01*
X4970Y3771D01*
X4974Y3778D01*
X4976Y3786D01*
X4974Y3795D01*
X4971Y3800D01*
Y3827D01*
X4995Y3852D01*
X5000Y3850D01*
X5000Y3643D01*
X4949D01*
Y3655D01*
X4902D01*
Y3605D01*
X4922D01*
Y3575D01*
X4912D01*
Y3525D01*
X4959D01*
Y3537D01*
X5000D01*
Y3437D01*
X4964Y3401D01*
X4838D01*
Y3461D01*
X4850D01*
Y3508D01*
X4800D01*
Y3461D01*
X4812D01*
Y3401D01*
X4576Y3401D01*
X4574Y3405D01*
X4647Y3478D01*
X4650Y3483D01*
X4651Y3488D01*
Y3490D01*
X4694Y3532D01*
X4786D01*
Y3546D01*
X4835D01*
Y3550D01*
X4874D01*
Y3589D01*
X4888D01*
Y3591D01*
X4861D01*
Y3575D01*
X4851D01*
Y3573D01*
X4850Y3569D01*
X4800D01*
Y3559D01*
X4688D01*
X4683Y3558D01*
X4679Y3555D01*
X4632Y3508D01*
X4576D01*
Y3505D01*
X4537D01*
Y3480D01*
X4533Y3480D01*
X4525Y3479D01*
X4520Y3475D01*
X4520Y3475D01*
X4518Y3474D01*
X4518Y3474D01*
X4518Y3474D01*
X4516Y3471D01*
X4516Y3472D01*
X4516Y3472D01*
X4508Y3477D01*
X4503Y3478D01*
X4503Y3478D01*
X4500Y3479D01*
X4492Y3477D01*
X4489Y3475D01*
X4489Y3475D01*
X4484Y3472D01*
X4480Y3465D01*
X4478Y3457D01*
X4480Y3448D01*
X4484Y3441D01*
X4492Y3436D01*
X4500Y3434D01*
X4508Y3436D01*
X4516Y3441D01*
X4516Y3441D01*
X4518Y3443D01*
X4525Y3438D01*
X4533Y3436D01*
X4542Y3438D01*
X4549Y3443D01*
X4549Y3443D01*
X4554D01*
X4554Y3443D01*
X4562Y3438D01*
X4563Y3438D01*
X4564Y3433D01*
X4549Y3417D01*
X4450D01*
X4418Y3449D01*
X4414Y3452D01*
X4409Y3453D01*
X4400D01*
Y3487D01*
X4453D01*
Y3480D01*
X4487D01*
X4487Y3480D01*
X4499D01*
Y3483D01*
X4499Y3483D01*
Y3530D01*
X4453D01*
Y3513D01*
X4400D01*
X4400Y3880D01*
X4419D01*
Y3930D01*
X4415D01*
X4400Y3944D01*
Y4001D01*
X4707D01*
Y3974D01*
X4757D01*
Y3984D01*
X4840D01*
X4845Y3985D01*
X4850Y3988D01*
X4863Y4001D01*
X5000D01*
Y3894D01*
D02*
G37*
G36*
X7445Y3341D02*
X7272D01*
Y3374D01*
X7271Y3382D01*
X7268Y3390D01*
X7262Y3397D01*
X7245Y3415D01*
X7247Y3420D01*
X7285D01*
X7287Y3420D01*
X7319D01*
X7320Y3420D01*
X7320Y3414D01*
X7325Y3402D01*
X7333Y3392D01*
X7343Y3384D01*
X7355Y3379D01*
X7368Y3377D01*
X7381Y3379D01*
X7393Y3384D01*
X7403Y3392D01*
X7411Y3402D01*
X7416Y3414D01*
X7418Y3427D01*
X7416Y3440D01*
X7411Y3452D01*
X7403Y3462D01*
X7393Y3470D01*
X7382Y3474D01*
X7382Y3474D01*
Y3479D01*
X7382Y3479D01*
X7393Y3484D01*
X7403Y3492D01*
X7411Y3502D01*
X7416Y3514D01*
X7418Y3527D01*
X7416Y3540D01*
X7411Y3552D01*
X7403Y3562D01*
X7393Y3570D01*
X7382Y3574D01*
X7382Y3574D01*
Y3579D01*
X7382Y3579D01*
X7393Y3584D01*
X7403Y3592D01*
X7411Y3602D01*
X7413Y3607D01*
X7368D01*
Y3627D01*
X7349D01*
Y3672D01*
X7343Y3670D01*
X7333Y3662D01*
X7325Y3652D01*
X7320Y3640D01*
X7320Y3634D01*
X7242D01*
X7241Y3641D01*
X7236Y3653D01*
X7228Y3663D01*
X7220Y3670D01*
Y3693D01*
X7219Y3702D01*
X7216Y3710D01*
X7211Y3716D01*
X7205Y3722D01*
X7207Y3735D01*
X7205Y3748D01*
X7200Y3761D01*
X7192Y3772D01*
X7181Y3780D01*
X7169Y3785D01*
Y3791D01*
X7200D01*
Y3780D01*
X7280D01*
Y3791D01*
X7334D01*
Y3780D01*
X7414D01*
Y3791D01*
X7445D01*
X7445Y3341D01*
D02*
G37*
G36*
X7089Y3780D02*
X7103D01*
Y3764D01*
X7104Y3755D01*
X7106Y3750D01*
X7105Y3748D01*
X7103Y3735D01*
X7105Y3722D01*
X7110Y3709D01*
X7118Y3698D01*
X7129Y3690D01*
X7142Y3685D01*
X7149Y3684D01*
X7154Y3679D01*
Y3658D01*
X7150Y3653D01*
X7145Y3641D01*
X7145Y3635D01*
X7144Y3635D01*
X7117D01*
X7115Y3635D01*
X7070D01*
Y3555D01*
X7146D01*
X7149Y3550D01*
X7148Y3548D01*
X7193D01*
X7238D01*
X7238Y3550D01*
X7241Y3554D01*
X7320D01*
Y3602D01*
X7325Y3603D01*
X7325Y3602D01*
X7333Y3592D01*
X7343Y3584D01*
X7354Y3579D01*
X7354Y3579D01*
Y3574D01*
X7354Y3574D01*
X7343Y3570D01*
X7333Y3562D01*
X7325Y3552D01*
X7320Y3540D01*
X7319Y3527D01*
X7320Y3514D01*
X7325Y3502D01*
X7333Y3492D01*
X7334Y3491D01*
X7334Y3489D01*
X7332Y3486D01*
X7320D01*
Y3500D01*
X7240D01*
Y3456D01*
X7235Y3455D01*
X7228Y3463D01*
X7218Y3471D01*
X7207Y3476D01*
X7207Y3476D01*
Y3481D01*
X7207Y3481D01*
X7218Y3485D01*
X7228Y3493D01*
X7236Y3503D01*
X7238Y3509D01*
X7193D01*
X7148D01*
X7149Y3506D01*
X7147Y3501D01*
X7146Y3501D01*
X7070D01*
Y3421D01*
X7103D01*
X7121Y3403D01*
X7128Y3398D01*
X7136Y3395D01*
X7144Y3394D01*
X7158D01*
X7158Y3393D01*
X7168Y3385D01*
X7180Y3380D01*
X7186Y3380D01*
X7206Y3360D01*
Y3354D01*
X7201Y3353D01*
X7200Y3356D01*
X7192Y3367D01*
X7181Y3375D01*
X7168Y3380D01*
X7155Y3382D01*
X7142Y3380D01*
X7129Y3375D01*
X7118Y3367D01*
X7110Y3356D01*
X7105Y3343D01*
X7105Y3341D01*
X7005D01*
X7005Y3343D01*
X7000Y3356D01*
X6992Y3367D01*
X6981Y3375D01*
X6968Y3380D01*
X6955Y3382D01*
X6942Y3380D01*
X6929Y3375D01*
X6918Y3367D01*
X6910Y3356D01*
X6905Y3343D01*
X6905Y3341D01*
X6866D01*
X6828Y3379D01*
X6828Y3380D01*
X6826Y3392D01*
X6821Y3404D01*
X6814Y3414D01*
X6804Y3421D01*
X6792Y3426D01*
X6780Y3428D01*
X6772Y3427D01*
X6754Y3446D01*
X6756Y3450D01*
X6826D01*
Y3495D01*
X6826Y3497D01*
Y3543D01*
X6829Y3544D01*
X6839Y3551D01*
X6846Y3561D01*
X6851Y3573D01*
X6852Y3581D01*
X6852Y3584D01*
X6858D01*
X6858Y3581D01*
X6859Y3573D01*
X6864Y3561D01*
X6871Y3551D01*
X6881Y3544D01*
X6885Y3542D01*
Y3585D01*
Y3628D01*
X6881Y3626D01*
X6871Y3619D01*
X6864Y3609D01*
X6859Y3597D01*
X6858Y3589D01*
X6858Y3586D01*
X6852D01*
X6852Y3589D01*
X6851Y3597D01*
X6846Y3609D01*
X6839Y3619D01*
X6833Y3623D01*
Y3695D01*
X6832Y3704D01*
X6828Y3712D01*
X6823Y3719D01*
X6755Y3787D01*
X6757Y3791D01*
X6833D01*
X6838Y3783D01*
X6849Y3775D01*
X6862Y3770D01*
X6875Y3768D01*
X6888Y3770D01*
X6901Y3775D01*
X6912Y3783D01*
X6917Y3791D01*
X6943D01*
X6945Y3786D01*
X6945Y3785D01*
X6942Y3785D01*
X6929Y3780D01*
X6918Y3772D01*
X6910Y3761D01*
X6905Y3748D01*
X6903Y3735D01*
X6905Y3722D01*
X6910Y3709D01*
X6918Y3698D01*
X6929Y3690D01*
X6942Y3685D01*
X6955Y3683D01*
X6968Y3685D01*
X6981Y3690D01*
X6992Y3698D01*
X7000Y3709D01*
X7005Y3722D01*
X7007Y3735D01*
X7005Y3748D01*
X7011Y3754D01*
X7017Y3761D01*
X7020Y3769D01*
X7021Y3778D01*
Y3780D01*
X7035D01*
Y3791D01*
X7089D01*
Y3780D01*
D02*
G37*
G36*
X5000Y3563D02*
X4959D01*
Y3575D01*
X4949D01*
Y3605D01*
X4949D01*
Y3617D01*
X5000D01*
Y3563D01*
D02*
G37*
G36*
X6766Y3682D02*
Y3612D01*
X6764Y3609D01*
X6759Y3597D01*
X6757Y3585D01*
X6759Y3573D01*
X6760Y3569D01*
X6760Y3565D01*
Y3530D01*
X6746D01*
Y3460D01*
X6742Y3458D01*
X6736Y3463D01*
X6729Y3469D01*
X6721Y3472D01*
X6712Y3473D01*
X6700D01*
Y3742D01*
X6705Y3743D01*
X6766Y3682D01*
D02*
G37*
G36*
X7103Y3006D02*
X7103Y3005D01*
X7105Y2992D01*
X7110Y2979D01*
X7118Y2968D01*
X7129Y2960D01*
X7142Y2955D01*
X7149Y2954D01*
X7154Y2949D01*
Y2928D01*
X7150Y2923D01*
X7145Y2911D01*
X7145Y2909D01*
X7112D01*
X7110Y2909D01*
X7065D01*
Y2829D01*
X7145D01*
Y2843D01*
X7162D01*
X7162Y2843D01*
X7164Y2838D01*
X7158Y2833D01*
X7150Y2823D01*
X7148Y2818D01*
X7193D01*
X7238D01*
X7238Y2820D01*
X7241Y2824D01*
X7320D01*
Y2872D01*
X7325Y2873D01*
X7325Y2872D01*
X7333Y2862D01*
X7343Y2854D01*
X7354Y2849D01*
X7354Y2849D01*
Y2844D01*
X7354Y2844D01*
X7343Y2840D01*
X7333Y2832D01*
X7325Y2822D01*
X7320Y2810D01*
X7319Y2797D01*
X7320Y2784D01*
X7325Y2772D01*
X7333Y2762D01*
X7334Y2761D01*
X7334Y2759D01*
X7332Y2756D01*
X7320D01*
Y2770D01*
X7240D01*
Y2726D01*
X7235Y2725D01*
X7228Y2733D01*
X7218Y2741D01*
X7207Y2746D01*
X7207Y2746D01*
Y2751D01*
X7207Y2751D01*
X7218Y2755D01*
X7228Y2763D01*
X7236Y2773D01*
X7238Y2779D01*
X7193D01*
X7148D01*
X7148Y2778D01*
X7144Y2775D01*
X7065D01*
Y2761D01*
X7006D01*
X6997Y2760D01*
X6989Y2757D01*
X6982Y2751D01*
X6949Y2719D01*
X6945Y2721D01*
Y2775D01*
X6944D01*
Y2735D01*
X6905D01*
Y2702D01*
X6869D01*
X6865Y2702D01*
Y2702D01*
X6861Y2701D01*
X6853Y2698D01*
X6846Y2693D01*
X6811Y2658D01*
X6804Y2657D01*
X6796Y2654D01*
X6789Y2648D01*
X6788Y2647D01*
X6780Y2648D01*
X6768Y2646D01*
X6756Y2641D01*
X6746Y2634D01*
X6739Y2624D01*
X6734Y2612D01*
X6732Y2600D01*
X6734Y2588D01*
X6739Y2576D01*
X6746Y2566D01*
X6756Y2559D01*
X6768Y2554D01*
X6779Y2553D01*
Y2547D01*
X6768Y2546D01*
X6756Y2541D01*
X6748Y2535D01*
X6729D01*
X6703Y2562D01*
Y2950D01*
X6702Y2957D01*
X6700Y2962D01*
Y3009D01*
X6738D01*
X6772Y2975D01*
Y2951D01*
X6772Y2951D01*
X6768Y2943D01*
X6767Y2934D01*
Y2878D01*
X6761Y2874D01*
X6754Y2864D01*
X6749Y2852D01*
X6747Y2840D01*
X6749Y2830D01*
X6746Y2824D01*
X6745Y2815D01*
Y2775D01*
X6731D01*
Y2695D01*
X6811D01*
Y2740D01*
X6811Y2742D01*
Y2796D01*
X6819Y2799D01*
X6829Y2806D01*
X6836Y2816D01*
X6841Y2828D01*
X6842Y2836D01*
X6842Y2839D01*
X6848D01*
X6848Y2836D01*
X6849Y2828D01*
X6854Y2816D01*
X6861Y2806D01*
X6871Y2799D01*
X6875Y2797D01*
Y2840D01*
Y2883D01*
X6871Y2881D01*
X6861Y2874D01*
X6854Y2864D01*
X6849Y2852D01*
X6848Y2844D01*
X6848Y2841D01*
X6842D01*
X6842Y2844D01*
X6841Y2852D01*
X6836Y2864D01*
X6834Y2867D01*
Y2922D01*
X6834Y2922D01*
X6837Y2930D01*
X6838Y2939D01*
Y2989D01*
X6837Y2998D01*
X6834Y3004D01*
X6836Y3009D01*
X6900D01*
X6903Y3006D01*
X6903Y3005D01*
X6905Y2992D01*
X6910Y2979D01*
X6918Y2968D01*
X6929Y2960D01*
X6942Y2955D01*
X6955Y2953D01*
X6968Y2955D01*
X6981Y2960D01*
X6992Y2968D01*
X7000Y2979D01*
X7005Y2992D01*
X7007Y3005D01*
X7007Y3006D01*
X7010Y3009D01*
X7100D01*
X7103Y3006D01*
D02*
G37*
G36*
X7445Y2541D02*
X7444Y2536D01*
X7439Y2521D01*
X7433Y2507D01*
X7425Y2494D01*
X7415Y2482D01*
X7405Y2471D01*
X7393Y2462D01*
X7380Y2453D01*
X7366Y2447D01*
X7352Y2441D01*
X7337Y2438D01*
X7322Y2436D01*
X7314Y2436D01*
X7314Y2436D01*
X7314Y2436D01*
X6700D01*
Y2480D01*
X6705Y2483D01*
X6710Y2481D01*
X6717Y2480D01*
X6737D01*
X6739Y2476D01*
X6746Y2466D01*
X6756Y2459D01*
X6768Y2454D01*
X6780Y2452D01*
X6792Y2454D01*
X6804Y2459D01*
X6814Y2466D01*
X6821Y2476D01*
X6826Y2488D01*
X6828Y2500D01*
X6826Y2512D01*
X6821Y2524D01*
X6814Y2534D01*
X6804Y2541D01*
X6792Y2546D01*
X6781Y2547D01*
Y2553D01*
X6792Y2554D01*
X6804Y2559D01*
X6814Y2566D01*
X6821Y2576D01*
X6826Y2588D01*
X6827Y2592D01*
X6827Y2592D01*
X6834Y2593D01*
X6842Y2596D01*
X6848Y2602D01*
X6883Y2636D01*
X6917D01*
X6917Y2635D01*
X6918Y2631D01*
X6910Y2621D01*
X6905Y2608D01*
X6903Y2595D01*
X6905Y2582D01*
X6910Y2569D01*
X6918Y2558D01*
X6929Y2550D01*
X6942Y2545D01*
X6949Y2544D01*
X6971Y2522D01*
Y2512D01*
X6971Y2510D01*
Y2465D01*
X7051D01*
Y2545D01*
X7036D01*
X7033Y2553D01*
X7027Y2560D01*
X7005Y2582D01*
X7007Y2595D01*
X7005Y2608D01*
X7000Y2621D01*
X6992Y2632D01*
X6981Y2640D01*
X6974Y2642D01*
X6973Y2648D01*
X7019Y2695D01*
X7098D01*
X7100Y2695D01*
X7110D01*
X7112Y2695D01*
X7141D01*
X7145Y2691D01*
X7145Y2685D01*
X7150Y2673D01*
X7158Y2663D01*
X7168Y2655D01*
X7180Y2650D01*
X7193Y2649D01*
X7206Y2650D01*
X7218Y2655D01*
X7228Y2663D01*
X7236Y2673D01*
X7241Y2685D01*
X7242Y2690D01*
X7285D01*
X7287Y2690D01*
X7319D01*
X7320Y2690D01*
X7320Y2684D01*
X7325Y2672D01*
X7329Y2667D01*
Y2632D01*
X7325Y2628D01*
X7194D01*
X7192Y2632D01*
X7181Y2640D01*
X7168Y2645D01*
X7155Y2647D01*
X7142Y2645D01*
X7129Y2640D01*
X7118Y2632D01*
X7110Y2621D01*
X7105Y2608D01*
X7103Y2595D01*
X7105Y2582D01*
X7110Y2569D01*
X7117Y2561D01*
Y2545D01*
X7105D01*
Y2465D01*
X7185D01*
Y2545D01*
X7183D01*
Y2552D01*
X7192Y2558D01*
X7194Y2562D01*
X7339D01*
X7348Y2563D01*
X7356Y2566D01*
X7362Y2572D01*
X7386Y2595D01*
X7391Y2601D01*
X7394Y2609D01*
X7395Y2618D01*
Y2655D01*
X7403Y2662D01*
X7411Y2672D01*
X7416Y2684D01*
X7418Y2697D01*
X7416Y2710D01*
X7411Y2722D01*
X7403Y2732D01*
X7393Y2740D01*
X7382Y2744D01*
X7382Y2744D01*
Y2749D01*
X7382Y2749D01*
X7393Y2754D01*
X7403Y2762D01*
X7411Y2772D01*
X7416Y2784D01*
X7418Y2797D01*
X7416Y2810D01*
X7411Y2822D01*
X7403Y2832D01*
X7393Y2840D01*
X7382Y2844D01*
X7382Y2844D01*
Y2849D01*
X7382Y2849D01*
X7393Y2854D01*
X7403Y2862D01*
X7411Y2872D01*
X7413Y2877D01*
X7368D01*
Y2897D01*
X7349D01*
Y2942D01*
X7343Y2940D01*
X7333Y2932D01*
X7325Y2922D01*
X7320Y2910D01*
X7320Y2904D01*
X7242D01*
X7241Y2911D01*
X7236Y2923D01*
X7228Y2933D01*
X7220Y2940D01*
Y2963D01*
X7219Y2972D01*
X7216Y2980D01*
X7211Y2986D01*
X7205Y2992D01*
X7207Y3005D01*
X7207Y3006D01*
X7210Y3009D01*
X7445D01*
X7445Y2541D01*
D02*
G37*
G36*
X6042Y4181D02*
X6043Y4172D01*
X6046Y4164D01*
X6052Y4158D01*
X6100Y4109D01*
Y4020D01*
X5900D01*
Y3783D01*
X5898Y3779D01*
X5897Y3771D01*
Y3745D01*
Y3661D01*
X5898Y3654D01*
X5900Y3649D01*
Y3561D01*
X5986D01*
X6021Y3526D01*
X6019Y3521D01*
X6005D01*
Y3490D01*
X6036D01*
Y3504D01*
X6041Y3506D01*
X6047Y3499D01*
Y3372D01*
X6043Y3368D01*
X5900D01*
Y3229D01*
X5891Y3220D01*
X5886Y3214D01*
X5883Y3207D01*
X5882Y3200D01*
Y3100D01*
Y3029D01*
X5883Y3022D01*
X5886Y3015D01*
X5891Y3009D01*
X5900Y3000D01*
Y2900D01*
X6000D01*
X6029Y2871D01*
X6027Y2866D01*
X6005D01*
Y2835D01*
X6036D01*
Y2852D01*
X6041Y2855D01*
X6042Y2854D01*
Y2730D01*
X5900D01*
Y2552D01*
X5887Y2550D01*
X5874Y2545D01*
X5863Y2537D01*
X5855Y2526D01*
X5853Y2520D01*
X5847D01*
X5845Y2526D01*
X5837Y2537D01*
X5826Y2545D01*
X5813Y2550D01*
X5800Y2552D01*
Y4021D01*
X5814Y4036D01*
X5817Y4040D01*
X5818Y4045D01*
Y4234D01*
X6042D01*
Y4181D01*
D02*
G37*
%LPC*%
G36*
X7065Y4565D02*
X6985D01*
Y4520D01*
X6985Y4518D01*
Y4497D01*
X6979Y4491D01*
X6971Y4490D01*
X6959Y4485D01*
X6948Y4477D01*
X6940Y4466D01*
X6935Y4453D01*
X6933Y4440D01*
X6935Y4427D01*
X6940Y4414D01*
X6948Y4403D01*
X6959Y4395D01*
X6971Y4390D01*
X6984Y4388D01*
X6998Y4390D01*
X7010Y4395D01*
X7021Y4403D01*
X7029Y4414D01*
X7034Y4427D01*
X7036Y4440D01*
X7034Y4453D01*
X7041Y4460D01*
X7047Y4467D01*
X7050Y4475D01*
X7051Y4483D01*
Y4485D01*
X7065D01*
Y4565D01*
D02*
G37*
G36*
X6875Y4492D02*
X6862Y4490D01*
X6849Y4485D01*
X6838Y4477D01*
X6830Y4466D01*
X6825Y4453D01*
X6823Y4440D01*
X6825Y4427D01*
X6830Y4414D01*
X6838Y4403D01*
X6849Y4395D01*
X6862Y4390D01*
X6875Y4388D01*
X6888Y4390D01*
X6901Y4395D01*
X6912Y4403D01*
X6920Y4414D01*
X6925Y4427D01*
X6927Y4440D01*
X6925Y4453D01*
X6920Y4466D01*
X6912Y4477D01*
X6901Y4485D01*
X6888Y4490D01*
X6875Y4492D01*
D02*
G37*
G36*
X7385Y4385D02*
Y4360D01*
X7410D01*
X7408Y4365D01*
X7400Y4375D01*
X7390Y4383D01*
X7385Y4385D01*
D02*
G37*
G36*
X6925Y4278D02*
Y4255D01*
X6948D01*
X6946Y4259D01*
X6939Y4269D01*
X6929Y4276D01*
X6925Y4278D01*
D02*
G37*
G36*
X6948Y4215D02*
X6925D01*
Y4192D01*
X6929Y4194D01*
X6939Y4201D01*
X6946Y4211D01*
X6948Y4215D01*
D02*
G37*
G36*
X6965Y4175D02*
X6964D01*
Y4174D01*
X6965D01*
Y4175D01*
D02*
G37*
G36*
X6886D02*
X6885D01*
Y4174D01*
X6886D01*
Y4175D01*
D02*
G37*
G36*
X6965Y4096D02*
X6964D01*
Y4095D01*
X6965D01*
Y4096D01*
D02*
G37*
G36*
X6886D02*
X6885D01*
Y4095D01*
X6886D01*
Y4096D01*
D02*
G37*
G36*
X4936Y3952D02*
X4927Y3950D01*
X4920Y3946D01*
X4915Y3938D01*
X4913Y3930D01*
X4915Y3922D01*
X4920Y3914D01*
X4927Y3910D01*
X4936Y3908D01*
X4944Y3910D01*
X4951Y3914D01*
X4956Y3922D01*
X4958Y3930D01*
X4956Y3938D01*
X4951Y3946D01*
X4944Y3950D01*
X4936Y3952D01*
D02*
G37*
G36*
X4504Y3930D02*
Y3930D01*
X4457D01*
Y3880D01*
X4504D01*
Y3882D01*
X4506Y3884D01*
X4515Y3886D01*
X4522Y3891D01*
X4527Y3898D01*
X4529Y3907D01*
X4527Y3915D01*
X4522Y3922D01*
X4515Y3927D01*
X4508Y3928D01*
X4504Y3930D01*
X4504Y3930D01*
D02*
G37*
G36*
X7388Y3672D02*
Y3646D01*
X7413D01*
X7411Y3652D01*
X7403Y3662D01*
X7393Y3670D01*
X7388Y3672D01*
D02*
G37*
G36*
X6925Y3628D02*
Y3605D01*
X6948D01*
X6946Y3609D01*
X6939Y3619D01*
X6929Y3626D01*
X6925Y3628D01*
D02*
G37*
G36*
X6948Y3565D02*
X6925D01*
Y3542D01*
X6929Y3544D01*
X6939Y3551D01*
X6946Y3561D01*
X6948Y3565D01*
D02*
G37*
G36*
X6960Y3530D02*
X6959D01*
Y3529D01*
X6960D01*
Y3530D01*
D02*
G37*
G36*
X6881D02*
X6880D01*
Y3529D01*
X6881D01*
Y3530D01*
D02*
G37*
G36*
X6960Y3451D02*
X6959D01*
Y3450D01*
X6960D01*
Y3451D01*
D02*
G37*
G36*
X6881D02*
X6880D01*
Y3450D01*
X6881D01*
Y3451D01*
D02*
G37*
G36*
X6915Y2883D02*
Y2860D01*
X6938D01*
X6936Y2864D01*
X6929Y2874D01*
X6919Y2881D01*
X6915Y2883D01*
D02*
G37*
G36*
X6938Y2820D02*
X6915D01*
Y2797D01*
X6919Y2799D01*
X6929Y2806D01*
X6936Y2816D01*
X6938Y2820D01*
D02*
G37*
G36*
X6866Y2775D02*
X6865D01*
Y2774D01*
X6866D01*
Y2775D01*
D02*
G37*
G36*
X7388Y2942D02*
Y2916D01*
X7413D01*
X7411Y2922D01*
X7403Y2932D01*
X7393Y2940D01*
X7388Y2942D01*
D02*
G37*
G36*
X6036Y4181D02*
X6005D01*
Y4150D01*
X6036D01*
Y4181D01*
D02*
G37*
G36*
X5965D02*
X5934D01*
Y4150D01*
X5965D01*
Y4181D01*
D02*
G37*
G36*
X6036Y4110D02*
X6005D01*
Y4079D01*
X6036D01*
Y4110D01*
D02*
G37*
G36*
X5965D02*
X5934D01*
Y4079D01*
X5965D01*
Y4110D01*
D02*
G37*
G36*
Y3521D02*
X5934D01*
Y3490D01*
X5965D01*
Y3521D01*
D02*
G37*
G36*
X6036Y3450D02*
X6005D01*
Y3419D01*
X6036D01*
Y3450D01*
D02*
G37*
G36*
X5965D02*
X5934D01*
Y3419D01*
X5965D01*
Y3450D01*
D02*
G37*
G36*
Y2866D02*
X5934D01*
Y2835D01*
X5965D01*
Y2866D01*
D02*
G37*
G36*
X6036Y2795D02*
X6005D01*
Y2764D01*
X6036D01*
Y2795D01*
D02*
G37*
G36*
X5965D02*
X5934D01*
Y2764D01*
X5965D01*
Y2795D01*
D02*
G37*
%LPD*%
D10*
X5500Y2597D02*
X5603Y2700D01*
X5720D02*
X5755Y2735D01*
X5603Y2700D02*
X5720D01*
X5755Y2735D02*
Y2885D01*
X5200Y3440D02*
X5755Y2885D01*
X5200Y3440D02*
Y3467D01*
X5199Y3505D02*
X5490D01*
X5125Y3579D02*
Y3661D01*
X5074Y3713D02*
X5125Y3661D01*
X5500Y2500D02*
Y2597D01*
X5735Y3975D02*
X5805Y4045D01*
X4958Y3795D02*
Y3833D01*
X4954Y3791D02*
X4958Y3795D01*
X4954Y3786D02*
Y3791D01*
X4958Y3833D02*
X5100Y3975D01*
X5735D01*
X5805Y4045D02*
Y4488D01*
X6397Y3272D02*
X6400Y3275D01*
X6396Y3272D02*
X6397D01*
X4732Y4062D02*
X4736Y4058D01*
X4732D02*
X4736D01*
X4727Y4057D02*
X4734Y4050D01*
X4727Y4057D02*
X4732Y4062D01*
X4734Y4050D02*
X4735D01*
X4900Y4057D02*
Y4064D01*
X4840Y3997D02*
X4900Y4057D01*
X4742Y4158D02*
X4850Y4050D01*
X4310Y4158D02*
X4742D01*
X4225Y4072D02*
X4310Y4158D01*
X4732Y3997D02*
X4840D01*
X4536Y3495D02*
X4638D01*
X4318Y4100D02*
X4445D01*
X4292Y3500D02*
X4469D01*
X4474Y3495D01*
X4267Y4027D02*
X4315Y4075D01*
X4267Y3363D02*
Y4027D01*
Y3363D02*
X4350Y3280D01*
X4252Y4034D02*
X4318Y4100D01*
X4252Y3356D02*
Y4034D01*
Y3356D02*
X4343Y3264D01*
X4300Y3406D02*
Y3440D01*
X4300Y3405D02*
X4300Y3406D01*
X4343Y3264D02*
X4496D01*
X4350Y3280D02*
X4520D01*
X4300Y3440D02*
X4409D01*
X4445Y3404D01*
X4554D01*
X4638Y3488D01*
Y3495D01*
X4688Y3546D02*
X4825D01*
X4638Y3495D02*
X4688Y3546D01*
X4825D02*
X4829Y3550D01*
X4874D01*
X4864Y3630D02*
X4874Y3620D01*
Y3550D02*
Y3620D01*
X4482Y3907D02*
X4506D01*
X4481Y3905D02*
X4482Y3907D01*
X4325Y4001D02*
Y4025D01*
Y4001D02*
X4419Y3907D01*
Y3905D02*
Y3907D01*
X4789Y3311D02*
X4825Y3346D01*
Y3484D01*
X4926Y3630D02*
X5098D01*
X4926D02*
X4936Y3620D01*
Y3550D02*
Y3620D01*
Y3550D02*
X5100D01*
X4789Y4386D02*
X4825Y4350D01*
X4732Y4386D02*
X4789D01*
X4695Y4424D02*
X4732Y4386D01*
X4695Y4424D02*
Y4430D01*
X4225Y3200D02*
Y4072D01*
X4125Y3100D02*
X4225Y3200D01*
X4496Y3264D02*
X4545Y3215D01*
Y2925D02*
Y3215D01*
X4315Y4075D02*
X4575D01*
X4520Y3280D02*
X4575Y3225D01*
Y2970D02*
Y3225D01*
Y2970D02*
X4620Y2925D01*
X4650Y3138D02*
Y3315D01*
X4688Y3309D02*
X4694Y3315D01*
X4695D01*
X4688Y3138D02*
Y3309D01*
X5125Y3579D02*
X5199Y3505D01*
X5125Y3800D02*
X5125Y3800D01*
X5098Y3800D02*
X5125D01*
X5087Y3789D02*
X5098Y3800D01*
X5087Y3851D02*
X5124D01*
X5125Y3850D01*
X4386Y2564D02*
X4420Y2530D01*
X4386Y2564D02*
Y2609D01*
X4380Y2614D02*
X4386Y2609D01*
X4474Y3235D02*
X4500Y3209D01*
Y3175D02*
Y3209D01*
X4877Y4350D02*
Y4427D01*
X4880Y4430D01*
X5060Y4350D02*
Y4435D01*
X5300Y4340D02*
Y4379D01*
X5250Y4429D02*
X5300Y4379D01*
X5250Y4429D02*
Y4435D01*
D35*
X4825Y3484D02*
D03*
Y3546D02*
D03*
X4732Y4058D02*
D03*
Y3997D02*
D03*
X4380Y2676D02*
D03*
Y2614D02*
D03*
X5087Y3851D02*
D03*
Y3789D02*
D03*
D36*
X7110Y3461D02*
D03*
Y3595D02*
D03*
X7105Y2735D02*
D03*
Y2869D02*
D03*
X6590Y2855D02*
D03*
Y2989D02*
D03*
X6245Y2980D02*
D03*
Y2846D02*
D03*
X6485Y2850D02*
D03*
Y2984D02*
D03*
X6355D02*
D03*
Y2850D02*
D03*
X6595Y3440D02*
D03*
Y3574D02*
D03*
X6480Y3441D02*
D03*
Y3575D02*
D03*
X6245Y3579D02*
D03*
Y3445D02*
D03*
X6360Y3579D02*
D03*
Y3445D02*
D03*
X6595Y4056D02*
D03*
Y4190D02*
D03*
X6345D02*
D03*
Y4056D02*
D03*
X6475D02*
D03*
Y4190D02*
D03*
X6235D02*
D03*
Y4056D02*
D03*
X7280Y2864D02*
D03*
Y2730D02*
D03*
X7090Y4176D02*
D03*
Y4310D02*
D03*
X7280Y3594D02*
D03*
Y3460D02*
D03*
X7275Y4305D02*
D03*
Y4171D02*
D03*
D37*
X7246Y3270D02*
D03*
X7380D02*
D03*
X7246Y3175D02*
D03*
X7380D02*
D03*
X7245Y3070D02*
D03*
X7379D02*
D03*
X7159Y4525D02*
D03*
X7025D02*
D03*
X7240Y3820D02*
D03*
X7374D02*
D03*
X7241Y3985D02*
D03*
X7375D02*
D03*
X7144Y3100D02*
D03*
X7010D02*
D03*
X7129Y3245D02*
D03*
X6995D02*
D03*
X6925Y4135D02*
D03*
X6791D02*
D03*
X6920Y3490D02*
D03*
X6786D02*
D03*
X7145Y2505D02*
D03*
X7011D02*
D03*
X6905Y2735D02*
D03*
X6771D02*
D03*
X5518Y4032D02*
D03*
X5652D02*
D03*
X7241Y3905D02*
D03*
X7375D02*
D03*
X7122Y3918D02*
D03*
X6988D02*
D03*
X7129Y3820D02*
D03*
X6995D02*
D03*
D40*
X4481Y3905D02*
D03*
X4419D02*
D03*
X4926Y3630D02*
D03*
X4864D02*
D03*
X4936Y3550D02*
D03*
X4874D02*
D03*
X4476Y3505D02*
D03*
X4537D02*
D03*
X4851Y2925D02*
D03*
X4789D02*
D03*
X5286Y3615D02*
D03*
X5224D02*
D03*
X5291Y3805D02*
D03*
X5229D02*
D03*
D41*
X4510Y4430D02*
D03*
Y4260D02*
D03*
X5250Y4435D02*
D03*
Y4265D02*
D03*
X5060Y4435D02*
D03*
Y4265D02*
D03*
X4880Y4430D02*
D03*
Y4260D02*
D03*
X4695Y4430D02*
D03*
Y4260D02*
D03*
D46*
X5500Y4075D02*
X5508Y4067D01*
Y4017D02*
Y4067D01*
X5060Y4263D02*
X5247D01*
X4880D02*
X5060D01*
X4695D02*
X4880D01*
X7379Y3070D02*
Y3270D01*
X7380Y3270D01*
X6000Y3175D02*
X6189D01*
X6239Y3124D01*
X6353D01*
X6464Y3235D01*
X6470D01*
X7353Y2890D02*
X7362D01*
X7288D02*
X7353D01*
X7359Y2897D01*
X7334Y2871D02*
X7353Y2890D01*
X7195Y2798D02*
X7288Y2890D01*
X7362D02*
X7368Y2897D01*
X7193Y2798D02*
X7195D01*
X4512Y4263D02*
X4695D01*
X4425Y4265D02*
X4505D01*
X4510Y4260D01*
X5247Y4263D02*
X5267Y4243D01*
X6243Y2848D02*
X6353D01*
X5275Y4161D02*
X5361Y4075D01*
X5500D01*
X5267Y4168D02*
X5275Y4161D01*
X5267Y4168D02*
Y4243D01*
X7240Y3820D02*
Y4079D01*
X6352Y4179D02*
X6475Y4056D01*
X7239Y3276D02*
X7246Y3270D01*
Y3175D02*
Y3270D01*
Y3070D02*
Y3175D01*
X6355Y2984D02*
X6478Y2861D01*
X6421Y3500D02*
X6480Y3441D01*
X6367Y3554D02*
X6421Y3500D01*
X6631Y4020D02*
X6727D01*
X7239Y3276D02*
Y3374D01*
X7193Y3419D02*
X7239Y3374D01*
X7193Y3419D02*
Y3428D01*
Y4126D02*
X7240Y4079D01*
X7193Y4126D02*
Y4135D01*
X7374Y3820D02*
Y3984D01*
X6590Y2704D02*
X6624Y2669D01*
X6590Y2704D02*
Y2855D01*
X6813Y2625D02*
X6825D01*
X6788Y2600D02*
X6813Y2625D01*
X6780Y2600D02*
X6788D01*
X6825Y2625D02*
X6869Y2669D01*
X6947D01*
X7006Y2728D01*
X7098D01*
X7105Y2735D01*
X6895Y2840D02*
X6900Y2835D01*
Y2740D02*
Y2835D01*
Y2740D02*
X6905Y2735D01*
X6795Y2832D02*
Y2840D01*
X6778Y2815D02*
X6795Y2832D01*
X6778Y2742D02*
Y2815D01*
X6771Y2735D02*
X6778Y2742D01*
X7246Y3175D02*
X7246D01*
X6946D02*
X7246D01*
X6917Y3204D02*
X6946Y3175D01*
X6917Y3204D02*
Y3243D01*
X6780Y3380D02*
X6917Y3243D01*
X7018Y4518D02*
X7025Y4525D01*
X7018Y4483D02*
Y4518D01*
X6984Y4450D02*
X7018Y4483D01*
X6984Y4440D02*
Y4450D01*
X7184Y4440D02*
X7189Y4436D01*
Y4339D02*
Y4436D01*
Y4339D02*
X7193Y4335D01*
X7166Y4468D02*
Y4518D01*
X7159Y4525D02*
X7166Y4518D01*
X7155Y4025D02*
X7165D01*
X7155Y4015D02*
Y4025D01*
X7129Y3989D02*
X7155Y4015D01*
X7129Y3924D02*
Y3989D01*
X7122Y3918D02*
X7129Y3924D01*
X7356Y4140D02*
X7365D01*
X7332Y4164D02*
X7356Y4140D01*
X7282Y4164D02*
X7332D01*
X7275Y4171D02*
X7282Y4164D01*
X6075Y4181D02*
X6200Y4056D01*
X6075Y4181D02*
Y4300D01*
X6151Y2909D02*
X6182D01*
X6243Y2848D01*
X6070Y2990D02*
X6151Y2909D01*
X6800Y3590D02*
Y3695D01*
Y3590D02*
X6805Y3585D01*
X6675Y3820D02*
X6800Y3695D01*
X6245Y4329D02*
Y4400D01*
Y4329D02*
X6274Y4300D01*
X6621D01*
X6668Y4347D01*
Y4433D01*
X6675Y4440D01*
X4120Y2760D02*
X4296D01*
X4380Y2676D01*
X6475Y4190D02*
X6595D01*
X7155Y3725D02*
Y3735D01*
Y3725D02*
X7187Y3693D01*
Y3635D02*
Y3693D01*
Y3635D02*
X7193Y3628D01*
X7155Y3330D02*
X7158Y3333D01*
X7339Y2595D02*
X7362Y2618D01*
Y2690D01*
X7368Y2697D01*
X7155Y2595D02*
X7339D01*
X6772Y3380D02*
X6780D01*
X6712Y3440D02*
X6772Y3380D01*
X6595Y3440D02*
X6712D01*
X6595Y4056D02*
X6631Y4020D01*
X4559Y4350D02*
Y4375D01*
X4510Y4424D02*
X4559Y4375D01*
X4510Y4424D02*
Y4430D01*
Y4260D02*
X4512Y4263D01*
X6772Y3280D02*
X6780D01*
X6727Y3235D02*
X6772Y3280D01*
X6470Y3235D02*
X6727D01*
X7374Y3820D02*
X7374Y3820D01*
Y3984D02*
X7375Y3985D01*
X7240Y3820D02*
X7240Y3820D01*
X7379Y3070D02*
X7379Y3070D01*
X7245Y3070D02*
X7246Y3070D01*
X7359Y2897D02*
X7368D01*
X7287Y2871D02*
X7334D01*
X7280Y2864D02*
X7287Y2871D01*
X7359Y2697D02*
X7368D01*
X7333Y2723D02*
X7359Y2697D01*
X7287Y2723D02*
X7333D01*
X7280Y2730D02*
X7287Y2723D01*
X7184Y2698D02*
X7193D01*
X7155Y2728D02*
X7184Y2698D01*
X7112Y2728D02*
X7155D01*
X7105Y2735D02*
X7112Y2728D01*
X7003Y3093D02*
X7010Y3100D01*
X7003Y3063D02*
Y3093D01*
X6955Y3015D02*
X7003Y3063D01*
X6955Y3005D02*
Y3015D01*
X7144Y3100D02*
X7149Y3095D01*
Y3010D02*
Y3095D01*
Y3010D02*
X7155Y3005D01*
Y2995D02*
Y3005D01*
Y2995D02*
X7187Y2963D01*
Y2905D02*
Y2963D01*
Y2905D02*
X7193Y2898D01*
X7184D02*
X7193D01*
X7162Y2876D02*
X7184Y2898D01*
X7112Y2876D02*
X7162D01*
X7105Y2869D02*
X7112Y2876D01*
X7150Y2590D02*
X7155Y2595D01*
X7150Y2510D02*
Y2590D01*
X7145Y2505D02*
X7150Y2510D01*
X7004Y2512D02*
X7011Y2505D01*
X7004Y2512D02*
Y2536D01*
X6955Y2585D02*
X7004Y2536D01*
X6955Y2585D02*
Y2595D01*
X6478Y2857D02*
X6485Y2850D01*
X6478Y2857D02*
Y2861D01*
X6353Y2848D02*
X6355Y2850D01*
X6588Y2987D02*
X6590Y2989D01*
X6488Y2987D02*
X6588D01*
X6485Y2984D02*
X6488Y2987D01*
X6588Y2852D02*
X6590Y2855D01*
X6488Y2852D02*
X6588D01*
X6485Y2850D02*
X6488Y2852D01*
X6353Y2982D02*
X6355Y2984D01*
X6247Y2982D02*
X6353D01*
X6245Y2980D02*
X6247Y2982D01*
X6805Y2939D02*
Y2989D01*
X6800Y2934D02*
X6805Y2939D01*
X6800Y2845D02*
Y2934D01*
X6795Y2840D02*
X6800Y2845D01*
X6675Y3119D02*
X6805Y2989D01*
X6675Y3119D02*
Y3125D01*
X6800Y4240D02*
Y4315D01*
Y4240D02*
X6805Y4235D01*
X6675Y4440D02*
X6800Y4315D01*
X6805Y4227D02*
Y4235D01*
X6798Y4220D02*
X6805Y4227D01*
X6798Y4142D02*
Y4220D01*
X6791Y4135D02*
X6798Y4142D01*
X6905Y4227D02*
Y4235D01*
Y4227D02*
X6918Y4214D01*
Y4142D02*
Y4214D01*
Y4142D02*
X6925Y4135D01*
X7136Y3764D02*
Y3813D01*
X7129Y3820D02*
X7136Y3813D01*
X6988D02*
X6995Y3820D01*
X6988Y3778D02*
Y3813D01*
X6955Y3745D02*
X6988Y3778D01*
X6955Y3735D02*
Y3745D01*
X6805Y3577D02*
Y3585D01*
X6793Y3565D02*
X6805Y3577D01*
X6793Y3497D02*
Y3565D01*
X6786Y3490D02*
X6793Y3497D01*
X6905Y3577D02*
Y3585D01*
Y3577D02*
X6913Y3569D01*
Y3497D02*
Y3569D01*
Y3497D02*
X6920Y3490D01*
X7136Y3252D02*
Y3301D01*
X7129Y3245D02*
X7136Y3252D01*
X6988D02*
X6995Y3245D01*
X6988Y3252D02*
Y3287D01*
X6955Y3320D02*
X6988Y3287D01*
X6955Y3320D02*
Y3330D01*
X7359Y3427D02*
X7368D01*
X7333Y3453D02*
X7359Y3427D01*
X7287Y3453D02*
X7333D01*
X7280Y3460D02*
X7287Y3453D01*
X7356Y4340D02*
X7365D01*
X7328Y4312D02*
X7356Y4340D01*
X7282Y4312D02*
X7328D01*
X7275Y4305D02*
X7282Y4312D01*
X7193Y3528D02*
X7200Y3535D01*
X7221D01*
X7280Y3594D01*
X7359Y3627D02*
X7368D01*
X7334Y3601D02*
X7359Y3627D01*
X7287Y3601D02*
X7334D01*
X7280Y3594D02*
X7287Y3601D01*
X7192Y3427D02*
X7193Y3428D01*
X7144Y3427D02*
X7192D01*
X7110Y3461D02*
X7144Y3427D01*
X7184Y3628D02*
X7193D01*
X7158Y3602D02*
X7184Y3628D01*
X7117Y3602D02*
X7158D01*
X7110Y3595D02*
X7117Y3602D01*
X7268Y4298D02*
X7275Y4305D01*
X7265Y4298D02*
X7268D01*
X7202Y4235D02*
X7265Y4298D01*
X7193Y4235D02*
X7202D01*
X7097Y4317D02*
X7166D01*
X7090Y4310D02*
X7097Y4317D01*
X7129Y4137D02*
X7191D01*
X7193Y4135D01*
X7090Y4176D02*
X7129Y4137D01*
X6151Y3494D02*
Y3561D01*
X6075Y3637D02*
X6151Y3561D01*
Y3494D02*
X6200Y3445D01*
X6075Y3637D02*
Y3645D01*
X6200Y3445D02*
X6245D01*
X6360D01*
X6595Y3575D02*
X6595Y3574D01*
X6481Y3575D02*
X6595D01*
X6480Y3575D02*
X6481Y3575D01*
X6360Y3579D02*
X6367Y3572D01*
Y3554D02*
Y3572D01*
X6480Y3441D02*
X6481Y3440D01*
X6595D01*
X6245Y3579D02*
X6360D01*
X6345Y4190D02*
X6352Y4183D01*
Y4179D02*
Y4183D01*
X6475Y4056D02*
X6595D01*
X6235D02*
X6345D01*
X6235Y4190D02*
X6345D01*
D47*
X6378Y3258D02*
X6396Y3275D01*
X6323Y3258D02*
X6378D01*
X6300Y3235D02*
X6323Y3258D01*
X5100Y3497D02*
Y3550D01*
X4958Y3355D02*
X5100Y3497D01*
X5925Y3745D02*
Y3771D01*
Y3661D02*
Y3745D01*
X6075D01*
X5910Y3100D02*
Y3200D01*
Y3029D02*
Y3100D01*
X5920Y3090D01*
X6070D01*
X5985Y2615D02*
X6070Y2700D01*
Y2869D01*
X5910Y3029D02*
X6070Y2869D01*
X5910Y3200D02*
X5980Y3270D01*
X5985D01*
X6075Y3360D01*
Y3511D01*
X5925Y3661D02*
X6075Y3511D01*
X5925Y3771D02*
X5981Y3828D01*
Y3926D01*
X5985Y3930D01*
X6637D02*
X6727Y4020D01*
X5985Y3930D02*
X6637D01*
X5850Y3605D02*
Y3995D01*
X5985Y4130D01*
X5850Y3605D02*
X5985Y3470D01*
X5825Y3310D02*
X5985Y3470D01*
X5825Y2975D02*
Y3310D01*
Y2975D02*
X5985Y2815D01*
X4450Y3315D02*
X4545D01*
X4390Y3375D02*
X4450Y3315D01*
X4386Y3375D02*
X4390D01*
X4825Y3143D02*
Y3245D01*
X4820Y3138D02*
X4825Y3143D01*
X6955Y4012D02*
Y4025D01*
Y4012D02*
X6976Y3992D01*
Y3930D02*
Y3992D01*
Y3930D02*
X6988Y3918D01*
X4901Y2875D02*
X4904D01*
X4455Y2760D02*
X4789D01*
X4400Y2815D02*
X4455Y2760D01*
X4789D02*
X4904Y2875D01*
X4960D01*
X4851Y2925D02*
X4901Y2875D01*
X6351Y4050D02*
X6390D01*
X6345Y4056D02*
X6351Y4050D01*
X4975Y2800D02*
X5015Y2760D01*
X5695D01*
X5175Y3805D02*
X5229D01*
X5175Y3622D02*
X5177Y3620D01*
X5219D01*
X5224Y3615D01*
X6875Y3820D02*
Y3822D01*
X6780Y3918D02*
X6875Y3822D01*
X6780Y3918D02*
Y3920D01*
Y3280D02*
X6866Y3194D01*
Y3134D02*
Y3194D01*
Y3134D02*
X6875Y3125D01*
X6625Y3000D02*
X6675Y2950D01*
Y2550D02*
Y2950D01*
Y2550D02*
X6717Y2508D01*
X6772D01*
X6780Y2500D01*
X6600Y2934D02*
Y2979D01*
X6590Y2989D02*
X6600Y2979D01*
Y4130D02*
Y4185D01*
X6595Y4190D02*
X6600Y4185D01*
X6588Y3505D02*
Y3566D01*
X6595Y3574D01*
D48*
X7365Y4240D02*
X7425Y4180D01*
Y3937D02*
Y4180D01*
X7413Y3925D02*
X7425Y3937D01*
X7395Y3925D02*
X7413D01*
X7375Y3905D02*
X7395Y3925D01*
X5045Y3075D02*
X5098D01*
X5005Y3115D02*
X5045Y3075D01*
X5005Y3115D02*
Y3245D01*
X5400Y3615D02*
X5490Y3705D01*
X5286Y3615D02*
X5400D01*
X4725Y2815D02*
Y2859D01*
X4789Y2923D01*
Y2925D01*
X5286Y3615D02*
X5288Y3618D01*
Y3803D01*
X5291Y3805D01*
D49*
X6355Y2850D02*
X6361Y2844D01*
X6392D01*
D50*
X5620Y3610D02*
X5695D01*
X5529Y3700D02*
X5620Y3610D01*
X5495Y3700D02*
X5529D01*
X5490Y3705D02*
X5495Y3700D01*
D51*
X5649Y4075D02*
X5650Y4076D01*
Y4158D01*
D52*
X5695Y3610D02*
D03*
X4120D02*
D03*
X5695Y4279D02*
D03*
X4120D02*
D03*
X5695Y2760D02*
D03*
X4120D02*
D03*
X5695Y3429D02*
D03*
X4120D02*
D03*
D53*
X7365Y4240D02*
D03*
Y4340D02*
D03*
Y4140D02*
D03*
X7368Y3527D02*
D03*
Y3627D02*
D03*
Y3427D02*
D03*
X7193Y2798D02*
D03*
Y2698D02*
D03*
Y2898D02*
D03*
Y4235D02*
D03*
Y4135D02*
D03*
Y4335D02*
D03*
Y3528D02*
D03*
Y3428D02*
D03*
Y3628D02*
D03*
X7368Y2797D02*
D03*
Y2897D02*
D03*
Y2697D02*
D03*
D54*
X6805Y4235D02*
D03*
X6905D02*
D03*
X6070Y2990D02*
D03*
Y3090D02*
D03*
X6075Y4300D02*
D03*
Y4400D02*
D03*
X5260Y4545D02*
D03*
X4860D02*
D03*
X5060D02*
D03*
X5160D02*
D03*
X4960D02*
D03*
X4920Y2530D02*
D03*
X4520D02*
D03*
X4720D02*
D03*
X4820D02*
D03*
X4620D02*
D03*
X6780Y3920D02*
D03*
Y4020D02*
D03*
Y3280D02*
D03*
Y3380D02*
D03*
X6805Y3585D02*
D03*
X6905D02*
D03*
X6075Y3645D02*
D03*
Y3745D02*
D03*
X6780Y2500D02*
D03*
Y2600D02*
D03*
X6795Y2840D02*
D03*
X6895D02*
D03*
X5490Y3405D02*
D03*
Y3805D02*
D03*
Y3605D02*
D03*
Y3505D02*
D03*
Y3705D02*
D03*
D55*
X5900Y2500D02*
D03*
X5800D02*
D03*
X5695D02*
D03*
X5100D02*
D03*
X5600D02*
D03*
X5500D02*
D03*
X5985Y3930D02*
D03*
X7155Y4025D02*
D03*
X6955D02*
D03*
X5695Y4540D02*
D03*
X6875Y3125D02*
D03*
X6675D02*
D03*
X6875Y3820D02*
D03*
X6675D02*
D03*
X6875Y4440D02*
D03*
X6675D02*
D03*
X7184D02*
D03*
X6984D02*
D03*
X7155Y3735D02*
D03*
X6955D02*
D03*
X5495Y4405D02*
D03*
X4125Y3940D02*
D03*
Y3840D02*
D03*
Y3740D02*
D03*
Y3315D02*
D03*
Y2990D02*
D03*
Y3100D02*
D03*
X5200Y2500D02*
D03*
X5300D02*
D03*
X5400D02*
D03*
X5985Y3270D02*
D03*
X7155Y3330D02*
D03*
X6955D02*
D03*
X5985Y2615D02*
D03*
X7155Y2595D02*
D03*
X6955D02*
D03*
X7155Y3005D02*
D03*
X6955D02*
D03*
D56*
X5985Y4130D02*
D03*
Y3470D02*
D03*
Y2815D02*
D03*
D57*
X5695Y4405D02*
D03*
D58*
X4760Y4545D02*
D03*
X4420Y2530D02*
D03*
D59*
X5175Y3622D02*
D03*
Y3805D02*
D03*
D60*
X5490Y3905D02*
D03*
D61*
X5148Y3916D02*
D03*
X5240Y3341D02*
D03*
X5300Y3380D02*
D03*
X5119Y3945D02*
D03*
X4324Y3575D02*
D03*
X4936Y3930D02*
D03*
X5074Y3713D02*
D03*
X5125Y3740D02*
D03*
X5217Y3734D02*
D03*
X5200Y3467D02*
D03*
X4954Y3786D02*
D03*
X5650Y4158D02*
D03*
X5500Y4075D02*
D03*
X5805Y4488D02*
D03*
X7374Y3820D02*
D03*
X7374Y3984D02*
D03*
X7379Y3070D02*
D03*
X7379Y3270D02*
D03*
X6000Y3175D02*
D03*
X4842Y3782D02*
D03*
X4881Y3703D02*
D03*
X4802Y3861D02*
D03*
X4763Y3782D02*
D03*
X4802Y3703D02*
D03*
X4763Y3624D02*
D03*
Y3467D02*
D03*
X4724Y3861D02*
D03*
X4684Y3782D02*
D03*
X4724Y3703D02*
D03*
X4684Y3624D02*
D03*
Y3467D02*
D03*
X4645Y3861D02*
D03*
X4606Y3782D02*
D03*
X4645Y3703D02*
D03*
X4606Y3624D02*
D03*
X4645Y3546D02*
D03*
X4606Y3467D02*
D03*
X4566Y3861D02*
D03*
X4527Y3782D02*
D03*
X4566Y3703D02*
D03*
X4527Y3624D02*
D03*
X4566Y3546D02*
D03*
X4487Y3861D02*
D03*
Y3703D02*
D03*
Y3546D02*
D03*
X4933Y3849D02*
D03*
X4650Y4130D02*
D03*
X4350D02*
D03*
X4864Y3630D02*
D03*
X6475Y3875D02*
D03*
X4735Y4102D02*
D03*
X4693Y4077D02*
D03*
X4735Y4050D02*
D03*
X6375Y3875D02*
D03*
X4650Y4050D02*
D03*
X4900Y4064D02*
D03*
X4425Y4265D02*
D03*
X5219Y4305D02*
D03*
X4958Y3355D02*
D03*
X5275Y4161D02*
D03*
X4850Y4050D02*
D03*
X6400Y3275D02*
D03*
X6421Y3500D02*
D03*
X6390Y3433D02*
D03*
X6375Y3341D02*
D03*
X4657Y4090D02*
D03*
X4550Y4050D02*
D03*
X4610Y4100D02*
D03*
X4300Y3675D02*
D03*
X6475Y3340D02*
D03*
X4300Y3405D02*
D03*
X4386Y3375D02*
D03*
X4292Y3500D02*
D03*
X4545Y3315D02*
D03*
X4312Y3622D02*
D03*
X4445Y4100D02*
D03*
X4506Y3907D02*
D03*
X4325Y4025D02*
D03*
X6325Y3170D02*
D03*
X6400Y4130D02*
D03*
X6390Y4050D02*
D03*
X6588Y4375D02*
D03*
X6325Y4370D02*
D03*
X6245Y4400D02*
D03*
X6175Y4300D02*
D03*
X6225Y3050D02*
D03*
X6175Y3673D02*
D03*
X5098Y3075D02*
D03*
X5005Y3245D02*
D03*
X4570Y3458D02*
D03*
X4533D02*
D03*
X4500Y3457D02*
D03*
X4789Y3311D02*
D03*
X5098Y3630D02*
D03*
X5100Y3550D02*
D03*
X4825Y3245D02*
D03*
X4820Y3138D02*
D03*
X4825Y4350D02*
D03*
X6475Y2750D02*
D03*
X6375Y2760D02*
D03*
X6624Y2669D02*
D03*
X6325Y3771D02*
D03*
X4400Y2815D02*
D03*
X4960Y2875D02*
D03*
X4725Y2815D02*
D03*
X6600Y2934D02*
D03*
X6392Y2844D02*
D03*
X6576Y3170D02*
D03*
X6421Y2925D02*
D03*
X6600Y3700D02*
D03*
X4975Y2800D02*
D03*
X4545Y2925D02*
D03*
X4575Y4075D02*
D03*
X4620Y2925D02*
D03*
X4650Y3315D02*
D03*
Y3138D02*
D03*
X4695Y3315D02*
D03*
X4688Y3138D02*
D03*
X5125Y3800D02*
D03*
Y3850D02*
D03*
X6600Y4130D02*
D03*
X6588Y3505D02*
D03*
X4474Y3235D02*
D03*
X4500Y3175D02*
D03*
X4559Y4350D02*
D03*
X4877D02*
D03*
X5060D02*
D03*
X5300Y4340D02*
D03*
D62*
X6470Y3235D02*
D03*
X6300D02*
D03*
M02*
