G04*
G04 #@! TF.GenerationSoftware,Altium Limited,Altium Designer,19.0.10 (269)*
G04*
G04 Layer_Color=32896*
%FSLAX23Y23*%
%MOIN*%
G70*
G01*
G75*
%ADD10C,0.010*%
%ADD13C,0.008*%
D10*
X8084Y4240D02*
G03*
X8084Y4240I-69J0D01*
G01*
X8087Y3526D02*
G03*
X8087Y3526I-69J0D01*
G01*
Y2796D02*
G03*
X8087Y2796I-69J0D01*
G01*
X5774Y3531D02*
Y4358D01*
X4041Y3531D02*
Y4358D01*
Y3531D02*
X5774D01*
X4041Y4358D02*
X5774D01*
Y2681D02*
Y3508D01*
X4041Y2681D02*
Y3508D01*
Y2681D02*
X5774D01*
X4041Y3508D02*
X5774D01*
X8133Y4033D02*
Y4446D01*
X7878Y4031D02*
Y4446D01*
X7543Y4033D02*
Y4446D01*
X7393Y4230D02*
X7543D01*
X8015Y4139D02*
Y4346D01*
Y4238D02*
Y4240D01*
X7543Y4446D02*
X8133D01*
X7543Y4033D02*
X8133D01*
X7927Y4240D02*
X8100D01*
X7393Y4352D02*
X7543D01*
X7393Y4330D02*
X7543D01*
X7393Y4251D02*
X7543D01*
X7393Y4151D02*
X7543D01*
X7393Y4129D02*
X7543D01*
X8134Y4362D02*
Y4364D01*
Y4354D02*
Y4362D01*
X8136Y3320D02*
Y3733D01*
X7881Y3318D02*
Y3733D01*
X7546Y3320D02*
Y3733D01*
X7397Y3516D02*
X7546D01*
X8018Y3426D02*
Y3633D01*
Y3524D02*
Y3526D01*
X7546Y3733D02*
X8136D01*
X7546Y3320D02*
X8136D01*
X7930Y3526D02*
X8103D01*
X7397Y3639D02*
X7546D01*
X7397Y3617D02*
X7546D01*
X7397Y3538D02*
X7546D01*
X7397Y3438D02*
X7546D01*
X7397Y3416D02*
X7546D01*
X8137Y3648D02*
Y3650D01*
Y3640D02*
Y3648D01*
X4710Y4495D02*
Y4595D01*
X5330Y4495D02*
Y4595D01*
X4710Y4495D02*
X5330D01*
X4710Y4595D02*
X5330D01*
X4370Y2480D02*
Y2580D01*
X4990Y2480D02*
Y2580D01*
X4370Y2480D02*
X4990D01*
X4370Y2580D02*
X4990D01*
X8136Y2590D02*
Y3003D01*
X7881Y2588D02*
Y3003D01*
X7546Y2590D02*
Y3003D01*
X7397Y2786D02*
X7546D01*
X8018Y2696D02*
Y2903D01*
Y2794D02*
Y2796D01*
X7546Y3003D02*
X8136D01*
X7546Y2590D02*
X8136D01*
X7930Y2796D02*
X8103D01*
X7397Y2909D02*
X7546D01*
X7397Y2887D02*
X7546D01*
X7397Y2808D02*
X7546D01*
X7397Y2708D02*
X7546D01*
X7397Y2686D02*
X7546D01*
X8137Y2918D02*
Y2920D01*
Y2910D02*
Y2918D01*
X5440Y3955D02*
X5540D01*
X5440Y3335D02*
X5540D01*
X5440D02*
Y3955D01*
X5540Y3335D02*
Y3955D01*
X7036Y3546D02*
X7006D01*
Y3531D01*
X7011Y3526D01*
X7021D01*
X7026Y3531D01*
Y3546D01*
Y3536D02*
X7036Y3526D01*
X7011Y3516D02*
X7006Y3511D01*
Y3501D01*
X7011Y3496D01*
X7016D01*
X7021Y3501D01*
X7026Y3496D01*
X7031D01*
X7036Y3501D01*
Y3511D01*
X7031Y3516D01*
X7026D01*
X7021Y3511D01*
X7016Y3516D01*
X7011D01*
X7021Y3511D02*
Y3501D01*
X4250Y4154D02*
X4220D01*
Y4169D01*
X4225Y4174D01*
X4245D01*
X4250Y4169D01*
Y4154D01*
Y4184D02*
X4220D01*
Y4199D01*
X4225Y4204D01*
X4245D01*
X4250Y4199D01*
Y4184D01*
X4220Y4214D02*
Y4224D01*
Y4219D01*
X4250D01*
X4245Y4214D01*
X4255Y3290D02*
X4225D01*
Y3305D01*
X4230Y3310D01*
X4250D01*
X4255Y3305D01*
Y3290D01*
Y3320D02*
X4225D01*
Y3335D01*
X4230Y3340D01*
X4250D01*
X4255Y3335D01*
Y3320D01*
X4225Y3370D02*
Y3350D01*
X4245Y3370D01*
X4250D01*
X4255Y3365D01*
Y3355D01*
X4250Y3350D01*
X7330Y3345D02*
X7335Y3350D01*
X7345D01*
X7350Y3345D01*
Y3325D01*
X7345Y3320D01*
X7335D01*
X7330Y3325D01*
X7300Y3320D02*
X7320D01*
X7300Y3340D01*
Y3345D01*
X7305Y3350D01*
X7315D01*
X7320Y3345D01*
X7275Y3320D02*
Y3350D01*
X7290Y3335D01*
X7270D01*
X7164Y3175D02*
X7169Y3180D01*
X7179D01*
X7184Y3175D01*
Y3155D01*
X7179Y3150D01*
X7169D01*
X7164Y3155D01*
X7134Y3180D02*
X7154D01*
Y3165D01*
X7144Y3170D01*
X7139D01*
X7134Y3165D01*
Y3155D01*
X7139Y3150D01*
X7149D01*
X7154Y3155D01*
X7124Y3175D02*
X7119Y3180D01*
X7109D01*
X7104Y3175D01*
Y3155D01*
X7109Y3150D01*
X7119D01*
X7124Y3155D01*
Y3175D01*
X7370Y3015D02*
X7375Y3020D01*
X7385D01*
X7390Y3015D01*
Y2995D01*
X7385Y2990D01*
X7375D01*
X7370Y2995D01*
X7340Y2990D02*
X7360D01*
X7340Y3010D01*
Y3015D01*
X7345Y3020D01*
X7355D01*
X7360Y3015D01*
X7310Y3020D02*
X7320Y3015D01*
X7330Y3005D01*
Y2995D01*
X7325Y2990D01*
X7315D01*
X7310Y2995D01*
Y3000D01*
X7315Y3005D01*
X7330D01*
X6940Y4530D02*
Y4560D01*
X6925D01*
X6920Y4555D01*
Y4545D01*
X6925Y4540D01*
X6940D01*
X6930D02*
X6920Y4530D01*
X6910Y4555D02*
X6905Y4560D01*
X6895D01*
X6890Y4555D01*
Y4550D01*
X6895Y4545D01*
X6900D01*
X6895D01*
X6890Y4540D01*
Y4535D01*
X6895Y4530D01*
X6905D01*
X6910Y4535D01*
X7379Y4450D02*
Y4430D01*
X7369Y4420D01*
X7359Y4430D01*
Y4450D01*
X7349D02*
X7329D01*
X7339D01*
Y4420D01*
X7319D02*
X7309D01*
X7314D01*
Y4450D01*
X7319Y4445D01*
X7420Y3750D02*
Y3730D01*
X7410Y3720D01*
X7400Y3730D01*
Y3750D01*
X7390D02*
X7370D01*
X7380D01*
Y3720D01*
X7360Y3745D02*
X7355Y3750D01*
X7345D01*
X7340Y3745D01*
Y3740D01*
X7345Y3735D01*
X7350D01*
X7345D01*
X7340Y3730D01*
Y3725D01*
X7345Y3720D01*
X7355D01*
X7360Y3725D01*
X7280Y3755D02*
X7285Y3760D01*
X7295D01*
X7300Y3755D01*
Y3735D01*
X7295Y3730D01*
X7285D01*
X7280Y3735D01*
X7255Y3730D02*
Y3760D01*
X7270Y3745D01*
X7250D01*
X7240Y3760D02*
X7220D01*
Y3755D01*
X7240Y3735D01*
Y3730D01*
X7320Y4085D02*
X7325Y4090D01*
X7335D01*
X7340Y4085D01*
Y4065D01*
X7335Y4060D01*
X7325D01*
X7320Y4065D01*
X7295Y4060D02*
Y4090D01*
X7310Y4075D01*
X7290D01*
X7265Y4060D02*
Y4090D01*
X7280Y4075D01*
X7260D01*
X7040Y2840D02*
X7010D01*
Y2825D01*
X7015Y2820D01*
X7025D01*
X7030Y2825D01*
Y2840D01*
Y2830D02*
X7040Y2820D01*
Y2810D02*
Y2800D01*
Y2805D01*
X7010D01*
X7015Y2810D01*
X7040Y2765D02*
Y2785D01*
X7020Y2765D01*
X7015D01*
X7010Y2770D01*
Y2780D01*
X7015Y2785D01*
X7010Y3150D02*
Y3180D01*
X6995D01*
X6990Y3175D01*
Y3165D01*
X6995Y3160D01*
X7010D01*
X7000D02*
X6990Y3150D01*
X6980D02*
X6970D01*
X6975D01*
Y3180D01*
X6980Y3175D01*
X6955Y3150D02*
X6945D01*
X6950D01*
Y3180D01*
X6955Y3175D01*
X7080Y3310D02*
Y3340D01*
X7065D01*
X7060Y3335D01*
Y3325D01*
X7065Y3320D01*
X7080D01*
X7070D02*
X7060Y3310D01*
X7030Y3340D02*
X7040Y3335D01*
X7050Y3325D01*
Y3315D01*
X7045Y3310D01*
X7035D01*
X7030Y3315D01*
Y3320D01*
X7035Y3325D01*
X7050D01*
X6685Y4135D02*
X6680Y4140D01*
Y4150D01*
X6685Y4155D01*
X6705D01*
X6710Y4150D01*
Y4140D01*
X6705Y4135D01*
X6680Y4105D02*
Y4125D01*
X6695D01*
X6690Y4115D01*
Y4110D01*
X6695Y4105D01*
X6705D01*
X6710Y4110D01*
Y4120D01*
X6705Y4125D01*
X6687Y3508D02*
X6682Y3513D01*
Y3523D01*
X6687Y3528D01*
X6707D01*
X6712Y3523D01*
Y3513D01*
X6707Y3508D01*
X6712Y3498D02*
Y3488D01*
Y3493D01*
X6682D01*
X6687Y3498D01*
X6712Y3473D02*
Y3463D01*
Y3468D01*
X6682D01*
X6687Y3473D01*
X7090Y2650D02*
Y2680D01*
X7075D01*
X7070Y2675D01*
Y2665D01*
X7075Y2660D01*
X7090D01*
X7080D02*
X7070Y2650D01*
X7060D02*
X7050D01*
X7055D01*
Y2680D01*
X7060Y2675D01*
X7035D02*
X7030Y2680D01*
X7020D01*
X7015Y2675D01*
Y2655D01*
X7020Y2650D01*
X7030D01*
X7035Y2655D01*
Y2675D01*
X6687Y2750D02*
X6682Y2755D01*
Y2765D01*
X6687Y2770D01*
X6707D01*
X6712Y2765D01*
Y2755D01*
X6707Y2750D01*
X6712Y2740D02*
Y2730D01*
Y2735D01*
X6682D01*
X6687Y2740D01*
X6682Y2715D02*
Y2695D01*
X6687D01*
X6707Y2715D01*
X6712D01*
X5563Y4097D02*
X5558Y4092D01*
X5548D01*
X5543Y4097D01*
Y4117D01*
X5548Y4122D01*
X5558D01*
X5563Y4117D01*
X5573Y4122D02*
X5583D01*
X5578D01*
Y4092D01*
X5573Y4097D01*
X4556Y4140D02*
Y4120D01*
X4546Y4110D01*
X4536Y4120D01*
Y4140D01*
X4526D02*
Y4110D01*
X4511D01*
X4506Y4115D01*
Y4135D01*
X4511Y4140D01*
X4526D01*
X4496Y4110D02*
X4486D01*
X4491D01*
Y4140D01*
X4496Y4135D01*
X4456Y4110D02*
Y4140D01*
X4471Y4125D01*
X4451D01*
X5290Y4138D02*
Y4118D01*
X5280Y4108D01*
X5270Y4118D01*
Y4138D01*
X5260D02*
Y4108D01*
X5245D01*
X5240Y4113D01*
Y4133D01*
X5245Y4138D01*
X5260D01*
X5230Y4108D02*
X5220D01*
X5225D01*
Y4138D01*
X5230Y4133D01*
X5205D02*
X5200Y4138D01*
X5190D01*
X5185Y4133D01*
Y4128D01*
X5190Y4123D01*
X5195D01*
X5190D01*
X5185Y4118D01*
Y4113D01*
X5190Y4108D01*
X5200D01*
X5205Y4113D01*
X5090Y4150D02*
Y4130D01*
X5080Y4120D01*
X5070Y4130D01*
Y4150D01*
X5060D02*
Y4120D01*
X5045D01*
X5040Y4125D01*
Y4145D01*
X5045Y4150D01*
X5060D01*
X5030D02*
X5010D01*
Y4145D01*
X5030Y4125D01*
Y4120D01*
X4913Y4150D02*
Y4130D01*
X4903Y4120D01*
X4893Y4130D01*
Y4150D01*
X4883D02*
Y4120D01*
X4868D01*
X4863Y4125D01*
Y4145D01*
X4868Y4150D01*
X4883D01*
X4838Y4120D02*
Y4150D01*
X4853Y4135D01*
X4833D01*
X4445Y3825D02*
X4440Y3820D01*
X4430D01*
X4425Y3825D01*
Y3845D01*
X4430Y3850D01*
X4440D01*
X4445Y3845D01*
X4475Y3820D02*
X4455D01*
Y3835D01*
X4465Y3830D01*
X4470D01*
X4475Y3835D01*
Y3845D01*
X4470Y3850D01*
X4460D01*
X4455Y3845D01*
X4505Y3820D02*
X4495Y3825D01*
X4485Y3835D01*
Y3845D01*
X4490Y3850D01*
X4500D01*
X4505Y3845D01*
Y3840D01*
X4500Y3835D01*
X4485D01*
X4887Y3490D02*
X4857D01*
Y3475D01*
X4862Y3470D01*
X4872D01*
X4877Y3475D01*
Y3490D01*
Y3480D02*
X4887Y3470D01*
Y3460D02*
Y3450D01*
Y3455D01*
X4857D01*
X4862Y3460D01*
Y3435D02*
X4857Y3430D01*
Y3420D01*
X4862Y3415D01*
X4867D01*
X4872Y3420D01*
X4877Y3415D01*
X4882D01*
X4887Y3420D01*
Y3430D01*
X4882Y3435D01*
X4877D01*
X4872Y3430D01*
X4867Y3435D01*
X4862D01*
X4872Y3430D02*
Y3420D01*
X4645Y3725D02*
X4640Y3720D01*
X4630D01*
X4625Y3725D01*
Y3745D01*
X4630Y3750D01*
X4640D01*
X4645Y3745D01*
X4655Y3725D02*
X4660Y3720D01*
X4670D01*
X4675Y3725D01*
Y3730D01*
X4670Y3735D01*
X4665D01*
X4670D01*
X4675Y3740D01*
Y3745D01*
X4670Y3750D01*
X4660D01*
X4655Y3745D01*
X4685Y3725D02*
X4690Y3720D01*
X4700D01*
X4705Y3725D01*
Y3730D01*
X4700Y3735D01*
X4695D01*
X4700D01*
X4705Y3740D01*
Y3745D01*
X4700Y3750D01*
X4690D01*
X4685Y3745D01*
X4645Y3786D02*
X4640Y3781D01*
X4630D01*
X4625Y3786D01*
Y3806D01*
X4630Y3811D01*
X4640D01*
X4645Y3806D01*
X4655Y3786D02*
X4660Y3781D01*
X4670D01*
X4675Y3786D01*
Y3791D01*
X4670Y3796D01*
X4665D01*
X4670D01*
X4675Y3801D01*
Y3806D01*
X4670Y3811D01*
X4660D01*
X4655Y3806D01*
X4705Y3811D02*
X4685D01*
X4705Y3791D01*
Y3786D01*
X4700Y3781D01*
X4690D01*
X4685Y3786D01*
X4530Y3605D02*
X4535Y3610D01*
X4545D01*
X4550Y3605D01*
Y3585D01*
X4545Y3580D01*
X4535D01*
X4530Y3585D01*
X4500Y3610D02*
X4520D01*
Y3595D01*
X4510Y3600D01*
X4505D01*
X4500Y3595D01*
Y3585D01*
X4505Y3580D01*
X4515D01*
X4520Y3585D01*
X4470Y3610D02*
X4490D01*
Y3595D01*
X4480Y3600D01*
X4475D01*
X4470Y3595D01*
Y3585D01*
X4475Y3580D01*
X4485D01*
X4490Y3585D01*
X4809Y4058D02*
X4779D01*
Y4043D01*
X4784Y4038D01*
X4794D01*
X4799Y4043D01*
Y4058D01*
Y4048D02*
X4809Y4038D01*
Y4028D02*
Y4018D01*
Y4023D01*
X4779D01*
X4784Y4028D01*
X4779Y3983D02*
Y4003D01*
X4794D01*
X4789Y3993D01*
Y3988D01*
X4794Y3983D01*
X4804D01*
X4809Y3988D01*
Y3998D01*
X4804Y4003D01*
X4930Y2917D02*
X4925Y2912D01*
X4915D01*
X4910Y2917D01*
Y2937D01*
X4915Y2942D01*
X4925D01*
X4930Y2937D01*
X4960Y2942D02*
X4940D01*
X4960Y2922D01*
Y2917D01*
X4955Y2912D01*
X4945D01*
X4940Y2917D01*
X4970Y2912D02*
X4990D01*
Y2917D01*
X4970Y2937D01*
Y2942D01*
X4720Y4150D02*
Y4130D01*
X4710Y4120D01*
X4700Y4130D01*
Y4150D01*
X4690D02*
Y4120D01*
X4675D01*
X4670Y4125D01*
Y4145D01*
X4675Y4150D01*
X4690D01*
X4660Y4120D02*
X4650D01*
X4655D01*
Y4150D01*
X4660Y4145D01*
X6342Y3388D02*
Y3368D01*
X6332Y3358D01*
X6322Y3368D01*
Y3388D01*
X6312D02*
Y3358D01*
X6297D01*
X6292Y3363D01*
Y3383D01*
X6297Y3388D01*
X6312D01*
X6282Y3358D02*
X6272D01*
X6277D01*
Y3388D01*
X6282Y3383D01*
X6237Y3388D02*
X6257D01*
Y3373D01*
X6247Y3378D01*
X6242D01*
X6237Y3373D01*
Y3363D01*
X6242Y3358D01*
X6252D01*
X6257Y3363D01*
X7276Y3995D02*
X7281Y4000D01*
X7291D01*
X7296Y3995D01*
Y3975D01*
X7291Y3970D01*
X7281D01*
X7276Y3975D01*
X7246Y3970D02*
X7266D01*
X7246Y3990D01*
Y3995D01*
X7251Y4000D01*
X7261D01*
X7266Y3995D01*
X7216Y3970D02*
X7236D01*
X7216Y3990D01*
Y3995D01*
X7221Y4000D01*
X7231D01*
X7236Y3995D01*
X4430Y2749D02*
X4435Y2754D01*
X4445D01*
X4450Y2749D01*
Y2729D01*
X4445Y2724D01*
X4435D01*
X4430Y2729D01*
X4400Y2754D02*
X4410Y2749D01*
X4420Y2739D01*
Y2729D01*
X4415Y2724D01*
X4405D01*
X4400Y2729D01*
Y2734D01*
X4405Y2739D01*
X4420D01*
X4390Y2749D02*
X4385Y2754D01*
X4375D01*
X4370Y2749D01*
Y2729D01*
X4375Y2724D01*
X4385D01*
X4390Y2729D01*
Y2749D01*
X6625Y3079D02*
X6630Y3084D01*
X6640D01*
X6645Y3079D01*
Y3059D01*
X6640Y3054D01*
X6630D01*
X6625Y3059D01*
X6600Y3054D02*
Y3084D01*
X6615Y3069D01*
X6595D01*
X6585Y3059D02*
X6580Y3054D01*
X6570D01*
X6565Y3059D01*
Y3079D01*
X6570Y3084D01*
X6580D01*
X6585Y3079D01*
Y3074D01*
X6580Y3069D01*
X6565D01*
X6270Y3070D02*
X6275Y3075D01*
X6285D01*
X6290Y3070D01*
Y3050D01*
X6285Y3045D01*
X6275D01*
X6270Y3050D01*
X6240Y3075D02*
X6260D01*
Y3060D01*
X6250Y3065D01*
X6245D01*
X6240Y3060D01*
Y3050D01*
X6245Y3045D01*
X6255D01*
X6260Y3050D01*
X6230Y3045D02*
X6220D01*
X6225D01*
Y3075D01*
X6230Y3070D01*
X6515Y3074D02*
X6520Y3079D01*
X6530D01*
X6535Y3074D01*
Y3054D01*
X6530Y3049D01*
X6520D01*
X6515Y3054D01*
X6505Y3049D02*
X6495D01*
X6500D01*
Y3079D01*
X6505Y3074D01*
X6460Y3079D02*
X6480D01*
Y3064D01*
X6470Y3069D01*
X6465D01*
X6460Y3064D01*
Y3054D01*
X6465Y3049D01*
X6475D01*
X6480Y3054D01*
X6385Y3074D02*
X6390Y3079D01*
X6400D01*
X6405Y3074D01*
Y3054D01*
X6400Y3049D01*
X6390D01*
X6385Y3054D01*
X6375Y3049D02*
X6365D01*
X6370D01*
Y3079D01*
X6375Y3074D01*
X6350Y3054D02*
X6345Y3049D01*
X6335D01*
X6330Y3054D01*
Y3074D01*
X6335Y3079D01*
X6345D01*
X6350Y3074D01*
Y3069D01*
X6345Y3064D01*
X6330D01*
X6630Y3664D02*
X6635Y3669D01*
X6645D01*
X6650Y3664D01*
Y3644D01*
X6645Y3639D01*
X6635D01*
X6630Y3644D01*
X6605Y3639D02*
Y3669D01*
X6620Y3654D01*
X6600D01*
X6570Y3669D02*
X6580Y3664D01*
X6590Y3654D01*
Y3644D01*
X6585Y3639D01*
X6575D01*
X6570Y3644D01*
Y3649D01*
X6575Y3654D01*
X6590D01*
X6485Y3665D02*
X6490Y3670D01*
X6500D01*
X6505Y3665D01*
Y3645D01*
X6500Y3640D01*
X6490D01*
X6485Y3645D01*
X6475D02*
X6470Y3640D01*
X6460D01*
X6455Y3645D01*
Y3665D01*
X6460Y3670D01*
X6470D01*
X6475Y3665D01*
Y3660D01*
X6470Y3655D01*
X6455D01*
X6275Y3669D02*
X6280Y3674D01*
X6290D01*
X6295Y3669D01*
Y3649D01*
X6290Y3644D01*
X6280D01*
X6275Y3649D01*
X6265Y3644D02*
X6255D01*
X6260D01*
Y3674D01*
X6265Y3669D01*
X6240D02*
X6235Y3674D01*
X6225D01*
X6220Y3669D01*
Y3664D01*
X6225Y3659D01*
X6230D01*
X6225D01*
X6220Y3654D01*
Y3649D01*
X6225Y3644D01*
X6235D01*
X6240Y3649D01*
X6395Y3669D02*
X6400Y3674D01*
X6410D01*
X6415Y3669D01*
Y3649D01*
X6410Y3644D01*
X6400D01*
X6395Y3649D01*
X6370Y3644D02*
Y3674D01*
X6385Y3659D01*
X6365D01*
X6355Y3669D02*
X6350Y3674D01*
X6340D01*
X6335Y3669D01*
Y3664D01*
X6340Y3659D01*
X6335Y3654D01*
Y3649D01*
X6340Y3644D01*
X6350D01*
X6355Y3649D01*
Y3654D01*
X6350Y3659D01*
X6355Y3664D01*
Y3669D01*
X6350Y3659D02*
X6340D01*
X6600Y4280D02*
X6605Y4285D01*
X6615D01*
X6620Y4280D01*
Y4260D01*
X6615Y4255D01*
X6605D01*
X6600Y4260D01*
X6575Y4255D02*
Y4285D01*
X6590Y4270D01*
X6570D01*
X6380Y4280D02*
X6385Y4285D01*
X6395D01*
X6400Y4280D01*
Y4260D01*
X6395Y4255D01*
X6385D01*
X6380Y4260D01*
X6355Y4255D02*
Y4285D01*
X6370Y4270D01*
X6350D01*
X6320Y4285D02*
X6340D01*
Y4270D01*
X6330Y4275D01*
X6325D01*
X6320Y4270D01*
Y4260D01*
X6325Y4255D01*
X6335D01*
X6340Y4260D01*
X6510Y4280D02*
X6515Y4285D01*
X6525D01*
X6530Y4280D01*
Y4260D01*
X6525Y4255D01*
X6515D01*
X6510Y4260D01*
X6485Y4255D02*
Y4285D01*
X6500Y4270D01*
X6480D01*
X6470Y4280D02*
X6465Y4285D01*
X6455D01*
X6450Y4280D01*
Y4275D01*
X6455Y4270D01*
X6460D01*
X6455D01*
X6450Y4265D01*
Y4260D01*
X6455Y4255D01*
X6465D01*
X6470Y4260D01*
X6240Y4280D02*
X6245Y4285D01*
X6255D01*
X6260Y4280D01*
Y4260D01*
X6255Y4255D01*
X6245D01*
X6240Y4260D01*
X6230Y4285D02*
X6210D01*
Y4280D01*
X6230Y4260D01*
Y4255D01*
X5152Y3899D02*
Y3929D01*
X5137D01*
X5132Y3924D01*
Y3914D01*
X5137Y3909D01*
X5152D01*
X5142D02*
X5132Y3899D01*
X5122D02*
X5112D01*
X5117D01*
Y3929D01*
X5122Y3924D01*
X5077Y3929D02*
X5087Y3924D01*
X5097Y3914D01*
Y3904D01*
X5092Y3899D01*
X5082D01*
X5077Y3904D01*
Y3909D01*
X5082Y3914D01*
X5097D01*
X7414Y3068D02*
Y3048D01*
X7404Y3038D01*
X7394Y3048D01*
Y3068D01*
X7384D02*
X7364D01*
X7374D01*
Y3038D01*
X7334Y3068D02*
X7354D01*
Y3053D01*
X7344Y3058D01*
X7339D01*
X7334Y3053D01*
Y3043D01*
X7339Y3038D01*
X7349D01*
X7354Y3043D01*
X7013Y3983D02*
Y4012D01*
X6998D01*
X6993Y4007D01*
Y3997D01*
X6998Y3992D01*
X7013D01*
X7003D02*
X6993Y3983D01*
X6963D02*
X6983D01*
X6963Y4002D01*
Y4007D01*
X6968Y4012D01*
X6978D01*
X6983Y4007D01*
X7020Y3885D02*
Y3915D01*
X7005D01*
X7000Y3910D01*
Y3900D01*
X7005Y3895D01*
X7020D01*
X7010D02*
X7000Y3885D01*
X6990Y3915D02*
X6970D01*
Y3910D01*
X6990Y3890D01*
Y3885D01*
X7305Y2929D02*
Y2959D01*
X7290D01*
X7285Y2954D01*
Y2944D01*
X7290Y2939D01*
X7305D01*
X7295D02*
X7285Y2929D01*
X7275Y2934D02*
X7270Y2929D01*
X7260D01*
X7255Y2934D01*
Y2954D01*
X7260Y2959D01*
X7270D01*
X7275Y2954D01*
Y2949D01*
X7270Y2944D01*
X7255D01*
X7115Y4375D02*
Y4405D01*
X7100D01*
X7095Y4400D01*
Y4390D01*
X7100Y4385D01*
X7115D01*
X7105D02*
X7095Y4375D01*
X7070D02*
Y4405D01*
X7085Y4390D01*
X7065D01*
X7305Y3659D02*
Y3689D01*
X7290D01*
X7285Y3684D01*
Y3674D01*
X7290Y3669D01*
X7305D01*
X7295D02*
X7285Y3659D01*
X7255Y3689D02*
X7275D01*
Y3674D01*
X7265Y3679D01*
X7260D01*
X7255Y3674D01*
Y3664D01*
X7260Y3659D01*
X7270D01*
X7275Y3664D01*
X7290Y4370D02*
Y4400D01*
X7275D01*
X7270Y4395D01*
Y4385D01*
X7275Y4380D01*
X7290D01*
X7280D02*
X7270Y4370D01*
X7260D02*
X7250D01*
X7255D01*
Y4400D01*
X7260Y4395D01*
X5276Y3690D02*
X5281Y3695D01*
X5291D01*
X5296Y3690D01*
Y3670D01*
X5291Y3665D01*
X5281D01*
X5276Y3670D01*
X5246Y3695D02*
X5266D01*
Y3680D01*
X5256Y3685D01*
X5251D01*
X5246Y3680D01*
Y3670D01*
X5251Y3665D01*
X5261D01*
X5266Y3670D01*
X5236Y3690D02*
X5231Y3695D01*
X5221D01*
X5216Y3690D01*
Y3685D01*
X5221Y3680D01*
X5226D01*
X5221D01*
X5216Y3675D01*
Y3670D01*
X5221Y3665D01*
X5231D01*
X5236Y3670D01*
X5281Y3880D02*
X5286Y3885D01*
X5296D01*
X5301Y3880D01*
Y3860D01*
X5296Y3855D01*
X5286D01*
X5281Y3860D01*
X5251Y3885D02*
X5271D01*
Y3870D01*
X5261Y3875D01*
X5256D01*
X5251Y3870D01*
Y3860D01*
X5256Y3855D01*
X5266D01*
X5271Y3860D01*
X5226Y3855D02*
Y3885D01*
X5241Y3870D01*
X5221D01*
D13*
X4421Y4499D02*
X4490D01*
X4421Y4191D02*
Y4499D01*
X4490Y4493D02*
Y4499D01*
X4421Y4493D02*
X4490D01*
X4530D02*
X4599D01*
X4530D02*
Y4499D01*
X4421Y4191D02*
X4452D01*
X4530Y4499D02*
X4599D01*
X4568Y4191D02*
X4599D01*
Y4499D01*
X4490Y4361D02*
X4530D01*
X4510D02*
X4526Y4333D01*
X4490D02*
X4510Y4361D01*
X4490Y4333D02*
X4526D01*
X4510Y4361D02*
Y4369D01*
Y4321D02*
Y4333D01*
X5161Y4504D02*
X5230D01*
X5161Y4196D02*
Y4504D01*
X5230Y4498D02*
Y4504D01*
X5161Y4498D02*
X5230D01*
X5270D02*
X5339D01*
X5270D02*
Y4504D01*
X5161Y4196D02*
X5192D01*
X5270Y4504D02*
X5339D01*
X5308Y4196D02*
X5339D01*
Y4504D01*
X5230Y4366D02*
X5270D01*
X5250D02*
X5266Y4338D01*
X5230D02*
X5250Y4366D01*
X5230Y4338D02*
X5266D01*
X5250Y4366D02*
Y4374D01*
Y4326D02*
Y4338D01*
X4971Y4504D02*
X5040D01*
X4971Y4196D02*
Y4504D01*
X5040Y4498D02*
Y4504D01*
X4971Y4498D02*
X5040D01*
X5080D02*
X5149D01*
X5080D02*
Y4504D01*
X4971Y4196D02*
X5002D01*
X5080Y4504D02*
X5149D01*
X5118Y4196D02*
X5149D01*
Y4504D01*
X5040Y4366D02*
X5080D01*
X5060D02*
X5076Y4338D01*
X5040D02*
X5060Y4366D01*
X5040Y4338D02*
X5076D01*
X5060Y4366D02*
Y4374D01*
Y4326D02*
Y4338D01*
X4791Y4499D02*
X4860D01*
X4791Y4191D02*
Y4499D01*
X4860Y4493D02*
Y4499D01*
X4791Y4493D02*
X4860D01*
X4900D02*
X4969D01*
X4900D02*
Y4499D01*
X4791Y4191D02*
X4822D01*
X4900Y4499D02*
X4969D01*
X4938Y4191D02*
X4969D01*
Y4499D01*
X4860Y4361D02*
X4900D01*
X4880D02*
X4896Y4333D01*
X4860D02*
X4880Y4361D01*
X4860Y4333D02*
X4896D01*
X4880Y4361D02*
Y4369D01*
Y4321D02*
Y4333D01*
X4455Y3899D02*
Y3911D01*
X4445Y3899D02*
Y3911D01*
Y3921D02*
X4455D01*
X4445Y3889D02*
X4455D01*
X4841Y3510D02*
Y3520D01*
X4809Y3510D02*
Y3520D01*
X4900Y3624D02*
Y3636D01*
X4890Y3624D02*
Y3636D01*
Y3646D02*
X4900D01*
X4890Y3614D02*
X4900D01*
X4910Y3544D02*
Y3556D01*
X4900Y3544D02*
Y3556D01*
Y3566D02*
X4910D01*
X4900Y3534D02*
X4910D01*
X4501Y3499D02*
Y3511D01*
X4511Y3499D02*
Y3511D01*
X4501Y3489D02*
X4511D01*
X4501Y3521D02*
X4511D01*
X4716Y4022D02*
Y4032D01*
X4748Y4022D02*
Y4032D01*
X4825Y2919D02*
Y2931D01*
X4815Y2919D02*
Y2931D01*
Y2941D02*
X4825D01*
X4815Y2909D02*
X4825D01*
X4606Y4499D02*
X4675D01*
X4606Y4191D02*
Y4499D01*
X4675Y4493D02*
Y4499D01*
X4606Y4493D02*
X4675D01*
X4715D02*
X4784D01*
X4715D02*
Y4499D01*
X4606Y4191D02*
X4637D01*
X4715Y4499D02*
X4784D01*
X4753Y4191D02*
X4784D01*
Y4499D01*
X4675Y4361D02*
X4715D01*
X4695D02*
X4711Y4333D01*
X4675D02*
X4695Y4361D01*
X4675Y4333D02*
X4711D01*
X4695Y4361D02*
Y4369D01*
Y4321D02*
Y4333D01*
X6539Y3255D02*
Y3324D01*
X6231D02*
X6539D01*
X6533Y3255D02*
X6539D01*
X6533D02*
Y3324D01*
Y3146D02*
Y3215D01*
X6539D01*
X6231Y3293D02*
Y3324D01*
X6539Y3146D02*
Y3215D01*
X6231Y3146D02*
Y3177D01*
Y3146D02*
X6539D01*
X6401Y3215D02*
Y3255D01*
X6373Y3219D02*
X6401Y3235D01*
X6373Y3255D02*
X6401Y3235D01*
X6373Y3219D02*
Y3255D01*
X6401Y3235D02*
X6409D01*
X6361D02*
X6373D01*
X4374Y2650D02*
X4386D01*
X4374Y2640D02*
X4386D01*
X4364D02*
Y2650D01*
X4396Y2640D02*
Y2650D01*
X5071Y3815D02*
Y3825D01*
X5103Y3815D02*
Y3825D01*
X5260Y3609D02*
Y3621D01*
X5250Y3609D02*
Y3621D01*
Y3631D02*
X5260D01*
X5250Y3599D02*
X5260D01*
X5265Y3799D02*
Y3811D01*
X5255Y3799D02*
Y3811D01*
Y3821D02*
X5265D01*
X5255Y3789D02*
X5265D01*
M02*
