G04*
G04 #@! TF.GenerationSoftware,Altium Limited,Altium Designer,19.0.10 (269)*
G04*
G04 Layer_Physical_Order=4*
G04 Layer_Color=16711680*
%FSLAX24Y24*%
%MOIN*%
G70*
G01*
G75*
%ADD10C,0.0100*%
%ADD37R,0.0310X0.0340*%
%ADD39R,0.0340X0.0310*%
%ADD40R,0.0640X0.0640*%
%ADD41R,0.0640X0.0640*%
%ADD44R,0.0846X0.0965*%
%ADD49C,0.1000*%
%ADD50C,0.0500*%
%ADD51C,0.0394*%
%ADD52C,0.0197*%
%ADD53C,0.0200*%
%ADD54C,0.0787*%
%ADD55C,0.0984*%
%ADD56C,0.0827*%
%ADD57C,0.0787*%
%ADD58C,0.0866*%
%ADD59R,0.0866X0.0866*%
%ADD60R,0.0866X0.0866*%
%ADD61R,0.0787X0.0787*%
%ADD62C,0.0472*%
%ADD63R,0.0787X0.0787*%
%ADD64C,0.0276*%
%ADD65R,0.0965X0.0846*%
G36*
X73390Y46103D02*
X73540Y46073D01*
X73685Y46025D01*
X73823Y45960D01*
X73953Y45878D01*
X74071Y45781D01*
X74176Y45670D01*
X74267Y45548D01*
X74342Y45414D01*
X74400Y45273D01*
X74440Y45126D01*
X74449Y45064D01*
X74449Y41911D01*
X74399Y41895D01*
X74378Y41928D01*
X74101Y42204D01*
X74129Y42272D01*
X74146Y42400D01*
X74129Y42528D01*
X74080Y42648D01*
X74001Y42751D01*
X73898Y42830D01*
X73791Y42874D01*
X73791Y42874D01*
Y42926D01*
X73791Y42926D01*
X73898Y42970D01*
X74001Y43049D01*
X74080Y43152D01*
X74101Y43203D01*
X73650D01*
Y43400D01*
X73453D01*
Y43851D01*
X73402Y43830D01*
X73299Y43751D01*
X73220Y43648D01*
X73171Y43528D01*
X73166Y43492D01*
X73149Y43449D01*
X73110Y43449D01*
X72416D01*
X72413Y43478D01*
X72363Y43598D01*
X72284Y43701D01*
X72220Y43750D01*
Y44049D01*
X72292Y44142D01*
X72343Y44266D01*
X72361Y44400D01*
X72343Y44534D01*
X72292Y44658D01*
X72210Y44765D01*
X72103Y44847D01*
X71992Y44893D01*
Y45180D01*
X71989Y45202D01*
Y45649D01*
X71191D01*
Y44851D01*
X71328D01*
Y44684D01*
X71340Y44598D01*
X71356Y44558D01*
X71346Y44534D01*
X71328Y44400D01*
X71346Y44266D01*
X71398Y44142D01*
X71480Y44035D01*
X71557Y43975D01*
Y43669D01*
X71503Y43598D01*
X71463Y43502D01*
X70970D01*
X70948Y43499D01*
X70501D01*
Y42701D01*
X71299D01*
Y42838D01*
X71665D01*
X71710Y42844D01*
X71723Y42796D01*
X71685Y42780D01*
X71582Y42701D01*
X71503Y42598D01*
X71482Y42547D01*
X71933D01*
X72384D01*
X72363Y42598D01*
X72361Y42601D01*
X72385Y42651D01*
X73149D01*
Y43193D01*
X73199Y43203D01*
X73220Y43152D01*
X73299Y43049D01*
X73402Y42970D01*
X73509Y42926D01*
X73509Y42926D01*
Y42874D01*
X73509Y42874D01*
X73402Y42830D01*
X73299Y42751D01*
X73220Y42648D01*
X73171Y42528D01*
X73154Y42400D01*
X73171Y42272D01*
X73220Y42152D01*
X73299Y42049D01*
X73330Y42025D01*
X73322Y41976D01*
X73318Y41972D01*
X73149D01*
Y42109D01*
X72411D01*
X72383Y42150D01*
X72384Y42153D01*
X71933D01*
X71482D01*
X71503Y42102D01*
X71582Y41999D01*
X71685Y41920D01*
X71792Y41876D01*
X71792Y41876D01*
Y41824D01*
X71792Y41824D01*
X71685Y41780D01*
X71583Y41702D01*
X71427D01*
X71299Y41830D01*
Y42159D01*
X70501D01*
Y41361D01*
X70830D01*
X71056Y41136D01*
X71124Y41083D01*
X71204Y41050D01*
X71290Y41038D01*
X71552D01*
X71582Y40999D01*
X71646Y40950D01*
X71629Y40900D01*
X67892D01*
X67891Y40901D01*
X67918Y40951D01*
X68309D01*
Y41398D01*
X68312Y41420D01*
Y41955D01*
X68387Y42013D01*
X68463Y42112D01*
X68510Y42227D01*
X68522Y42314D01*
X68525Y42337D01*
X68575D01*
X68578Y42314D01*
X68590Y42227D01*
X68637Y42112D01*
X68713Y42013D01*
X68812Y41937D01*
X68853Y41920D01*
Y42350D01*
Y42780D01*
X68812Y42763D01*
X68713Y42687D01*
X68637Y42588D01*
X68590Y42473D01*
X68578Y42386D01*
X68575Y42363D01*
X68525D01*
X68522Y42386D01*
X68510Y42473D01*
X68463Y42588D01*
X68387Y42687D01*
X68327Y42733D01*
Y43155D01*
X68315Y43241D01*
X68282Y43321D01*
X68229Y43389D01*
X67261Y44358D01*
X67266Y44400D01*
X67249Y44534D01*
X67197Y44658D01*
X67115Y44765D01*
X67008Y44847D01*
X67000Y44850D01*
Y46109D01*
X73151D01*
X73156Y46110D01*
X73161Y46110D01*
X73238Y46114D01*
X73390Y46103D01*
D02*
G37*
G36*
X67663Y43018D02*
Y42622D01*
X67637Y42588D01*
X67590Y42473D01*
X67573Y42350D01*
X67590Y42227D01*
X67637Y42112D01*
X67648Y42097D01*
Y41749D01*
X67511D01*
Y41299D01*
X67465Y41280D01*
X67140Y41605D01*
X67000D01*
Y43384D01*
X67000Y43384D01*
X67012Y43470D01*
Y43604D01*
X67058Y43623D01*
X67663Y43018D01*
D02*
G37*
G36*
X72820Y41308D02*
X73166D01*
X73171Y41272D01*
X73220Y41152D01*
X73299Y41049D01*
X73402Y40970D01*
X73450Y40950D01*
X73440Y40900D01*
X72715D01*
X72692Y40955D01*
X72639Y41024D01*
X72416Y41248D01*
X72424Y41311D01*
X72798D01*
X72820Y41308D01*
D02*
G37*
G36*
X50000Y38936D02*
X49485Y38421D01*
X49457Y38378D01*
X49447Y38328D01*
Y38060D01*
X49384Y38018D01*
X49336Y37946D01*
X49319Y37862D01*
X49336Y37777D01*
X49384Y37706D01*
X49456Y37658D01*
X49540Y37641D01*
X49625Y37658D01*
X49696Y37706D01*
X49744Y37777D01*
X49761Y37862D01*
X49744Y37946D01*
X49709Y37998D01*
Y38274D01*
X49954Y38518D01*
X50000Y38499D01*
X50000Y36431D01*
X49489D01*
Y36549D01*
X49021D01*
Y36051D01*
X49224D01*
Y35749D01*
X49121D01*
Y35251D01*
X49589D01*
Y35369D01*
X50000D01*
Y34365D01*
X49643Y34008D01*
X48381D01*
Y34611D01*
X48499D01*
Y35079D01*
X48001D01*
Y34611D01*
X48119D01*
Y34008D01*
X45759Y34008D01*
X45740Y34054D01*
X46469Y34783D01*
X46497Y34826D01*
X46507Y34876D01*
Y34896D01*
X46935Y35324D01*
X47856D01*
Y35455D01*
X48351D01*
Y35500D01*
X48745D01*
Y35894D01*
X48876D01*
Y35906D01*
X48614D01*
Y35749D01*
X48511D01*
Y35734D01*
X48499Y35689D01*
X48001D01*
Y35586D01*
X46881D01*
X46831Y35576D01*
X46788Y35548D01*
X46322Y35081D01*
X45763D01*
Y35050D01*
X45370D01*
Y34797D01*
X45335Y34804D01*
X45250Y34787D01*
X45196Y34751D01*
X45196Y34751D01*
X45179Y34739D01*
X45177Y34737D01*
X45177Y34737D01*
X45161Y34714D01*
X45156Y34721D01*
X45156Y34721D01*
X45084Y34769D01*
X45034Y34779D01*
X45034Y34779D01*
X45000Y34786D01*
X44915Y34769D01*
X44888Y34751D01*
X44888Y34751D01*
X44844Y34721D01*
X44796Y34650D01*
X44779Y34565D01*
X44796Y34481D01*
X44844Y34409D01*
X44916Y34361D01*
X45000Y34345D01*
X45084Y34361D01*
X45156Y34409D01*
X45158Y34412D01*
X45179Y34427D01*
X45250Y34379D01*
X45335Y34362D01*
X45419Y34379D01*
X45491Y34427D01*
X45492Y34429D01*
X45542D01*
X45544Y34427D01*
X45616Y34379D01*
X45629Y34377D01*
X45643Y34329D01*
X45487Y34173D01*
X44504D01*
X44184Y34493D01*
X44142Y34521D01*
X44091Y34531D01*
X44003D01*
Y34869D01*
X44526D01*
Y34801D01*
X44873D01*
X44873Y34801D01*
X44993D01*
Y34834D01*
X44993Y34835D01*
Y35299D01*
X44526D01*
Y35131D01*
X44003D01*
X44003Y38801D01*
X44195D01*
Y39299D01*
X44147D01*
X44003Y39443D01*
Y40006D01*
X47074D01*
Y39736D01*
X47572D01*
Y39839D01*
X48404D01*
X48455Y39849D01*
X48497Y39877D01*
X48626Y40006D01*
X50000D01*
Y38936D01*
D02*
G37*
G36*
X74449Y33409D02*
X72722D01*
Y33738D01*
X72710Y33824D01*
X72677Y33904D01*
X72624Y33972D01*
X72445Y34151D01*
X72466Y34201D01*
X72848D01*
X72870Y34198D01*
X73194D01*
X73196Y34197D01*
X73204Y34138D01*
X73253Y34019D01*
X73332Y33916D01*
X73435Y33837D01*
X73555Y33787D01*
X73683Y33771D01*
X73812Y33787D01*
X73931Y33837D01*
X74034Y33916D01*
X74113Y34019D01*
X74163Y34138D01*
X74179Y34267D01*
X74163Y34395D01*
X74113Y34515D01*
X74034Y34618D01*
X73931Y34697D01*
X73824Y34741D01*
X73824Y34741D01*
Y34793D01*
X73824Y34793D01*
X73931Y34837D01*
X74034Y34916D01*
X74113Y35019D01*
X74163Y35138D01*
X74179Y35267D01*
X74163Y35395D01*
X74113Y35515D01*
X74034Y35618D01*
X73931Y35697D01*
X73824Y35741D01*
X73824Y35741D01*
Y35793D01*
X73824Y35793D01*
X73931Y35837D01*
X74034Y35916D01*
X74113Y36019D01*
X74134Y36070D01*
X73683D01*
Y36267D01*
X73486D01*
Y36718D01*
X73435Y36697D01*
X73332Y36618D01*
X73253Y36515D01*
X73204Y36395D01*
X73196Y36339D01*
X72422D01*
X72413Y36412D01*
X72363Y36531D01*
X72284Y36634D01*
X72202Y36697D01*
Y36930D01*
X72191Y37016D01*
X72158Y37096D01*
X72105Y37165D01*
X72049Y37221D01*
X72066Y37350D01*
X72049Y37484D01*
X71997Y37608D01*
X71915Y37715D01*
X71808Y37797D01*
X71692Y37845D01*
Y37912D01*
X72001D01*
Y37801D01*
X72799D01*
Y37912D01*
X73341D01*
Y37801D01*
X74139D01*
Y37912D01*
X74449D01*
X74449Y33409D01*
D02*
G37*
G36*
X70891Y37801D02*
X71028D01*
Y37639D01*
X71040Y37553D01*
X71060Y37504D01*
X71051Y37484D01*
X71034Y37350D01*
X71051Y37216D01*
X71103Y37092D01*
X71185Y36985D01*
X71292Y36903D01*
X71416Y36851D01*
X71490Y36842D01*
X71539Y36793D01*
Y36578D01*
X71503Y36531D01*
X71454Y36412D01*
X71446Y36353D01*
X71444Y36352D01*
X71170D01*
X71148Y36349D01*
X70701D01*
Y35551D01*
X71458D01*
X71491Y35501D01*
X71482Y35480D01*
X71933D01*
X72384D01*
X72375Y35502D01*
X72413Y35541D01*
X73199D01*
Y36020D01*
X73249Y36030D01*
X73253Y36019D01*
X73332Y35916D01*
X73435Y35837D01*
X73542Y35793D01*
X73542Y35793D01*
Y35741D01*
X73542Y35741D01*
X73435Y35697D01*
X73332Y35618D01*
X73253Y35515D01*
X73204Y35395D01*
X73187Y35267D01*
X73204Y35138D01*
X73253Y35019D01*
X73332Y34916D01*
X73338Y34911D01*
X73335Y34888D01*
X73321Y34862D01*
X73199D01*
Y34999D01*
X72401D01*
Y34563D01*
X72351Y34546D01*
X72284Y34634D01*
X72181Y34713D01*
X72074Y34757D01*
X72074Y34757D01*
Y34809D01*
X72074Y34809D01*
X72181Y34853D01*
X72284Y34932D01*
X72363Y35035D01*
X72384Y35086D01*
X71933D01*
X71482D01*
X71493Y35059D01*
X71465Y35010D01*
X71462Y35009D01*
X70701D01*
Y34211D01*
X71030D01*
X71209Y34032D01*
X71277Y33980D01*
X71357Y33947D01*
X71443Y33935D01*
X71580D01*
X71582Y33932D01*
X71685Y33853D01*
X71805Y33804D01*
X71863Y33796D01*
X72058Y33600D01*
Y33541D01*
X72008Y33531D01*
X71997Y33558D01*
X71915Y33665D01*
X71808Y33747D01*
X71684Y33799D01*
X71550Y33816D01*
X71416Y33799D01*
X71292Y33747D01*
X71185Y33665D01*
X71103Y33558D01*
X71051Y33434D01*
X71048Y33409D01*
X70052D01*
X70049Y33434D01*
X69997Y33558D01*
X69915Y33665D01*
X69808Y33747D01*
X69684Y33799D01*
X69550Y33816D01*
X69416Y33799D01*
X69292Y33747D01*
X69185Y33665D01*
X69103Y33558D01*
X69051Y33434D01*
X69048Y33409D01*
X68660D01*
X68276Y33793D01*
X68277Y33800D01*
X68260Y33923D01*
X68213Y34038D01*
X68137Y34137D01*
X68038Y34213D01*
X67923Y34260D01*
X67800Y34277D01*
X67725Y34267D01*
X67536Y34455D01*
X67555Y34501D01*
X68259D01*
Y34948D01*
X68262Y34970D01*
Y35426D01*
X68288Y35437D01*
X68387Y35513D01*
X68463Y35612D01*
X68510Y35727D01*
X68522Y35814D01*
X68525Y35837D01*
X68575D01*
X68578Y35814D01*
X68590Y35727D01*
X68637Y35612D01*
X68713Y35513D01*
X68812Y35437D01*
X68853Y35420D01*
Y35850D01*
Y36280D01*
X68812Y36263D01*
X68713Y36187D01*
X68637Y36088D01*
X68590Y35973D01*
X68578Y35886D01*
X68575Y35863D01*
X68525D01*
X68522Y35886D01*
X68510Y35973D01*
X68463Y36088D01*
X68387Y36187D01*
X68327Y36233D01*
Y36955D01*
X68315Y37041D01*
X68282Y37121D01*
X68229Y37189D01*
X67553Y37866D01*
X67572Y37912D01*
X68326D01*
X68385Y37835D01*
X68492Y37753D01*
X68616Y37701D01*
X68750Y37684D01*
X68884Y37701D01*
X69008Y37753D01*
X69115Y37835D01*
X69174Y37912D01*
X69425D01*
X69454Y37862D01*
X69449Y37853D01*
X69416Y37849D01*
X69292Y37797D01*
X69185Y37715D01*
X69103Y37608D01*
X69051Y37484D01*
X69034Y37350D01*
X69051Y37216D01*
X69103Y37092D01*
X69185Y36985D01*
X69292Y36903D01*
X69416Y36851D01*
X69550Y36834D01*
X69684Y36851D01*
X69808Y36903D01*
X69915Y36985D01*
X69997Y37092D01*
X70049Y37216D01*
X70066Y37350D01*
X70049Y37479D01*
X70114Y37545D01*
X70167Y37613D01*
X70200Y37693D01*
X70212Y37779D01*
Y37801D01*
X70349D01*
Y37912D01*
X70891D01*
Y37801D01*
D02*
G37*
G36*
X50000Y35631D02*
X49589D01*
Y35749D01*
X49486D01*
Y36051D01*
X49489D01*
Y36169D01*
X50000D01*
Y35631D01*
D02*
G37*
G36*
X67663Y36818D02*
Y36122D01*
X67637Y36088D01*
X67590Y35973D01*
X67573Y35850D01*
X67590Y35727D01*
X67604Y35693D01*
X67598Y35652D01*
Y35299D01*
X67461D01*
Y34595D01*
X67415Y34576D01*
X67357Y34634D01*
X67288Y34687D01*
X67208Y34720D01*
X67122Y34732D01*
X67000D01*
Y37416D01*
X67046Y37435D01*
X67663Y36818D01*
D02*
G37*
G36*
X71035Y30057D02*
X71034Y30050D01*
X71051Y29916D01*
X71103Y29792D01*
X71185Y29685D01*
X71292Y29603D01*
X71416Y29551D01*
X71490Y29542D01*
X71539Y29493D01*
Y29278D01*
X71503Y29231D01*
X71454Y29112D01*
X71451Y29092D01*
X71120D01*
X71098Y29089D01*
X70651D01*
Y28291D01*
X71449D01*
Y28428D01*
X71622D01*
X71623Y28429D01*
X71643Y28381D01*
X71582Y28334D01*
X71503Y28231D01*
X71482Y28180D01*
X71933D01*
X72384D01*
X72375Y28202D01*
X72413Y28241D01*
X73199D01*
Y28720D01*
X73249Y28730D01*
X73253Y28719D01*
X73332Y28616D01*
X73435Y28537D01*
X73542Y28493D01*
X73542Y28493D01*
Y28441D01*
X73542Y28441D01*
X73435Y28397D01*
X73332Y28318D01*
X73253Y28215D01*
X73204Y28095D01*
X73187Y27967D01*
X73204Y27838D01*
X73253Y27719D01*
X73332Y27616D01*
X73338Y27611D01*
X73335Y27588D01*
X73321Y27562D01*
X73199D01*
Y27699D01*
X72401D01*
Y27263D01*
X72351Y27246D01*
X72284Y27334D01*
X72181Y27413D01*
X72074Y27457D01*
X72074Y27457D01*
Y27509D01*
X72074Y27509D01*
X72181Y27553D01*
X72284Y27632D01*
X72363Y27735D01*
X72384Y27786D01*
X71933D01*
X71482D01*
X71483Y27785D01*
X71443Y27749D01*
X70651D01*
Y27612D01*
X70057D01*
X69971Y27600D01*
X69891Y27567D01*
X69823Y27514D01*
X69495Y27187D01*
X69449Y27206D01*
Y27749D01*
X69444D01*
Y27350D01*
X69050D01*
Y27024D01*
X68692D01*
X68651Y27018D01*
Y27018D01*
X68606Y27012D01*
X68526Y26979D01*
X68458Y26927D01*
X68110Y26579D01*
X68042Y26570D01*
X67962Y26537D01*
X67893Y26484D01*
X67875Y26467D01*
X67800Y26477D01*
X67677Y26460D01*
X67562Y26413D01*
X67463Y26337D01*
X67387Y26238D01*
X67340Y26123D01*
X67323Y26000D01*
X67340Y25877D01*
X67387Y25762D01*
X67463Y25663D01*
X67562Y25587D01*
X67677Y25540D01*
X67787Y25525D01*
Y25475D01*
X67677Y25460D01*
X67562Y25413D01*
X67484Y25353D01*
X67290D01*
X67028Y25615D01*
Y29500D01*
X67018Y29572D01*
X67000Y29617D01*
Y30095D01*
X67376D01*
X67718Y29753D01*
Y29512D01*
X67718Y29511D01*
X67685Y29431D01*
X67673Y29345D01*
Y28783D01*
X67613Y28737D01*
X67537Y28638D01*
X67490Y28523D01*
X67473Y28400D01*
X67486Y28302D01*
X67460Y28238D01*
X67448Y28152D01*
Y27749D01*
X67311D01*
Y26951D01*
X68109D01*
Y27398D01*
X68112Y27420D01*
Y27956D01*
X68188Y27987D01*
X68287Y28063D01*
X68363Y28162D01*
X68410Y28277D01*
X68422Y28364D01*
X68425Y28387D01*
X68475D01*
X68478Y28364D01*
X68490Y28277D01*
X68537Y28162D01*
X68613Y28063D01*
X68712Y27987D01*
X68753Y27970D01*
Y28400D01*
Y28830D01*
X68712Y28813D01*
X68613Y28737D01*
X68537Y28638D01*
X68490Y28523D01*
X68478Y28436D01*
X68475Y28413D01*
X68425D01*
X68422Y28436D01*
X68410Y28523D01*
X68363Y28638D01*
X68337Y28672D01*
Y29223D01*
X68337Y29224D01*
X68370Y29304D01*
X68382Y29390D01*
Y29890D01*
X68370Y29976D01*
X68342Y30045D01*
X68363Y30095D01*
X69002D01*
X69035Y30057D01*
X69034Y30050D01*
X69051Y29916D01*
X69103Y29792D01*
X69185Y29685D01*
X69292Y29603D01*
X69416Y29551D01*
X69550Y29534D01*
X69684Y29551D01*
X69808Y29603D01*
X69915Y29685D01*
X69997Y29792D01*
X70049Y29916D01*
X70066Y30050D01*
X70065Y30057D01*
X70098Y30095D01*
X71002D01*
X71035Y30057D01*
D02*
G37*
G36*
X74449Y25414D02*
X74438Y25359D01*
X74391Y25213D01*
X74327Y25074D01*
X74248Y24943D01*
X74154Y24822D01*
X74048Y24712D01*
X73929Y24615D01*
X73800Y24533D01*
X73663Y24465D01*
X73518Y24414D01*
X73369Y24380D01*
X73217Y24363D01*
X73140Y24363D01*
X73140Y24363D01*
X73140Y24363D01*
X67000D01*
Y24805D01*
X67050Y24829D01*
X67103Y24807D01*
X67175Y24797D01*
X67373D01*
X67387Y24762D01*
X67463Y24663D01*
X67562Y24587D01*
X67677Y24540D01*
X67800Y24523D01*
X67923Y24540D01*
X68038Y24587D01*
X68137Y24663D01*
X68213Y24762D01*
X68260Y24877D01*
X68277Y25000D01*
X68260Y25123D01*
X68213Y25238D01*
X68137Y25337D01*
X68038Y25413D01*
X67923Y25460D01*
X67813Y25475D01*
Y25525D01*
X67923Y25540D01*
X68038Y25587D01*
X68137Y25663D01*
X68213Y25762D01*
X68260Y25877D01*
X68266Y25919D01*
X68267Y25921D01*
X68336Y25930D01*
X68416Y25963D01*
X68484Y26016D01*
X68829Y26361D01*
X69170D01*
X69174Y26347D01*
X69182Y26311D01*
X69103Y26208D01*
X69051Y26084D01*
X69034Y25950D01*
X69051Y25816D01*
X69103Y25692D01*
X69185Y25585D01*
X69292Y25503D01*
X69416Y25451D01*
X69490Y25442D01*
X69708Y25224D01*
Y25120D01*
X69711Y25098D01*
Y24651D01*
X70509D01*
Y25449D01*
X70359D01*
X70327Y25527D01*
X70274Y25595D01*
X70049Y25821D01*
X70066Y25950D01*
X70049Y26084D01*
X69997Y26208D01*
X69915Y26315D01*
X69808Y26397D01*
X69741Y26425D01*
X69730Y26484D01*
X70194Y26948D01*
X70980D01*
X71002Y26951D01*
X71098D01*
X71120Y26948D01*
X71410D01*
X71446Y26913D01*
X71454Y26855D01*
X71503Y26735D01*
X71582Y26632D01*
X71685Y26553D01*
X71805Y26504D01*
X71933Y26487D01*
X72062Y26504D01*
X72181Y26553D01*
X72284Y26632D01*
X72363Y26735D01*
X72413Y26855D01*
X72419Y26901D01*
X72848D01*
X72870Y26898D01*
X73194D01*
X73196Y26897D01*
X73204Y26838D01*
X73253Y26719D01*
X73289Y26672D01*
Y26318D01*
X73253Y26282D01*
X71941D01*
X71915Y26315D01*
X71808Y26397D01*
X71684Y26449D01*
X71550Y26466D01*
X71416Y26449D01*
X71292Y26397D01*
X71185Y26315D01*
X71103Y26208D01*
X71051Y26084D01*
X71034Y25950D01*
X71051Y25816D01*
X71103Y25692D01*
X71168Y25607D01*
Y25449D01*
X71051D01*
Y24651D01*
X71849D01*
Y25449D01*
X71832D01*
Y25521D01*
X71915Y25585D01*
X71941Y25618D01*
X73390D01*
X73476Y25630D01*
X73556Y25663D01*
X73625Y25716D01*
X73855Y25946D01*
X73908Y26015D01*
X73941Y26095D01*
X73952Y26180D01*
Y26553D01*
X74034Y26616D01*
X74113Y26719D01*
X74163Y26838D01*
X74179Y26967D01*
X74163Y27095D01*
X74113Y27215D01*
X74034Y27318D01*
X73931Y27397D01*
X73824Y27441D01*
X73824Y27441D01*
Y27493D01*
X73824Y27493D01*
X73931Y27537D01*
X74034Y27616D01*
X74113Y27719D01*
X74163Y27838D01*
X74179Y27967D01*
X74163Y28095D01*
X74113Y28215D01*
X74034Y28318D01*
X73931Y28397D01*
X73824Y28441D01*
X73824Y28441D01*
Y28493D01*
X73824Y28493D01*
X73931Y28537D01*
X74034Y28616D01*
X74113Y28719D01*
X74134Y28770D01*
X73683D01*
Y28967D01*
X73486D01*
Y29418D01*
X73435Y29397D01*
X73332Y29318D01*
X73253Y29215D01*
X73204Y29095D01*
X73196Y29039D01*
X72422D01*
X72413Y29112D01*
X72363Y29231D01*
X72284Y29334D01*
X72202Y29397D01*
Y29630D01*
X72191Y29716D01*
X72158Y29796D01*
X72105Y29865D01*
X72049Y29921D01*
X72066Y30050D01*
X72065Y30057D01*
X72098Y30095D01*
X74449D01*
X74449Y25414D01*
D02*
G37*
G36*
X60418Y41810D02*
X60430Y41724D01*
X60463Y41644D01*
X60516Y41576D01*
X61000Y41091D01*
Y40200D01*
X59000D01*
Y37832D01*
X58981Y37787D01*
X58972Y37715D01*
Y37450D01*
Y36610D01*
X58981Y36538D01*
X59000Y36494D01*
Y35612D01*
X59855D01*
X60209Y35258D01*
X60190Y35212D01*
X60047D01*
Y34897D01*
X60362D01*
Y35040D01*
X60408Y35059D01*
X60472Y34995D01*
Y33715D01*
X60434Y33677D01*
X59000D01*
Y32291D01*
X58906Y32197D01*
X58862Y32139D01*
X58834Y32072D01*
X58824Y32000D01*
Y31000D01*
Y30288D01*
X58834Y30216D01*
X58862Y30149D01*
X58906Y30091D01*
X59000Y29997D01*
Y29000D01*
X59997D01*
X60289Y28708D01*
X60270Y28662D01*
X60047D01*
Y28347D01*
X60362D01*
Y28521D01*
X60412Y28547D01*
X60422Y28541D01*
Y27299D01*
X59000D01*
Y25516D01*
X58866Y25499D01*
X58742Y25447D01*
X58635Y25365D01*
X58553Y25258D01*
X58527Y25196D01*
X58473D01*
X58447Y25258D01*
X58365Y25365D01*
X58258Y25447D01*
X58134Y25499D01*
X58000Y25516D01*
Y40214D01*
X58143Y40357D01*
X58171Y40400D01*
X58181Y40450D01*
Y42337D01*
X60418D01*
Y41810D01*
D02*
G37*
%LPC*%
G36*
X70649Y45649D02*
X69851D01*
Y45202D01*
X69848Y45180D01*
Y44972D01*
X69785Y44908D01*
X69711Y44899D01*
X69587Y44847D01*
X69480Y44765D01*
X69398Y44658D01*
X69346Y44534D01*
X69328Y44400D01*
X69346Y44266D01*
X69398Y44142D01*
X69480Y44035D01*
X69587Y43953D01*
X69711Y43901D01*
X69845Y43884D01*
X69978Y43901D01*
X70103Y43953D01*
X70210Y44035D01*
X70292Y44142D01*
X70343Y44266D01*
X70361Y44400D01*
X70344Y44529D01*
X70414Y44600D01*
X70467Y44669D01*
X70500Y44749D01*
X70512Y44834D01*
Y44851D01*
X70649D01*
Y45649D01*
D02*
G37*
G36*
X68750Y44916D02*
X68616Y44899D01*
X68492Y44847D01*
X68385Y44765D01*
X68303Y44658D01*
X68251Y44534D01*
X68234Y44400D01*
X68251Y44266D01*
X68303Y44142D01*
X68385Y44035D01*
X68492Y43953D01*
X68616Y43901D01*
X68750Y43884D01*
X68884Y43901D01*
X69008Y43953D01*
X69115Y44035D01*
X69197Y44142D01*
X69249Y44266D01*
X69266Y44400D01*
X69249Y44534D01*
X69197Y44658D01*
X69115Y44765D01*
X69008Y44847D01*
X68884Y44899D01*
X68750Y44916D01*
D02*
G37*
G36*
X73847Y43851D02*
Y43597D01*
X74101D01*
X74080Y43648D01*
X74001Y43751D01*
X73898Y43830D01*
X73847Y43851D01*
D02*
G37*
G36*
X69247Y42780D02*
Y42547D01*
X69480D01*
X69463Y42588D01*
X69387Y42687D01*
X69288Y42763D01*
X69247Y42780D01*
D02*
G37*
G36*
X69480Y42153D02*
X69247D01*
Y41920D01*
X69288Y41937D01*
X69387Y42013D01*
X69463Y42112D01*
X69480Y42153D01*
D02*
G37*
G36*
X69649Y41749D02*
X69644D01*
Y41744D01*
X69649D01*
Y41749D01*
D02*
G37*
G36*
X68856D02*
X68851D01*
Y41744D01*
X68856D01*
Y41749D01*
D02*
G37*
G36*
X69649Y40956D02*
X69644D01*
Y40951D01*
X69649D01*
Y40956D01*
D02*
G37*
G36*
X68856D02*
X68851D01*
Y40951D01*
X68856D01*
Y40956D01*
D02*
G37*
G36*
X49355Y39521D02*
X49271Y39504D01*
X49199Y39456D01*
X49151Y39384D01*
X49134Y39300D01*
X49151Y39216D01*
X49199Y39144D01*
X49271Y39096D01*
X49355Y39079D01*
X49440Y39096D01*
X49511Y39144D01*
X49559Y39216D01*
X49576Y39300D01*
X49559Y39384D01*
X49511Y39456D01*
X49440Y39504D01*
X49355Y39521D01*
D02*
G37*
G36*
X45039Y39299D02*
Y39299D01*
X44571D01*
Y38801D01*
X45039D01*
Y38823D01*
X45065Y38844D01*
X45149Y38861D01*
X45221Y38909D01*
X45269Y38981D01*
X45285Y39065D01*
X45269Y39150D01*
X45221Y39221D01*
X45149Y39269D01*
X45082Y39282D01*
X45039Y39299D01*
X45039Y39299D01*
D02*
G37*
G36*
X73880Y36718D02*
Y36464D01*
X74134D01*
X74113Y36515D01*
X74034Y36618D01*
X73931Y36697D01*
X73880Y36718D01*
D02*
G37*
G36*
X69247Y36280D02*
Y36047D01*
X69480D01*
X69463Y36088D01*
X69387Y36187D01*
X69288Y36263D01*
X69247Y36280D01*
D02*
G37*
G36*
X69480Y35653D02*
X69247D01*
Y35420D01*
X69288Y35437D01*
X69387Y35513D01*
X69463Y35612D01*
X69480Y35653D01*
D02*
G37*
G36*
X69599Y35299D02*
X69594D01*
Y35294D01*
X69599D01*
Y35299D01*
D02*
G37*
G36*
X68806D02*
X68801D01*
Y35294D01*
X68806D01*
Y35299D01*
D02*
G37*
G36*
X69599Y34506D02*
X69594D01*
Y34501D01*
X69599D01*
Y34506D01*
D02*
G37*
G36*
X68806D02*
X68801D01*
Y34501D01*
X68806D01*
Y34506D01*
D02*
G37*
G36*
X69147Y28830D02*
Y28597D01*
X69380D01*
X69363Y28638D01*
X69287Y28737D01*
X69188Y28813D01*
X69147Y28830D01*
D02*
G37*
G36*
X69380Y28203D02*
X69147D01*
Y27970D01*
X69188Y27987D01*
X69287Y28063D01*
X69363Y28162D01*
X69380Y28203D01*
D02*
G37*
G36*
X68656Y27749D02*
X68651D01*
Y27744D01*
X68656D01*
Y27749D01*
D02*
G37*
G36*
X73880Y29418D02*
Y29164D01*
X74134D01*
X74113Y29215D01*
X74034Y29318D01*
X73931Y29397D01*
X73880Y29418D01*
D02*
G37*
G36*
X60362Y41812D02*
X60047D01*
Y41497D01*
X60362D01*
Y41812D01*
D02*
G37*
G36*
X59653D02*
X59338D01*
Y41497D01*
X59653D01*
Y41812D01*
D02*
G37*
G36*
X60362Y41103D02*
X60047D01*
Y40788D01*
X60362D01*
Y41103D01*
D02*
G37*
G36*
X59653D02*
X59338D01*
Y40788D01*
X59653D01*
Y41103D01*
D02*
G37*
G36*
Y35212D02*
X59338D01*
Y34897D01*
X59653D01*
Y35212D01*
D02*
G37*
G36*
X60362Y34503D02*
X60047D01*
Y34188D01*
X60362D01*
Y34503D01*
D02*
G37*
G36*
X59653D02*
X59338D01*
Y34188D01*
X59653D01*
Y34503D01*
D02*
G37*
G36*
Y28662D02*
X59338D01*
Y28347D01*
X59653D01*
Y28662D01*
D02*
G37*
G36*
X60362Y27953D02*
X60047D01*
Y27638D01*
X60362D01*
Y27953D01*
D02*
G37*
G36*
X59653D02*
X59338D01*
Y27638D01*
X59653D01*
Y27953D01*
D02*
G37*
%LPD*%
D10*
X42453Y40053D02*
X43150Y40750D01*
X42453Y33847D02*
Y40053D01*
Y33847D02*
X43500Y32800D01*
X42294Y40119D02*
X43175Y41000D01*
X42294Y33781D02*
Y40119D01*
Y33781D02*
X43434Y32641D01*
X42135Y40610D02*
X43101Y41576D01*
X42135Y31889D02*
Y40610D01*
X41250Y31004D02*
X42135Y31889D01*
X43150Y40750D02*
X45750D01*
X51100Y26600D02*
X51400D01*
X53000Y25000D01*
X55000Y25970D02*
X56029Y26999D01*
X57197D02*
X57549Y27351D01*
X56029Y26999D02*
X57197D01*
X57549Y27351D02*
Y28851D01*
X52000Y34400D02*
X57549Y28851D01*
X52000Y34400D02*
Y34670D01*
X51990Y35050D02*
X54900D01*
X51250Y35790D02*
Y36614D01*
X50736Y37128D02*
X51250Y36614D01*
X55000Y25000D02*
Y25970D01*
X57350Y39750D02*
X58050Y40450D01*
X49578Y37947D02*
Y38328D01*
X49540Y37909D02*
X49578Y37947D01*
X49540Y37862D02*
Y37909D01*
X49578Y38328D02*
X51000Y39750D01*
X57350D01*
X58050Y40450D02*
Y44882D01*
X63973Y32723D02*
X64000Y32750D01*
X63958Y32723D02*
X63973D01*
X47325Y40620D02*
X47364Y40580D01*
X47323D02*
X47364D01*
X47275Y40570D02*
X47345Y40500D01*
X47275Y40570D02*
X47325Y40620D01*
X47345Y40500D02*
X47349D01*
X49000Y40565D02*
Y40641D01*
X48404Y39970D02*
X49000Y40565D01*
X47424Y41576D02*
X48500Y40500D01*
X43101Y41576D02*
X47424D01*
X47323Y39970D02*
X48404D01*
X45355Y34950D02*
X46376D01*
X43175Y41000D02*
X44450D01*
X42922Y35000D02*
X44695D01*
X44745Y34950D01*
X43000Y34056D02*
Y34400D01*
X42997Y34053D02*
X43000Y34056D01*
X43434Y32641D02*
X44959D01*
X43500Y32800D02*
X45200D01*
X43000Y34400D02*
X44091D01*
X44450Y34041D01*
X45541D01*
X46376Y34876D01*
Y34950D01*
X46881Y35455D02*
X48250D01*
X46376Y34950D02*
X46881Y35455D01*
X48250D02*
X48295Y35500D01*
X48745D01*
X48645Y36300D02*
X48745Y36200D01*
Y35500D02*
Y36200D01*
X44820Y39065D02*
X45065D01*
X44805Y39050D02*
X44820Y39065D01*
X43250Y40010D02*
Y40250D01*
Y40010D02*
X44195Y39065D01*
Y39050D02*
Y39065D01*
X47895Y33105D02*
X48250Y33460D01*
Y34845D01*
X49255Y36300D02*
X50979D01*
X49255D02*
X49355Y36200D01*
Y35500D02*
Y36200D01*
Y35500D02*
X51000D01*
X47886Y43864D02*
X48250Y43500D01*
X47323Y43864D02*
X47886D01*
X46950Y44237D02*
X47323Y43864D01*
X46950Y44237D02*
Y44296D01*
X44959Y32641D02*
X45450Y32150D01*
Y29250D02*
Y32150D01*
X45200Y32800D02*
X45750Y32250D01*
Y29700D02*
Y32250D01*
Y29700D02*
X46200Y29250D01*
X46500Y31379D02*
Y33150D01*
X46881Y33091D02*
X46940Y33150D01*
X46950D01*
X46881Y31379D02*
Y33091D01*
X51250Y35790D02*
X51990Y35050D01*
X51250Y38000D02*
X51250Y38000D01*
X50979Y38000D02*
X51250D01*
X50875Y37895D02*
X50979Y38000D01*
X50875Y38505D02*
X51245D01*
X51250Y38500D01*
X43856Y25644D02*
X44200Y25300D01*
X43856Y25644D02*
Y26089D01*
X43800Y26145D02*
X43856Y26089D01*
X44745Y32350D02*
X45000Y32095D01*
Y31750D02*
Y32095D01*
X48774Y43500D02*
Y44271D01*
X48800Y44296D01*
X50600Y43500D02*
Y44346D01*
X53000Y43400D02*
Y43787D01*
X52500Y44287D02*
X53000Y43787D01*
X52500Y44287D02*
Y44346D01*
D37*
X44805Y39050D02*
D03*
X44195D02*
D03*
X49255Y36300D02*
D03*
X48645D02*
D03*
X49355Y35500D02*
D03*
X48745D02*
D03*
X44759Y35050D02*
D03*
X45370D02*
D03*
X48505Y29250D02*
D03*
X47895D02*
D03*
X52855Y36150D02*
D03*
X52245D02*
D03*
X52905Y38050D02*
D03*
X52295D02*
D03*
D39*
X48250Y34845D02*
D03*
Y35455D02*
D03*
X47323Y40580D02*
D03*
Y39970D02*
D03*
X43800Y26755D02*
D03*
Y26145D02*
D03*
X50875Y38505D02*
D03*
Y37895D02*
D03*
D40*
X71100Y34610D02*
D03*
Y35950D02*
D03*
X71050Y27350D02*
D03*
Y28690D02*
D03*
X65900Y28550D02*
D03*
Y29890D02*
D03*
X62450Y29800D02*
D03*
Y28460D02*
D03*
X64850Y28500D02*
D03*
Y29840D02*
D03*
X63550D02*
D03*
Y28500D02*
D03*
X65950Y34400D02*
D03*
Y35740D02*
D03*
X64800Y34410D02*
D03*
Y35750D02*
D03*
X62450Y35790D02*
D03*
Y34450D02*
D03*
X63600Y35790D02*
D03*
Y34450D02*
D03*
X65950Y40560D02*
D03*
Y41900D02*
D03*
X63450D02*
D03*
Y40560D02*
D03*
X64750D02*
D03*
Y41900D02*
D03*
X62350D02*
D03*
Y40560D02*
D03*
X72800Y28640D02*
D03*
Y27300D02*
D03*
X70900Y41760D02*
D03*
Y43100D02*
D03*
X72800Y35940D02*
D03*
Y34600D02*
D03*
X72750Y43050D02*
D03*
Y41710D02*
D03*
D41*
X72460Y32700D02*
D03*
X73800D02*
D03*
X72460Y31750D02*
D03*
X73800D02*
D03*
X72450Y30700D02*
D03*
X73790D02*
D03*
X71590Y45250D02*
D03*
X70250D02*
D03*
X72400Y38200D02*
D03*
X73740D02*
D03*
X72410Y39850D02*
D03*
X73750D02*
D03*
X71440Y31000D02*
D03*
X70100D02*
D03*
X71290Y32450D02*
D03*
X69950D02*
D03*
X69250Y41350D02*
D03*
X67910D02*
D03*
X69200Y34900D02*
D03*
X67860D02*
D03*
X71450Y25050D02*
D03*
X70110D02*
D03*
X69050Y27350D02*
D03*
X67710D02*
D03*
X55180Y40320D02*
D03*
X56520D02*
D03*
X72410Y39050D02*
D03*
X73750D02*
D03*
X71220Y39175D02*
D03*
X69880D02*
D03*
X71290Y38200D02*
D03*
X69950D02*
D03*
D44*
X45100Y44296D02*
D03*
Y42604D02*
D03*
X52500Y44346D02*
D03*
Y42654D02*
D03*
X50600Y44346D02*
D03*
Y42654D02*
D03*
X48800Y44296D02*
D03*
Y42604D02*
D03*
X46950Y44296D02*
D03*
Y42604D02*
D03*
D49*
X56197Y36100D02*
X56948D01*
X55295Y37003D02*
X56197Y36100D01*
X54947Y37003D02*
X55295D01*
X54900Y37050D02*
X54947Y37003D01*
D50*
X55000Y40750D02*
X55080Y40670D01*
Y40170D02*
Y40670D01*
X45125Y42629D02*
X52475D01*
X73795Y30705D02*
Y32695D01*
X73800Y32700D01*
X60000Y31750D02*
X61886D01*
X62394Y31243D01*
X63530D01*
X64637Y32350D01*
X64696D01*
X73532Y28904D02*
X73621D01*
X72876D02*
X73532D01*
X73595Y28967D01*
X73338Y28710D02*
X73532Y28904D01*
X71955Y27983D02*
X72876Y28904D01*
X73621D02*
X73683Y28967D01*
X71933Y27983D02*
X71955D01*
X44250Y42654D02*
X45050D01*
X45100Y42604D01*
X52475Y42629D02*
X52673Y42430D01*
X62430Y28480D02*
X63530D01*
X52750Y41605D02*
X53605Y40750D01*
X55000D01*
X52673Y41682D02*
X52750Y41605D01*
X52673Y41682D02*
Y42430D01*
X72405Y38205D02*
Y40790D01*
X63520Y41790D02*
X64750Y40560D01*
X72390Y32760D02*
X72455Y32695D01*
Y31750D02*
Y32695D01*
Y30705D02*
Y31750D01*
X63550Y29840D02*
X64780Y28610D01*
X64210Y35000D02*
X64800Y34410D01*
X63670Y35540D02*
X64210Y35000D01*
X66310Y40200D02*
X67272D01*
X72390Y32760D02*
Y33738D01*
X71933Y34195D02*
X72390Y33738D01*
X71933Y34195D02*
Y34283D01*
Y41262D02*
X72405Y40790D01*
X71933Y41262D02*
Y41350D01*
X73745Y38205D02*
Y39845D01*
X65900Y27036D02*
X66244Y26692D01*
X65900Y27036D02*
Y28550D01*
X68128Y26250D02*
X68250D01*
X67878Y26000D02*
X68128Y26250D01*
X67800Y26000D02*
X67878D01*
X68250Y26250D02*
X68692Y26692D01*
X69469D01*
X70057Y27280D01*
X70980D01*
X71050Y27350D01*
X68950Y28400D02*
X69000Y28350D01*
Y27400D02*
Y28350D01*
Y27400D02*
X69050Y27350D01*
X67950Y28322D02*
Y28400D01*
X67780Y28152D02*
X67950Y28322D01*
X67780Y27420D02*
Y28152D01*
X67710Y27350D02*
X67780Y27420D01*
X72455Y31750D02*
X72460D01*
X69458D02*
X72455D01*
X69166Y32043D02*
X69458Y31750D01*
X69166Y32043D02*
Y32434D01*
X67800Y33800D02*
X69166Y32434D01*
X70180Y45180D02*
X70250Y45250D01*
X70180Y44834D02*
Y45180D01*
X69845Y44499D02*
X70180Y44834D01*
X69845Y44400D02*
Y44499D01*
X71845Y44400D02*
X71889Y44356D01*
Y43394D02*
Y44356D01*
Y43394D02*
X71933Y43350D01*
X71660Y44684D02*
Y45180D01*
X71590Y45250D02*
X71660Y45180D01*
X71550Y40250D02*
X71649D01*
X71550Y40151D02*
Y40250D01*
X71290Y39891D02*
X71550Y40151D01*
X71290Y39245D02*
Y39891D01*
X71220Y39175D02*
X71290Y39245D01*
X73562Y41400D02*
X73650D01*
X73322Y41640D02*
X73562Y41400D01*
X72820Y41640D02*
X73322D01*
X72750Y41710D02*
X72820Y41640D01*
X60750Y41810D02*
X62000Y40560D01*
X60750Y41810D02*
Y43000D01*
X61509Y29091D02*
X61819D01*
X62430Y28480D01*
X60700Y29900D02*
X61509Y29091D01*
X67995Y35905D02*
Y36955D01*
Y35905D02*
X68050Y35850D01*
X66750Y38200D02*
X67995Y36955D01*
X62450Y43293D02*
Y44000D01*
Y43293D02*
X62743Y43000D01*
X66210D01*
X66680Y43470D01*
Y44330D01*
X66750Y44400D01*
X41200Y27600D02*
X42955D01*
X43800Y26755D01*
X64750Y41900D02*
X65950D01*
X71550Y37251D02*
Y37350D01*
Y37251D02*
X71871Y36930D01*
Y36346D02*
Y36930D01*
Y36346D02*
X71933Y36283D01*
X71550Y33300D02*
X71579Y33329D01*
X73390Y25950D02*
X73621Y26180D01*
Y26904D01*
X73683Y26967D01*
X71550Y25950D02*
X73390D01*
X67722Y33800D02*
X67800D01*
X67122Y34400D02*
X67722Y33800D01*
X65950Y34400D02*
X67122D01*
X65950Y40560D02*
X66310Y40200D01*
X45589Y43500D02*
Y43749D01*
X45100Y44237D02*
X45589Y43749D01*
X45100Y44237D02*
Y44296D01*
Y42604D02*
X45125Y42629D01*
X67722Y32800D02*
X67800D01*
X67272Y32350D02*
X67722Y32800D01*
X64696Y32350D02*
X67272D01*
X73740Y38200D02*
X73745Y38205D01*
Y39845D02*
X73750Y39850D01*
X72400Y38200D02*
X72405Y38205D01*
X73790Y30700D02*
X73795Y30705D01*
X72450Y30700D02*
X72455Y30705D01*
X73595Y28967D02*
X73683D01*
X72870Y28710D02*
X73338D01*
X72800Y28640D02*
X72870Y28710D01*
X73595Y26967D02*
X73683D01*
X73332Y27230D02*
X73595Y26967D01*
X72870Y27230D02*
X73332D01*
X72800Y27300D02*
X72870Y27230D01*
X71845Y26983D02*
X71933D01*
X71548Y27280D02*
X71845Y26983D01*
X71120Y27280D02*
X71548D01*
X71050Y27350D02*
X71120Y27280D01*
X70030Y30930D02*
X70100Y31000D01*
X70030Y30629D02*
Y30930D01*
X69550Y30149D02*
X70030Y30629D01*
X69550Y30050D02*
Y30149D01*
X71440Y31000D02*
X71495Y30945D01*
Y30105D02*
Y30945D01*
Y30105D02*
X71550Y30050D01*
Y29951D02*
Y30050D01*
Y29951D02*
X71871Y29630D01*
Y29046D02*
Y29630D01*
Y29046D02*
X71933Y28983D01*
X71845D02*
X71933D01*
X71622Y28760D02*
X71845Y28983D01*
X71120Y28760D02*
X71622D01*
X71050Y28690D02*
X71120Y28760D01*
X71500Y25900D02*
X71550Y25950D01*
X71500Y25100D02*
Y25900D01*
X71450Y25050D02*
X71500Y25100D01*
X70040Y25120D02*
X70110Y25050D01*
X70040Y25120D02*
Y25361D01*
X69550Y25851D02*
X70040Y25361D01*
X69550Y25851D02*
Y25950D01*
X64780Y28570D02*
X64850Y28500D01*
X64780Y28570D02*
Y28610D01*
X63530Y28480D02*
X63550Y28500D01*
X65875Y29865D02*
X65900Y29890D01*
X64875Y29865D02*
X65875D01*
X64850Y29840D02*
X64875Y29865D01*
X65875Y28525D02*
X65900Y28550D01*
X64875Y28525D02*
X65875D01*
X64850Y28500D02*
X64875Y28525D01*
X63530Y29820D02*
X63550Y29840D01*
X62470Y29820D02*
X63530D01*
X62450Y29800D02*
X62470Y29820D01*
X68050Y29390D02*
Y29890D01*
X68005Y29345D02*
X68050Y29390D01*
X68005Y28455D02*
Y29345D01*
X67950Y28400D02*
X68005Y28455D01*
X66750Y31190D02*
X68050Y29890D01*
X66750Y31190D02*
Y31250D01*
X67995Y42405D02*
Y43155D01*
Y42405D02*
X68050Y42350D01*
X66750Y44400D02*
X67995Y43155D01*
X68050Y42272D02*
Y42350D01*
X67980Y42202D02*
X68050Y42272D01*
X67980Y41420D02*
Y42202D01*
X67910Y41350D02*
X67980Y41420D01*
X69050Y42272D02*
Y42350D01*
Y42272D02*
X69180Y42142D01*
Y41420D02*
Y42142D01*
Y41420D02*
X69250Y41350D01*
X71360Y37639D02*
Y38130D01*
X71290Y38200D02*
X71360Y38130D01*
X69880D02*
X69950Y38200D01*
X69880Y37779D02*
Y38130D01*
X69550Y37449D02*
X69880Y37779D01*
X69550Y37350D02*
Y37449D01*
X68050Y35772D02*
Y35850D01*
X67930Y35652D02*
X68050Y35772D01*
X67930Y34970D02*
Y35652D01*
X67860Y34900D02*
X67930Y34970D01*
X69050Y35772D02*
Y35850D01*
Y35772D02*
X69130Y35692D01*
Y34970D02*
Y35692D01*
Y34970D02*
X69200Y34900D01*
X71360Y32520D02*
Y33011D01*
X71290Y32450D02*
X71360Y32520D01*
X69880D02*
X69950Y32450D01*
X69880Y32520D02*
Y32871D01*
X69550Y33201D02*
X69880Y32871D01*
X69550Y33201D02*
Y33300D01*
X73595Y34267D02*
X73683D01*
X73332Y34530D02*
X73595Y34267D01*
X72870Y34530D02*
X73332D01*
X72800Y34600D02*
X72870Y34530D01*
X73562Y43400D02*
X73650D01*
X73282Y43120D02*
X73562Y43400D01*
X72820Y43120D02*
X73282D01*
X72750Y43050D02*
X72820Y43120D01*
X71933Y35283D02*
X71996Y35346D01*
X72206D01*
X72800Y35940D01*
X73595Y36267D02*
X73683D01*
X73338Y36010D02*
X73595Y36267D01*
X72870Y36010D02*
X73338D01*
X72800Y35940D02*
X72870Y36010D01*
X71917Y34267D02*
X71933Y34283D01*
X71443Y34267D02*
X71917D01*
X71100Y34610D02*
X71443Y34267D01*
X71845Y36283D02*
X71933D01*
X71582Y36020D02*
X71845Y36283D01*
X71170Y36020D02*
X71582D01*
X71100Y35950D02*
X71170Y36020D01*
X72680Y42980D02*
X72750Y43050D01*
X72652Y42980D02*
X72680D01*
X72021Y42350D02*
X72652Y42980D01*
X71933Y42350D02*
X72021D01*
X70970Y43170D02*
X71665D01*
X70900Y43100D02*
X70970Y43170D01*
X71290Y41370D02*
X71913D01*
X71933Y41350D01*
X70900Y41760D02*
X71290Y41370D01*
X61512Y34938D02*
Y35610D01*
X60750Y36372D02*
X61512Y35610D01*
Y34938D02*
X62000Y34450D01*
X60750Y36372D02*
Y36450D01*
X62000Y34450D02*
X62450D01*
X63600D01*
X65945Y35745D02*
X65950Y35740D01*
X64805Y35745D02*
X65945D01*
X64800Y35750D02*
X64805Y35745D01*
X63600Y35790D02*
X63670Y35720D01*
Y35540D02*
Y35720D01*
X64800Y34410D02*
X64810Y34400D01*
X65950D01*
X62450Y35790D02*
X63600D01*
X63450Y41900D02*
X63520Y41830D01*
Y41790D02*
Y41830D01*
X64750Y40560D02*
X65950D01*
X62350D02*
X63450D01*
X62350Y41900D02*
X63450D01*
D51*
X63785Y32576D02*
X63958Y32750D01*
X63230Y32576D02*
X63785D01*
X63004Y32350D02*
X63230Y32576D01*
X51000Y34972D02*
Y35500D01*
X49578Y33550D02*
X51000Y34972D01*
X59250Y37450D02*
Y37715D01*
Y36610D02*
Y37450D01*
X60750D01*
X59102Y31000D02*
Y32000D01*
Y30288D02*
Y31000D01*
X59202Y30900D01*
X60700D01*
X59850Y26150D02*
X60700Y27000D01*
Y28690D01*
X59102Y30288D02*
X60700Y28690D01*
X59102Y32000D02*
X59802Y32700D01*
X59850D01*
X60750Y33600D01*
Y35110D01*
X59250Y36610D02*
X60750Y35110D01*
X59250Y37715D02*
X59811Y38276D01*
Y39261D01*
X59850Y39300D01*
X66372D02*
X67272Y40200D01*
X59850Y39300D02*
X66372D01*
X58500Y36050D02*
Y39950D01*
X59850Y41300D01*
X58500Y36050D02*
X59850Y34700D01*
X58250Y33100D02*
X59850Y34700D01*
X58250Y29750D02*
Y33100D01*
Y29750D02*
X59850Y28150D01*
X44500Y33150D02*
X45450D01*
X43900Y33750D02*
X44500Y33150D01*
X43856Y33750D02*
X43900D01*
X48250Y31429D02*
Y32450D01*
X48200Y31379D02*
X48250Y31429D01*
X69550Y40122D02*
Y40250D01*
Y40122D02*
X69757Y39915D01*
Y39298D02*
Y39915D01*
Y39298D02*
X69880Y39175D01*
X49005Y28750D02*
X49045D01*
X44550Y27600D02*
X47895D01*
X44000Y28150D02*
X44550Y27600D01*
X47895D02*
X49045Y28750D01*
X49600D01*
X48505Y29250D02*
X49005Y28750D01*
X63510Y40500D02*
X63897D01*
X63450Y40560D02*
X63510Y40500D01*
X49750Y28000D02*
X50150Y27600D01*
X56948D01*
X51750Y38050D02*
X52295D01*
X51750Y36219D02*
X51765Y36204D01*
X52191D01*
X52245Y36150D01*
X68750Y38200D02*
Y38225D01*
X67800Y39175D02*
X68750Y38225D01*
X67800Y39175D02*
Y39200D01*
Y32800D02*
X68660Y31940D01*
Y31340D02*
Y31940D01*
Y31340D02*
X68750Y31250D01*
X66250Y30000D02*
X66750Y29500D01*
Y25500D02*
Y29500D01*
Y25500D02*
X67175Y25075D01*
X67725D01*
X67800Y25000D01*
X66000Y29345D02*
Y29790D01*
X65900Y29890D02*
X66000Y29790D01*
Y41300D02*
Y41850D01*
X65950Y41900D02*
X66000Y41850D01*
X65875Y35050D02*
Y35665D01*
X65950Y35740D01*
D52*
X73650Y42400D02*
X74250Y41800D01*
Y39365D02*
Y41800D01*
X74135Y39250D02*
X74250Y39365D01*
X73950Y39250D02*
X74135D01*
X73750Y39050D02*
X73950Y39250D01*
X50450Y30750D02*
X50979D01*
X50054Y31146D02*
X50450Y30750D01*
X50054Y31146D02*
Y32450D01*
X54000Y36150D02*
X54900Y37050D01*
X52855Y36150D02*
X54000D01*
X47250Y28150D02*
Y28590D01*
X47895Y29235D01*
Y29250D01*
X52855Y36150D02*
X52880Y36175D01*
Y38025D01*
X52905Y38050D01*
D53*
X63550Y28500D02*
X63609Y28441D01*
X63923D01*
D54*
X56490Y40750D02*
X56500Y40760D01*
Y41576D01*
D55*
X56948Y36100D02*
D03*
X41200D02*
D03*
X56948Y42793D02*
D03*
X41200D02*
D03*
X56948Y27600D02*
D03*
X41200D02*
D03*
X56948Y34293D02*
D03*
X41200D02*
D03*
D56*
X73650Y42400D02*
D03*
Y43400D02*
D03*
Y41400D02*
D03*
X73683Y35267D02*
D03*
Y36267D02*
D03*
Y34267D02*
D03*
X71933Y27983D02*
D03*
Y26983D02*
D03*
Y28983D02*
D03*
Y42350D02*
D03*
Y41350D02*
D03*
Y43350D02*
D03*
Y35283D02*
D03*
Y34283D02*
D03*
Y36283D02*
D03*
X73683Y27967D02*
D03*
Y28967D02*
D03*
Y26967D02*
D03*
D57*
X68050Y42350D02*
D03*
X69050D02*
D03*
X60700Y29900D02*
D03*
Y30900D02*
D03*
X60750Y43000D02*
D03*
Y44000D02*
D03*
X52600Y45450D02*
D03*
X48600D02*
D03*
X50600D02*
D03*
X51600D02*
D03*
X49600D02*
D03*
X49200Y25300D02*
D03*
X45200D02*
D03*
X47200D02*
D03*
X48200D02*
D03*
X46200D02*
D03*
X67800Y39200D02*
D03*
Y40200D02*
D03*
Y32800D02*
D03*
Y33800D02*
D03*
X68050Y35850D02*
D03*
X69050D02*
D03*
X60750Y36450D02*
D03*
Y37450D02*
D03*
X67800Y25000D02*
D03*
Y26000D02*
D03*
X67950Y28400D02*
D03*
X68950D02*
D03*
X54900Y34050D02*
D03*
Y38050D02*
D03*
Y36050D02*
D03*
Y35050D02*
D03*
Y37050D02*
D03*
D58*
X59000Y25000D02*
D03*
X58000D02*
D03*
X56948D02*
D03*
X51000D02*
D03*
X56000D02*
D03*
X55000D02*
D03*
X59850Y39300D02*
D03*
X71550Y40250D02*
D03*
X69550D02*
D03*
X56948Y45400D02*
D03*
X68750Y31250D02*
D03*
X66750D02*
D03*
X68750Y38200D02*
D03*
X66750D02*
D03*
X68750Y44400D02*
D03*
X66750D02*
D03*
X71845D02*
D03*
X69845D02*
D03*
X71550Y37350D02*
D03*
X69550D02*
D03*
X54948Y44050D02*
D03*
X41250Y39400D02*
D03*
Y38400D02*
D03*
Y37400D02*
D03*
Y33150D02*
D03*
Y29900D02*
D03*
Y31004D02*
D03*
X52000Y25000D02*
D03*
X53000D02*
D03*
X54000D02*
D03*
X59850Y32700D02*
D03*
X71550Y33300D02*
D03*
X69550D02*
D03*
X59850Y26150D02*
D03*
X71550Y25950D02*
D03*
X69550D02*
D03*
X71550Y30050D02*
D03*
X69550D02*
D03*
D59*
X59850Y41300D02*
D03*
Y34700D02*
D03*
Y28150D02*
D03*
D60*
X56948Y44050D02*
D03*
D61*
X47600Y45450D02*
D03*
X44200Y25300D02*
D03*
D62*
X51750Y36219D02*
D03*
Y38050D02*
D03*
D63*
X54900Y39050D02*
D03*
D64*
X55100Y29078D02*
D03*
X49400Y31600D02*
D03*
X42922Y36100D02*
D03*
X43500Y36600D02*
D03*
X43300Y36100D02*
D03*
X43209Y37041D02*
D03*
X43200Y37500D02*
D03*
X42700Y37200D02*
D03*
X51500Y32376D02*
D03*
X51013Y32000D02*
D03*
X43539Y37700D02*
D03*
X51100Y26600D02*
D03*
X51479Y39158D02*
D03*
X52400Y33409D02*
D03*
X53000Y33800D02*
D03*
X51185Y39452D02*
D03*
X43240Y35752D02*
D03*
X49355Y39300D02*
D03*
X50736Y37128D02*
D03*
X51250Y37400D02*
D03*
X52173Y37336D02*
D03*
X52000Y34670D02*
D03*
X49540Y37862D02*
D03*
X56500Y41576D02*
D03*
X55000Y40750D02*
D03*
X58050Y44882D02*
D03*
X73740Y38200D02*
D03*
X73745Y39845D02*
D03*
X73790Y30700D02*
D03*
X73795Y32695D02*
D03*
X60000Y31750D02*
D03*
X48418Y37819D02*
D03*
X48812Y37032D02*
D03*
X48024Y38607D02*
D03*
X47631Y37819D02*
D03*
X48024Y37032D02*
D03*
X47631Y36245D02*
D03*
Y34670D02*
D03*
X47237Y38607D02*
D03*
X46843Y37819D02*
D03*
X47237Y37032D02*
D03*
X46843Y36245D02*
D03*
Y34670D02*
D03*
X46450Y38607D02*
D03*
X46056Y37819D02*
D03*
X46450Y37032D02*
D03*
X46056Y36245D02*
D03*
X46450Y35457D02*
D03*
X46056Y34670D02*
D03*
X45662Y38607D02*
D03*
X45269Y37819D02*
D03*
X45662Y37032D02*
D03*
X45269Y36245D02*
D03*
X45662Y35457D02*
D03*
X44875Y38607D02*
D03*
Y37032D02*
D03*
Y35457D02*
D03*
X49326Y38487D02*
D03*
X46500Y41300D02*
D03*
X43500D02*
D03*
X48645Y36300D02*
D03*
X64750Y38750D02*
D03*
X47349Y41021D02*
D03*
X46925Y40775D02*
D03*
X47349Y40500D02*
D03*
X63750Y38750D02*
D03*
X46500Y40500D02*
D03*
X49000Y40641D02*
D03*
X44250Y42654D02*
D03*
X52191Y43050D02*
D03*
X49578Y33550D02*
D03*
X52750Y41605D02*
D03*
X48500Y40500D02*
D03*
X64000Y32750D02*
D03*
X64210Y35000D02*
D03*
X63897Y34335D02*
D03*
X63750Y33409D02*
D03*
X46575Y40900D02*
D03*
X45500Y40500D02*
D03*
X46097Y41000D02*
D03*
X64750Y33400D02*
D03*
X42997Y34053D02*
D03*
X43856Y33750D02*
D03*
X42922Y35000D02*
D03*
X45450Y33150D02*
D03*
X44450Y41000D02*
D03*
X45065Y39065D02*
D03*
X43250Y40250D02*
D03*
X63250Y31700D02*
D03*
X64000Y41300D02*
D03*
X63897Y40500D02*
D03*
X65875Y43750D02*
D03*
X63250Y43704D02*
D03*
X62450Y44000D02*
D03*
X61750Y43000D02*
D03*
X62250Y30500D02*
D03*
X61750Y36731D02*
D03*
X50979Y30750D02*
D03*
X50054Y32450D02*
D03*
X45700Y34583D02*
D03*
X45335D02*
D03*
X45000Y34565D02*
D03*
X47895Y33105D02*
D03*
X50979Y36300D02*
D03*
X51000Y35500D02*
D03*
X48250Y32450D02*
D03*
X48200Y31379D02*
D03*
X48250Y43500D02*
D03*
X64750Y27500D02*
D03*
X63750Y27600D02*
D03*
X66244Y26692D02*
D03*
X63250Y37715D02*
D03*
X44000Y28150D02*
D03*
X49600Y28750D02*
D03*
X47250Y28150D02*
D03*
X66000Y29345D02*
D03*
X63923Y28441D02*
D03*
X65759Y31700D02*
D03*
X64210Y29250D02*
D03*
X66000Y37000D02*
D03*
X49750Y28000D02*
D03*
X45450Y29250D02*
D03*
X45750Y40750D02*
D03*
X46200Y29250D02*
D03*
X46500Y33150D02*
D03*
Y31379D02*
D03*
X46950Y33150D02*
D03*
X46881Y31379D02*
D03*
X51250Y38000D02*
D03*
Y38500D02*
D03*
X66000Y41300D02*
D03*
X65875Y35050D02*
D03*
X44745Y32350D02*
D03*
X45000Y31750D02*
D03*
X45589Y43500D02*
D03*
X48774D02*
D03*
X50600D02*
D03*
X53000Y43400D02*
D03*
D65*
X64696Y32350D02*
D03*
X63004D02*
D03*
M02*
