G04*
G04 #@! TF.GenerationSoftware,Altium Limited,Altium Designer,19.0.10 (269)*
G04*
G04 Layer_Color=8388736*
%FSLAX23Y23*%
%MOIN*%
G70*
G01*
G75*
%ADD14R,0.040X0.037*%
%ADD15R,0.070X0.070*%
%ADD16R,0.070X0.070*%
%ADD17O,0.077X0.018*%
%ADD18O,0.018X0.077*%
%ADD19R,0.037X0.040*%
%ADD20R,0.091X0.102*%
%ADD21R,0.049X0.067*%
%ADD22R,0.049X0.067*%
%ADD23R,0.142X0.067*%
%ADD24O,0.030X0.096*%
%ADD25C,0.104*%
%ADD26C,0.089*%
%ADD27C,0.085*%
%ADD28C,0.093*%
%ADD29R,0.093X0.093*%
%ADD30R,0.093X0.093*%
%ADD31R,0.085X0.085*%
%ADD32C,0.053*%
%ADD33R,0.085X0.085*%
%ADD34C,0.006*%
D14*
X5875Y4319D02*
D03*
Y4381D02*
D03*
X5940Y4320D02*
D03*
Y4381D02*
D03*
X4625Y3004D02*
D03*
Y3066D02*
D03*
X5160Y4399D02*
D03*
Y4461D02*
D03*
X5060Y4399D02*
D03*
Y4461D02*
D03*
X4960Y4394D02*
D03*
Y4456D02*
D03*
X4860Y4399D02*
D03*
Y4461D02*
D03*
X4480Y4161D02*
D03*
Y4099D02*
D03*
X4545Y4161D02*
D03*
Y4099D02*
D03*
X4905Y4069D02*
D03*
Y4131D02*
D03*
X4960Y3311D02*
D03*
Y3249D02*
D03*
X4825Y3311D02*
D03*
Y3249D02*
D03*
X4445Y2614D02*
D03*
Y2676D02*
D03*
X4286Y3009D02*
D03*
Y3070D02*
D03*
X4525Y2614D02*
D03*
Y2676D02*
D03*
X4625Y2619D02*
D03*
Y2681D02*
D03*
X4825D02*
D03*
Y2619D02*
D03*
X4725Y2681D02*
D03*
Y2619D02*
D03*
X4495Y3009D02*
D03*
Y3071D02*
D03*
D15*
X5800Y4406D02*
D03*
Y4540D02*
D03*
X5876D02*
D03*
Y4406D02*
D03*
X4405Y3110D02*
D03*
Y2976D02*
D03*
D16*
X5515Y4155D02*
D03*
X5649D02*
D03*
X5834Y3174D02*
D03*
X5700D02*
D03*
X5834Y3254D02*
D03*
X5700D02*
D03*
X4616Y4445D02*
D03*
X4750D02*
D03*
X4521Y4550D02*
D03*
X4655D02*
D03*
X4749Y4350D02*
D03*
X4615D02*
D03*
D17*
X5005Y3457D02*
D03*
Y3476D02*
D03*
Y3496D02*
D03*
Y3516D02*
D03*
Y3535D02*
D03*
Y3555D02*
D03*
Y3575D02*
D03*
Y3594D02*
D03*
Y3614D02*
D03*
Y3634D02*
D03*
Y3653D02*
D03*
Y3673D02*
D03*
Y3693D02*
D03*
Y3712D02*
D03*
Y3732D02*
D03*
Y3752D02*
D03*
Y3771D02*
D03*
Y3791D02*
D03*
Y3811D02*
D03*
Y3831D02*
D03*
Y3850D02*
D03*
Y3870D02*
D03*
Y3890D02*
D03*
Y3909D02*
D03*
Y3929D02*
D03*
X4411D02*
D03*
Y3909D02*
D03*
Y3890D02*
D03*
Y3870D02*
D03*
Y3850D02*
D03*
Y3831D02*
D03*
Y3811D02*
D03*
Y3791D02*
D03*
Y3771D02*
D03*
Y3752D02*
D03*
Y3732D02*
D03*
Y3712D02*
D03*
Y3693D02*
D03*
Y3673D02*
D03*
Y3653D02*
D03*
Y3634D02*
D03*
Y3614D02*
D03*
Y3594D02*
D03*
Y3575D02*
D03*
Y3555D02*
D03*
Y3535D02*
D03*
Y3516D02*
D03*
Y3496D02*
D03*
Y3476D02*
D03*
Y3457D02*
D03*
D18*
X4944Y3990D02*
D03*
X4924D02*
D03*
X4905D02*
D03*
X4885D02*
D03*
X4865D02*
D03*
X4846D02*
D03*
X4826D02*
D03*
X4806D02*
D03*
X4787D02*
D03*
X4767D02*
D03*
X4747D02*
D03*
X4727D02*
D03*
X4708D02*
D03*
X4688D02*
D03*
X4668D02*
D03*
X4649D02*
D03*
X4629D02*
D03*
X4609D02*
D03*
X4590D02*
D03*
X4570D02*
D03*
X4550D02*
D03*
X4531D02*
D03*
X4511D02*
D03*
X4491D02*
D03*
X4472D02*
D03*
Y3396D02*
D03*
X4491D02*
D03*
X4511D02*
D03*
X4531D02*
D03*
X4550D02*
D03*
X4570D02*
D03*
X4590D02*
D03*
X4609D02*
D03*
X4629D02*
D03*
X4649D02*
D03*
X4668D02*
D03*
X4688D02*
D03*
X4708D02*
D03*
X4727D02*
D03*
X4747D02*
D03*
X4767D02*
D03*
X4787D02*
D03*
X4806D02*
D03*
X4826D02*
D03*
X4846D02*
D03*
X4865D02*
D03*
X4885D02*
D03*
X4905D02*
D03*
X4924D02*
D03*
X4944D02*
D03*
D19*
X4426Y4030D02*
D03*
X4364D02*
D03*
X5606Y4075D02*
D03*
X5544D02*
D03*
X4343Y3448D02*
D03*
X4282D02*
D03*
X5666Y3895D02*
D03*
X5604D02*
D03*
D20*
X5100Y2905D02*
D03*
Y3075D02*
D03*
D21*
X4729Y2872D02*
D03*
D22*
X4820D02*
D03*
X4911D02*
D03*
D23*
X4820Y3138D02*
D03*
D24*
X6575Y3114D02*
D03*
X6525D02*
D03*
X6475D02*
D03*
X6425D02*
D03*
X6375D02*
D03*
X6325D02*
D03*
X6275D02*
D03*
X6225D02*
D03*
X6575Y2755D02*
D03*
X6525D02*
D03*
X6475D02*
D03*
X6425D02*
D03*
X6375D02*
D03*
X6325D02*
D03*
X6275D02*
D03*
X6225D02*
D03*
X6575Y3699D02*
D03*
X6525D02*
D03*
X6475D02*
D03*
X6425D02*
D03*
X6375D02*
D03*
X6325D02*
D03*
X6275D02*
D03*
X6225D02*
D03*
X6575Y3341D02*
D03*
X6525D02*
D03*
X6475D02*
D03*
X6425D02*
D03*
X6375D02*
D03*
X6325D02*
D03*
X6275D02*
D03*
X6225D02*
D03*
X6575Y4279D02*
D03*
X6525D02*
D03*
X6475D02*
D03*
X6425D02*
D03*
X6375D02*
D03*
X6325D02*
D03*
X6275D02*
D03*
X6225D02*
D03*
X6575Y3921D02*
D03*
X6525D02*
D03*
X6475D02*
D03*
X6425D02*
D03*
X6375D02*
D03*
X6325D02*
D03*
X6275D02*
D03*
X6225D02*
D03*
D25*
X5695Y3610D02*
D03*
X4120D02*
D03*
X5695Y4279D02*
D03*
X4120D02*
D03*
X5695Y2760D02*
D03*
X4120D02*
D03*
X5695Y3429D02*
D03*
X4120D02*
D03*
D26*
X7365Y4240D02*
D03*
Y4340D02*
D03*
Y4140D02*
D03*
X7368Y3527D02*
D03*
Y3627D02*
D03*
Y3427D02*
D03*
X7193Y2798D02*
D03*
Y2698D02*
D03*
Y2898D02*
D03*
Y4235D02*
D03*
Y4135D02*
D03*
Y4335D02*
D03*
Y3528D02*
D03*
Y3428D02*
D03*
Y3628D02*
D03*
X7368Y2797D02*
D03*
Y2897D02*
D03*
Y2697D02*
D03*
D27*
X6805Y4235D02*
D03*
X6905D02*
D03*
X6070Y2990D02*
D03*
Y3090D02*
D03*
X6075Y4300D02*
D03*
Y4400D02*
D03*
X5260Y4545D02*
D03*
X4860D02*
D03*
X5060D02*
D03*
X5160D02*
D03*
X4960D02*
D03*
X4920Y2530D02*
D03*
X4520D02*
D03*
X4720D02*
D03*
X4820D02*
D03*
X4620D02*
D03*
X6780Y3920D02*
D03*
Y4020D02*
D03*
Y3280D02*
D03*
Y3380D02*
D03*
X6805Y3585D02*
D03*
X6905D02*
D03*
X6075Y3645D02*
D03*
Y3745D02*
D03*
X6780Y2500D02*
D03*
Y2600D02*
D03*
X6795Y2840D02*
D03*
X6895D02*
D03*
X5490Y3405D02*
D03*
Y3805D02*
D03*
Y3605D02*
D03*
Y3505D02*
D03*
Y3705D02*
D03*
D28*
X5900Y2500D02*
D03*
X5800D02*
D03*
X5695D02*
D03*
X5100D02*
D03*
X5600D02*
D03*
X5500D02*
D03*
X5985Y3930D02*
D03*
X7155Y4025D02*
D03*
X6955D02*
D03*
X5695Y4540D02*
D03*
X6875Y3125D02*
D03*
X6675D02*
D03*
X6875Y3820D02*
D03*
X6675D02*
D03*
X6875Y4440D02*
D03*
X6675D02*
D03*
X7184D02*
D03*
X6984D02*
D03*
X7155Y3735D02*
D03*
X6955D02*
D03*
X5495Y4405D02*
D03*
X4125Y3940D02*
D03*
Y3840D02*
D03*
Y3740D02*
D03*
Y3315D02*
D03*
Y2990D02*
D03*
Y3100D02*
D03*
X5200Y2500D02*
D03*
X5300D02*
D03*
X5400D02*
D03*
X5985Y3270D02*
D03*
X7155Y3330D02*
D03*
X6955D02*
D03*
X5985Y2615D02*
D03*
X7155Y2595D02*
D03*
X6955D02*
D03*
X7155Y3005D02*
D03*
X6955D02*
D03*
D29*
X5985Y4130D02*
D03*
Y3470D02*
D03*
Y2815D02*
D03*
D30*
X5695Y4405D02*
D03*
D31*
X4760Y4545D02*
D03*
X4420Y2530D02*
D03*
D32*
X5175Y3622D02*
D03*
Y3805D02*
D03*
D33*
X5490Y3905D02*
D03*
D34*
X6448Y2559D02*
D03*
Y4488D02*
D03*
X4164Y2559D02*
D03*
Y4488D02*
D03*
M02*
