G04*
G04 #@! TF.GenerationSoftware,Altium Limited,Altium Designer,19.0.10 (269)*
G04*
G04 Layer_Color=8388736*
%FSLAX24Y24*%
%MOIN*%
G70*
G01*
G75*
%ADD15R,0.0369X0.0399*%
%ADD16R,0.0531X0.0531*%
%ADD17R,0.0399X0.0369*%
%ADD18R,0.0699X0.0699*%
%ADD19R,0.0699X0.0699*%
%ADD20O,0.0768X0.0177*%
%ADD21O,0.0177X0.0768*%
%ADD22R,0.0906X0.1024*%
%ADD23R,0.0492X0.0669*%
%ADD24R,0.0492X0.0669*%
%ADD25R,0.1417X0.0669*%
%ADD26O,0.0295X0.0965*%
%ADD27C,0.1043*%
%ADD28C,0.0886*%
%ADD29C,0.0846*%
%ADD30C,0.0925*%
%ADD31R,0.0925X0.0925*%
%ADD32R,0.0925X0.0925*%
%ADD33R,0.0846X0.0846*%
%ADD34C,0.0531*%
%ADD35R,0.0846X0.0846*%
%ADD36C,0.0059*%
D15*
X52205Y26100D02*
D03*
X51595D02*
D03*
X52205Y27100D02*
D03*
X51595D02*
D03*
X54505Y31004D02*
D03*
X53895D02*
D03*
X55118Y30200D02*
D03*
X54508D02*
D03*
X55705Y29445D02*
D03*
X55095D02*
D03*
X56505Y28684D02*
D03*
X55895D02*
D03*
X44255Y40300D02*
D03*
X43645D02*
D03*
X56055Y40750D02*
D03*
X55445D02*
D03*
X43427Y34477D02*
D03*
X42817D02*
D03*
X56655Y38950D02*
D03*
X56045D02*
D03*
D16*
X50187Y26100D02*
D03*
X51013D02*
D03*
X54434Y28603D02*
D03*
X55260D02*
D03*
X53587Y29418D02*
D03*
X54413D02*
D03*
X53000Y30200D02*
D03*
X53827D02*
D03*
X52387Y31030D02*
D03*
X53213D02*
D03*
X50187Y27100D02*
D03*
X51013D02*
D03*
D17*
X58750Y43195D02*
D03*
Y43805D02*
D03*
X59400Y43200D02*
D03*
Y43810D02*
D03*
X46250Y30045D02*
D03*
Y30655D02*
D03*
X51600Y43995D02*
D03*
Y44605D02*
D03*
X50600Y43995D02*
D03*
Y44605D02*
D03*
X49600Y43945D02*
D03*
Y44555D02*
D03*
X48600Y43995D02*
D03*
Y44605D02*
D03*
X44800Y41605D02*
D03*
Y40995D02*
D03*
X45450Y41605D02*
D03*
Y40995D02*
D03*
X49050Y40695D02*
D03*
Y41305D02*
D03*
X49600Y33105D02*
D03*
Y32495D02*
D03*
X48250Y33105D02*
D03*
Y32495D02*
D03*
X44450Y26145D02*
D03*
Y26755D02*
D03*
X42862Y30090D02*
D03*
Y30700D02*
D03*
X45250Y26145D02*
D03*
Y26755D02*
D03*
X46250Y26195D02*
D03*
Y26805D02*
D03*
X48250D02*
D03*
Y26195D02*
D03*
X47250Y26805D02*
D03*
Y26195D02*
D03*
X44950Y30095D02*
D03*
Y30705D02*
D03*
D18*
X58000Y44060D02*
D03*
Y45400D02*
D03*
X58755D02*
D03*
Y44060D02*
D03*
X44050Y31100D02*
D03*
Y29760D02*
D03*
D19*
X55150Y41550D02*
D03*
X56490D02*
D03*
X58340Y31745D02*
D03*
X57000D02*
D03*
X58340Y32545D02*
D03*
X57000D02*
D03*
X46160Y44450D02*
D03*
X47500D02*
D03*
X45210Y45500D02*
D03*
X46550D02*
D03*
X47490Y43500D02*
D03*
X46150D02*
D03*
D20*
X50050Y34565D02*
D03*
Y34762D02*
D03*
Y34959D02*
D03*
Y35156D02*
D03*
Y35353D02*
D03*
Y35550D02*
D03*
Y35746D02*
D03*
Y35943D02*
D03*
Y36140D02*
D03*
Y36337D02*
D03*
Y36534D02*
D03*
Y36731D02*
D03*
Y36928D02*
D03*
Y37124D02*
D03*
Y37321D02*
D03*
Y37518D02*
D03*
Y37715D02*
D03*
Y37912D02*
D03*
Y38109D02*
D03*
Y38306D02*
D03*
Y38502D02*
D03*
Y38699D02*
D03*
Y38896D02*
D03*
Y39093D02*
D03*
Y39290D02*
D03*
X44106D02*
D03*
Y39093D02*
D03*
Y38896D02*
D03*
Y38699D02*
D03*
Y38502D02*
D03*
Y38306D02*
D03*
Y38109D02*
D03*
Y37912D02*
D03*
Y37715D02*
D03*
Y37518D02*
D03*
Y37321D02*
D03*
Y37124D02*
D03*
Y36928D02*
D03*
Y36731D02*
D03*
Y36534D02*
D03*
Y36337D02*
D03*
Y36140D02*
D03*
Y35943D02*
D03*
Y35746D02*
D03*
Y35550D02*
D03*
Y35353D02*
D03*
Y35156D02*
D03*
Y34959D02*
D03*
Y34762D02*
D03*
Y34565D02*
D03*
D21*
X49440Y39900D02*
D03*
X49243D02*
D03*
X49046D02*
D03*
X48850D02*
D03*
X48653D02*
D03*
X48456D02*
D03*
X48259D02*
D03*
X48062D02*
D03*
X47865D02*
D03*
X47668D02*
D03*
X47472D02*
D03*
X47275D02*
D03*
X47078D02*
D03*
X46881D02*
D03*
X46684D02*
D03*
X46487D02*
D03*
X46291D02*
D03*
X46094D02*
D03*
X45897D02*
D03*
X45700D02*
D03*
X45503D02*
D03*
X45306D02*
D03*
X45109D02*
D03*
X44913D02*
D03*
X44716D02*
D03*
Y33955D02*
D03*
X44913D02*
D03*
X45109D02*
D03*
X45306D02*
D03*
X45503D02*
D03*
X45700D02*
D03*
X45897D02*
D03*
X46094D02*
D03*
X46291D02*
D03*
X46487D02*
D03*
X46684D02*
D03*
X46881D02*
D03*
X47078D02*
D03*
X47275D02*
D03*
X47472D02*
D03*
X47668D02*
D03*
X47865D02*
D03*
X48062D02*
D03*
X48259D02*
D03*
X48456D02*
D03*
X48653D02*
D03*
X48850D02*
D03*
X49046D02*
D03*
X49243D02*
D03*
X49440D02*
D03*
D22*
X51000Y29054D02*
D03*
Y30746D02*
D03*
D23*
X47294Y28721D02*
D03*
D24*
X48200D02*
D03*
X49106D02*
D03*
D25*
X48200Y31379D02*
D03*
D26*
X65750Y31136D02*
D03*
X65250D02*
D03*
X64750D02*
D03*
X64250D02*
D03*
X63750D02*
D03*
X63250D02*
D03*
X62750D02*
D03*
X62250D02*
D03*
X65750Y27554D02*
D03*
X65250D02*
D03*
X64750D02*
D03*
X64250D02*
D03*
X63750D02*
D03*
X63250D02*
D03*
X62750D02*
D03*
X62250D02*
D03*
X65750Y36991D02*
D03*
X65250D02*
D03*
X64750D02*
D03*
X64250D02*
D03*
X63750D02*
D03*
X63250D02*
D03*
X62750D02*
D03*
X62250D02*
D03*
X65750Y33409D02*
D03*
X65250D02*
D03*
X64750D02*
D03*
X64250D02*
D03*
X63750D02*
D03*
X63250D02*
D03*
X62750D02*
D03*
X62250D02*
D03*
X65750Y42793D02*
D03*
X65250D02*
D03*
X64750D02*
D03*
X64250D02*
D03*
X63750D02*
D03*
X63250D02*
D03*
X62750D02*
D03*
X62250D02*
D03*
X65750Y39210D02*
D03*
X65250D02*
D03*
X64750D02*
D03*
X64250D02*
D03*
X63750D02*
D03*
X63250D02*
D03*
X62750D02*
D03*
X62250D02*
D03*
D27*
X56948Y36100D02*
D03*
X41200D02*
D03*
X56948Y42793D02*
D03*
X41200D02*
D03*
X56948Y27600D02*
D03*
X41200D02*
D03*
X56948Y34293D02*
D03*
X41200D02*
D03*
D28*
X73650Y42400D02*
D03*
Y43400D02*
D03*
Y41400D02*
D03*
X73683Y35267D02*
D03*
Y36267D02*
D03*
Y34267D02*
D03*
X71933Y27983D02*
D03*
Y26983D02*
D03*
Y28983D02*
D03*
Y42350D02*
D03*
Y41350D02*
D03*
Y43350D02*
D03*
Y35283D02*
D03*
Y34283D02*
D03*
Y36283D02*
D03*
X73683Y27967D02*
D03*
Y28967D02*
D03*
Y26967D02*
D03*
D29*
X68050Y42350D02*
D03*
X69050D02*
D03*
X60700Y29900D02*
D03*
Y30900D02*
D03*
X60750Y43000D02*
D03*
Y44000D02*
D03*
X52600Y45450D02*
D03*
X48600D02*
D03*
X50600D02*
D03*
X51600D02*
D03*
X49600D02*
D03*
X49200Y25300D02*
D03*
X45200D02*
D03*
X47200D02*
D03*
X48200D02*
D03*
X46200D02*
D03*
X67800Y39200D02*
D03*
Y40200D02*
D03*
Y32800D02*
D03*
Y33800D02*
D03*
X68050Y35850D02*
D03*
X69050D02*
D03*
X60750Y36450D02*
D03*
Y37450D02*
D03*
X67800Y25000D02*
D03*
Y26000D02*
D03*
X67950Y28400D02*
D03*
X68950D02*
D03*
X54900Y34050D02*
D03*
Y38050D02*
D03*
Y36050D02*
D03*
Y35050D02*
D03*
Y37050D02*
D03*
D30*
X59000Y25000D02*
D03*
X58000D02*
D03*
X56948D02*
D03*
X51000D02*
D03*
X56000D02*
D03*
X55000D02*
D03*
X59850Y39300D02*
D03*
X71550Y40250D02*
D03*
X69550D02*
D03*
X56948Y45400D02*
D03*
X68750Y31250D02*
D03*
X66750D02*
D03*
X68750Y38200D02*
D03*
X66750D02*
D03*
X68750Y44400D02*
D03*
X66750D02*
D03*
X71845D02*
D03*
X69845D02*
D03*
X71550Y37350D02*
D03*
X69550D02*
D03*
X54948Y44050D02*
D03*
X41250Y39400D02*
D03*
Y38400D02*
D03*
Y37400D02*
D03*
Y33150D02*
D03*
Y29900D02*
D03*
Y31004D02*
D03*
X52000Y25000D02*
D03*
X53000D02*
D03*
X54000D02*
D03*
X59850Y32700D02*
D03*
X71550Y33300D02*
D03*
X69550D02*
D03*
X59850Y26150D02*
D03*
X71550Y25950D02*
D03*
X69550D02*
D03*
X71550Y30050D02*
D03*
X69550D02*
D03*
D31*
X59850Y41300D02*
D03*
Y34700D02*
D03*
Y28150D02*
D03*
D32*
X56948Y44050D02*
D03*
D33*
X47600Y45450D02*
D03*
X44200Y25300D02*
D03*
D34*
X51750Y36219D02*
D03*
Y38050D02*
D03*
D35*
X54900Y39050D02*
D03*
D36*
X64476Y25591D02*
D03*
Y44882D02*
D03*
X41642Y25591D02*
D03*
Y44882D02*
D03*
M02*
