G04*
G04 #@! TF.GenerationSoftware,Altium Limited,Altium Designer,19.0.10 (269)*
G04*
G04 Layer_Color=65535*
%FSLAX23Y23*%
%MOIN*%
G70*
G01*
G75*
%ADD10C,0.010*%
%ADD11C,0.010*%
%ADD12C,0.024*%
%ADD13C,0.008*%
D10*
X6955Y4235D02*
G03*
X6955Y4235I-100J0D01*
G01*
X5985Y4180D02*
G03*
X5985Y3880I0J-150D01*
G01*
D02*
G03*
X5985Y4180I0J150D01*
G01*
X6170Y3040D02*
G03*
X6170Y3040I-100J0D01*
G01*
X6175Y4350D02*
G03*
X6175Y4350I-100J0D01*
G01*
X7912Y2799D02*
G03*
X7912Y2799I-69J0D01*
G01*
Y4235D02*
G03*
X7912Y4235I-69J0D01*
G01*
Y3529D02*
G03*
X7912Y3529I-69J0D01*
G01*
X5745Y4405D02*
G03*
X5445Y4405I-150J0D01*
G01*
D02*
G03*
X5745Y4405I150J0D01*
G01*
X6880Y3970D02*
G03*
X6880Y3970I-100J0D01*
G01*
Y3330D02*
G03*
X6880Y3330I-100J0D01*
G01*
X6955Y3585D02*
G03*
X6955Y3585I-100J0D01*
G01*
X5985Y3520D02*
G03*
X5985Y3220I0J-150D01*
G01*
D02*
G03*
X5985Y3520I0J150D01*
G01*
X6175Y3695D02*
G03*
X6175Y3695I-100J0D01*
G01*
X6880Y2550D02*
G03*
X6880Y2550I-100J0D01*
G01*
X6945Y2840D02*
G03*
X6945Y2840I-100J0D01*
G01*
X5985Y2865D02*
G03*
X5985Y2565I0J-150D01*
G01*
D02*
G03*
X5985Y2865I0J150D01*
G01*
X7105Y3975D02*
Y4075D01*
X7005Y4025D02*
X7105Y3975D01*
X7005Y4025D02*
X7105Y4075D01*
X7005Y3975D02*
Y4075D01*
X7961Y2592D02*
Y3005D01*
X7706Y2592D02*
Y3007D01*
X7371Y2592D02*
Y3005D01*
X7222Y2809D02*
X7371D01*
X7843Y2692D02*
Y2899D01*
Y2799D02*
Y2801D01*
X7371Y2592D02*
X7961D01*
X7371Y3005D02*
X7961D01*
X7755Y2799D02*
X7928D01*
X7222Y2686D02*
X7371D01*
X7222Y2708D02*
X7371D01*
X7222Y2787D02*
X7371D01*
X7222Y2887D02*
X7371D01*
X7222Y2909D02*
X7371D01*
X7962Y2675D02*
Y2677D01*
Y2685D01*
X6825Y3075D02*
Y3175D01*
X6725Y3125D02*
X6825Y3075D01*
X6725Y3125D02*
X6825Y3175D01*
X6725Y3075D02*
Y3175D01*
X6825Y3770D02*
Y3870D01*
X6725Y3820D02*
X6825Y3770D01*
X6725Y3820D02*
X6825Y3870D01*
X6725Y3770D02*
Y3870D01*
X6825Y4390D02*
Y4490D01*
X6725Y4440D02*
X6825Y4390D01*
X6725Y4440D02*
X6825Y4490D01*
X6725Y4390D02*
Y4490D01*
X7134Y4390D02*
Y4490D01*
X7034Y4440D02*
X7134Y4390D01*
X7034Y4440D02*
X7134Y4490D01*
X7034Y4390D02*
Y4490D01*
X7105Y3685D02*
Y3785D01*
X7005Y3735D02*
X7105Y3685D01*
X7005Y3735D02*
X7105Y3785D01*
X7005Y3685D02*
Y3785D01*
X7961Y4029D02*
Y4442D01*
X7706Y4029D02*
Y4444D01*
X7371Y4029D02*
Y4442D01*
X7222Y4245D02*
X7371D01*
X7843Y4129D02*
Y4336D01*
Y4235D02*
Y4237D01*
X7371Y4029D02*
X7961D01*
X7371Y4442D02*
X7961D01*
X7755Y4235D02*
X7928D01*
X7222Y4123D02*
X7371D01*
X7222Y4145D02*
X7371D01*
X7222Y4224D02*
X7371D01*
X7222Y4324D02*
X7371D01*
X7222Y4346D02*
X7371D01*
X7962Y4111D02*
Y4113D01*
Y4121D01*
X7961Y3322D02*
Y3735D01*
X7706Y3322D02*
Y3737D01*
X7371Y3322D02*
Y3735D01*
X7222Y3539D02*
X7371D01*
X7843Y3422D02*
Y3629D01*
Y3529D02*
Y3531D01*
X7371Y3322D02*
X7961D01*
X7371Y3735D02*
X7961D01*
X7755Y3529D02*
X7928D01*
X7222Y3416D02*
X7371D01*
X7222Y3438D02*
X7371D01*
X7222Y3517D02*
X7371D01*
X7222Y3617D02*
X7371D01*
X7222Y3639D02*
X7371D01*
X7962Y3405D02*
Y3407D01*
Y3415D01*
X7105Y3280D02*
Y3380D01*
X7005Y3330D02*
X7105Y3280D01*
X7005Y3330D02*
X7105Y3380D01*
X7005Y3280D02*
Y3380D01*
X7105Y2545D02*
Y2645D01*
X7005Y2595D02*
X7105Y2545D01*
X7005Y2595D02*
X7105Y2645D01*
X7005Y2545D02*
Y2645D01*
X7105Y2955D02*
Y3055D01*
X7005Y3005D02*
X7105Y2955D01*
X7005Y3005D02*
X7105Y3055D01*
X7005Y2955D02*
Y3055D01*
X6195Y4370D02*
X6190Y4365D01*
Y4355D01*
X6195Y4350D01*
X6215D01*
X6220Y4355D01*
Y4365D01*
X6215Y4370D01*
X6195Y4380D02*
X6190Y4385D01*
Y4395D01*
X6195Y4400D01*
X6200D01*
X6205Y4395D01*
Y4390D01*
Y4395D01*
X6210Y4400D01*
X6215D01*
X6220Y4395D01*
Y4385D01*
X6215Y4380D01*
Y4410D02*
X6220Y4415D01*
Y4425D01*
X6215Y4430D01*
X6195D01*
X6190Y4425D01*
Y4415D01*
X6195Y4410D01*
X6200D01*
X6205Y4415D01*
Y4430D01*
X6170Y4560D02*
Y4590D01*
X6185D01*
X6190Y4585D01*
Y4575D01*
X6185Y4570D01*
X6170D01*
X6180D02*
X6190Y4560D01*
X6220D02*
X6200D01*
X6220Y4580D01*
Y4585D01*
X6215Y4590D01*
X6205D01*
X6200Y4585D01*
X6230Y4590D02*
X6250D01*
Y4585D01*
X6230Y4565D01*
Y4560D01*
X6000Y4570D02*
Y4600D01*
X6015D01*
X6020Y4595D01*
Y4585D01*
X6015Y4580D01*
X6000D01*
X6010D02*
X6020Y4570D01*
X6050D02*
X6030D01*
X6050Y4590D01*
Y4595D01*
X6045Y4600D01*
X6035D01*
X6030Y4595D01*
X6060D02*
X6065Y4600D01*
X6075D01*
X6080Y4595D01*
Y4590D01*
X6075Y4585D01*
X6080Y4580D01*
Y4575D01*
X6075Y4570D01*
X6065D01*
X6060Y4575D01*
Y4580D01*
X6065Y4585D01*
X6060Y4590D01*
Y4595D01*
X6065Y4585D02*
X6075D01*
X6720Y4313D02*
X6715Y4318D01*
X6705D01*
X6700Y4313D01*
Y4293D01*
X6705Y4288D01*
X6715D01*
X6720Y4293D01*
X6750Y4318D02*
X6740Y4313D01*
X6730Y4303D01*
Y4293D01*
X6735Y4288D01*
X6745D01*
X6750Y4293D01*
Y4298D01*
X6745Y4303D01*
X6730D01*
X5970Y2510D02*
X5990Y2480D01*
Y2510D02*
X5970Y2480D01*
X6000D02*
Y2510D01*
X6015D01*
X6020Y2505D01*
Y2495D01*
X6015Y2490D01*
X6000D01*
X6030Y2480D02*
X6040D01*
X6035D01*
Y2510D01*
X6030Y2505D01*
X6055D02*
X6060Y2510D01*
X6070D01*
X6075Y2505D01*
Y2485D01*
X6070Y2480D01*
X6060D01*
X6055Y2485D01*
Y2505D01*
X5740Y2600D02*
X5760Y2570D01*
Y2600D02*
X5740Y2570D01*
X5770D02*
Y2600D01*
X5785D01*
X5790Y2595D01*
Y2585D01*
X5785Y2580D01*
X5770D01*
X5800Y2575D02*
X5805Y2570D01*
X5815D01*
X5820Y2575D01*
Y2595D01*
X5815Y2600D01*
X5805D01*
X5800Y2595D01*
Y2590D01*
X5805Y2585D01*
X5820D01*
X5649Y2670D02*
X5669Y2640D01*
Y2670D02*
X5649Y2640D01*
X5679D02*
Y2670D01*
X5694D01*
X5699Y2665D01*
Y2655D01*
X5694Y2650D01*
X5679D01*
X5709Y2665D02*
X5714Y2670D01*
X5724D01*
X5729Y2665D01*
Y2660D01*
X5724Y2655D01*
X5729Y2650D01*
Y2645D01*
X5724Y2640D01*
X5714D01*
X5709Y2645D01*
Y2650D01*
X5714Y2655D01*
X5709Y2660D01*
Y2665D01*
X5714Y2655D02*
X5724D01*
X4980Y2670D02*
X5000Y2640D01*
Y2670D02*
X4980Y2640D01*
X5010D02*
Y2670D01*
X5025D01*
X5030Y2665D01*
Y2655D01*
X5025Y2650D01*
X5010D01*
X5040Y2640D02*
X5050D01*
X5045D01*
Y2670D01*
X5040Y2665D01*
X5085Y2670D02*
X5065D01*
Y2655D01*
X5075Y2660D01*
X5080D01*
X5085Y2655D01*
Y2645D01*
X5080Y2640D01*
X5070D01*
X5065Y2645D01*
X5560Y2600D02*
X5580Y2570D01*
Y2600D02*
X5560Y2570D01*
X5590D02*
Y2600D01*
X5605D01*
X5610Y2595D01*
Y2585D01*
X5605Y2580D01*
X5590D01*
X5620Y2600D02*
X5640D01*
Y2595D01*
X5620Y2575D01*
Y2570D01*
X5440Y2660D02*
X5460Y2630D01*
Y2660D02*
X5440Y2630D01*
X5470D02*
Y2660D01*
X5485D01*
X5490Y2655D01*
Y2645D01*
X5485Y2640D01*
X5470D01*
X5520Y2660D02*
X5510Y2655D01*
X5500Y2645D01*
Y2635D01*
X5505Y2630D01*
X5515D01*
X5520Y2635D01*
Y2640D01*
X5515Y2645D01*
X5500D01*
X5854Y4238D02*
X5849Y4243D01*
X5839D01*
X5834Y4238D01*
Y4218D01*
X5839Y4213D01*
X5849D01*
X5854Y4218D01*
X5884Y4213D02*
X5864D01*
X5884Y4233D01*
Y4238D01*
X5879Y4243D01*
X5869D01*
X5864Y4238D01*
X5894Y4213D02*
X5904D01*
X5899D01*
Y4243D01*
X5894Y4238D01*
X5470Y4225D02*
X5465Y4230D01*
X5455D01*
X5450Y4225D01*
Y4205D01*
X5455Y4200D01*
X5465D01*
X5470Y4205D01*
X5480Y4225D02*
X5485Y4230D01*
X5495D01*
X5500Y4225D01*
Y4220D01*
X5495Y4215D01*
X5490D01*
X5495D01*
X5500Y4210D01*
Y4205D01*
X5495Y4200D01*
X5485D01*
X5480Y4205D01*
X5530Y4230D02*
X5520Y4225D01*
X5510Y4215D01*
Y4205D01*
X5515Y4200D01*
X5525D01*
X5530Y4205D01*
Y4210D01*
X5525Y4215D01*
X5510D01*
X6984Y4132D02*
Y4112D01*
X6994Y4102D01*
X7004Y4112D01*
Y4132D01*
X7014D02*
Y4102D01*
X7029D01*
X7034Y4107D01*
Y4127D01*
X7029Y4132D01*
X7014D01*
X7064Y4102D02*
X7044D01*
X7064Y4122D01*
Y4127D01*
X7059Y4132D01*
X7049D01*
X7044Y4127D01*
X5549Y3204D02*
X5544Y3209D01*
X5534D01*
X5529Y3204D01*
Y3184D01*
X5534Y3179D01*
X5544D01*
X5549Y3184D01*
X5579Y3179D02*
X5559D01*
X5579Y3199D01*
Y3204D01*
X5574Y3209D01*
X5564D01*
X5559Y3204D01*
X5589D02*
X5594Y3209D01*
X5604D01*
X5609Y3204D01*
Y3184D01*
X5604Y3179D01*
X5594D01*
X5589Y3184D01*
Y3204D01*
X6020Y4525D02*
X6015Y4530D01*
X6005D01*
X6000Y4525D01*
Y4505D01*
X6005Y4500D01*
X6015D01*
X6020Y4505D01*
X6050Y4530D02*
X6030D01*
Y4515D01*
X6040Y4520D01*
X6045D01*
X6050Y4515D01*
Y4505D01*
X6045Y4500D01*
X6035D01*
X6030Y4505D01*
X6080Y4500D02*
X6060D01*
X6080Y4520D01*
Y4525D01*
X6075Y4530D01*
X6065D01*
X6060Y4525D01*
X6225Y4500D02*
X6220Y4505D01*
X6210D01*
X6205Y4500D01*
Y4480D01*
X6210Y4475D01*
X6220D01*
X6225Y4480D01*
X6235Y4500D02*
X6240Y4505D01*
X6250D01*
X6255Y4500D01*
Y4495D01*
X6250Y4490D01*
X6255Y4485D01*
Y4480D01*
X6250Y4475D01*
X6240D01*
X6235Y4480D01*
Y4485D01*
X6240Y4490D01*
X6235Y4495D01*
Y4500D01*
X6240Y4490D02*
X6250D01*
X5770Y4254D02*
X5799Y4274D01*
X5770D02*
X5799Y4254D01*
Y4284D02*
X5770D01*
Y4299D01*
X5775Y4304D01*
X5785D01*
X5790Y4299D01*
Y4284D01*
X5799Y4314D02*
Y4324D01*
Y4319D01*
X5770D01*
X5775Y4314D01*
X7250Y3030D02*
Y3010D01*
X7260Y3000D01*
X7270Y3010D01*
Y3030D01*
X7280D02*
X7300D01*
X7290D01*
Y3000D01*
X7330Y3030D02*
X7320Y3025D01*
X7310Y3015D01*
Y3005D01*
X7315Y3000D01*
X7325D01*
X7330Y3005D01*
Y3010D01*
X7325Y3015D01*
X7310D01*
X6875Y3230D02*
Y3210D01*
X6885Y3200D01*
X6895Y3210D01*
Y3230D01*
X6905D02*
Y3200D01*
X6920D01*
X6925Y3205D01*
Y3225D01*
X6920Y3230D01*
X6905D01*
X6935Y3200D02*
X6945D01*
X6940D01*
Y3230D01*
X6935Y3225D01*
X6980Y3200D02*
X6960D01*
X6980Y3220D01*
Y3225D01*
X6975Y3230D01*
X6965D01*
X6960Y3225D01*
X6675Y3697D02*
Y3677D01*
X6685Y3668D01*
X6695Y3677D01*
Y3697D01*
X6705D02*
Y3668D01*
X6720D01*
X6725Y3672D01*
Y3692D01*
X6720Y3697D01*
X6705D01*
X6735Y3668D02*
X6745D01*
X6740D01*
Y3697D01*
X6735Y3692D01*
X6760Y3668D02*
X6770D01*
X6765D01*
Y3697D01*
X6760Y3692D01*
X6700Y4555D02*
Y4535D01*
X6710Y4525D01*
X6720Y4535D01*
Y4555D01*
X6730D02*
Y4525D01*
X6745D01*
X6750Y4530D01*
Y4550D01*
X6745Y4555D01*
X6730D01*
X6760Y4525D02*
X6770D01*
X6765D01*
Y4555D01*
X6760Y4550D01*
X6785D02*
X6790Y4555D01*
X6800D01*
X6805Y4550D01*
Y4530D01*
X6800Y4525D01*
X6790D01*
X6785Y4530D01*
Y4550D01*
X7050Y4555D02*
Y4535D01*
X7060Y4525D01*
X7070Y4535D01*
Y4555D01*
X7080D02*
Y4525D01*
X7095D01*
X7100Y4530D01*
Y4550D01*
X7095Y4555D01*
X7080D01*
X7110Y4550D02*
X7115Y4555D01*
X7125D01*
X7130Y4550D01*
Y4545D01*
X7125Y4540D01*
X7120D01*
X7125D01*
X7130Y4535D01*
Y4530D01*
X7125Y4525D01*
X7115D01*
X7110Y4530D01*
X7000Y3861D02*
Y3841D01*
X7010Y3831D01*
X7020Y3841D01*
Y3861D01*
X7030D02*
Y3831D01*
X7045D01*
X7050Y3836D01*
Y3856D01*
X7045Y3861D01*
X7030D01*
X7080D02*
X7070Y3856D01*
X7060Y3846D01*
Y3836D01*
X7065Y3831D01*
X7075D01*
X7080Y3836D01*
Y3841D01*
X7075Y3846D01*
X7060D01*
X4635Y3139D02*
X4630Y3144D01*
X4620D01*
X4615Y3139D01*
Y3119D01*
X4620Y3114D01*
X4630D01*
X4635Y3119D01*
X4660Y3114D02*
Y3144D01*
X4645Y3129D01*
X4665D01*
X4695Y3114D02*
X4675D01*
X4695Y3134D01*
Y3139D01*
X4690Y3144D01*
X4680D01*
X4675Y3139D01*
X7250Y4486D02*
Y4466D01*
X7260Y4456D01*
X7270Y4466D01*
Y4486D01*
X7280D02*
X7300D01*
X7290D01*
Y4456D01*
X7330D02*
X7310D01*
X7330Y4476D01*
Y4481D01*
X7325Y4486D01*
X7315D01*
X7310Y4481D01*
X7246Y3755D02*
Y3735D01*
X7256Y3725D01*
X7266Y3735D01*
Y3755D01*
X7276D02*
X7296D01*
X7286D01*
Y3725D01*
X7321D02*
Y3755D01*
X7306Y3740D01*
X7326D01*
X5770Y3100D02*
X5765Y3105D01*
X5755D01*
X5750Y3100D01*
Y3080D01*
X5755Y3075D01*
X5765D01*
X5770Y3080D01*
X5780Y3100D02*
X5785Y3105D01*
X5795D01*
X5800Y3100D01*
Y3095D01*
X5795Y3090D01*
X5790D01*
X5795D01*
X5800Y3085D01*
Y3080D01*
X5795Y3075D01*
X5785D01*
X5780Y3080D01*
X5810Y3105D02*
X5830D01*
Y3100D01*
X5810Y3080D01*
Y3075D01*
X5980Y3262D02*
X5985Y3257D01*
X5995D01*
X6000Y3262D01*
Y3282D01*
X5995Y3287D01*
X5985D01*
X5980Y3282D01*
X5950Y3257D02*
X5970D01*
Y3272D01*
X5960Y3267D01*
X5955D01*
X5950Y3272D01*
Y3282D01*
X5955Y3287D01*
X5965D01*
X5970Y3282D01*
X5940D02*
X5935Y3287D01*
X5925D01*
X5920Y3282D01*
Y3262D01*
X5925Y3257D01*
X5935D01*
X5940Y3262D01*
Y3267D01*
X5935Y3272D01*
X5920D01*
X4492Y4450D02*
X4487Y4455D01*
X4477D01*
X4472Y4450D01*
Y4430D01*
X4477Y4425D01*
X4487D01*
X4492Y4430D01*
X4522Y4455D02*
X4502D01*
Y4440D01*
X4512Y4445D01*
X4517D01*
X4522Y4440D01*
Y4430D01*
X4517Y4425D01*
X4507D01*
X4502Y4430D01*
X4532Y4450D02*
X4537Y4455D01*
X4547D01*
X4552Y4450D01*
Y4445D01*
X4547Y4440D01*
X4552Y4435D01*
Y4430D01*
X4547Y4425D01*
X4537D01*
X4532Y4430D01*
Y4435D01*
X4537Y4440D01*
X4532Y4445D01*
Y4450D01*
X4537Y4440D02*
X4547D01*
X5336Y4450D02*
X5331Y4455D01*
X5321D01*
X5316Y4450D01*
Y4430D01*
X5321Y4425D01*
X5331D01*
X5336Y4430D01*
X5366Y4425D02*
X5346D01*
X5366Y4445D01*
Y4450D01*
X5361Y4455D01*
X5351D01*
X5346Y4450D01*
X5350Y4555D02*
X5370Y4525D01*
Y4555D02*
X5350Y4525D01*
X5380Y4555D02*
X5400D01*
X5390D01*
Y4525D01*
X5410D02*
X5420D01*
X5415D01*
Y4555D01*
X5410Y4550D01*
X4395Y4565D02*
X4390Y4570D01*
X4380D01*
X4375Y4565D01*
Y4545D01*
X4380Y4540D01*
X4390D01*
X4395Y4545D01*
X4405Y4565D02*
X4410Y4570D01*
X4420D01*
X4425Y4565D01*
Y4560D01*
X4420Y4555D01*
X4415D01*
X4420D01*
X4425Y4550D01*
Y4545D01*
X4420Y4540D01*
X4410D01*
X4405Y4545D01*
X4435Y4565D02*
X4440Y4570D01*
X4450D01*
X4455Y4565D01*
Y4560D01*
X4450Y4555D01*
X4455Y4550D01*
Y4545D01*
X4450Y4540D01*
X4440D01*
X4435Y4545D01*
Y4550D01*
X4440Y4555D01*
X4435Y4560D01*
Y4565D01*
X4440Y4555D02*
X4450D01*
X4446Y4360D02*
X4441Y4365D01*
X4431D01*
X4426Y4360D01*
Y4340D01*
X4431Y4335D01*
X4441D01*
X4446Y4340D01*
X4475Y4365D02*
X4456D01*
Y4350D01*
X4465Y4355D01*
X4470D01*
X4475Y4350D01*
Y4340D01*
X4470Y4335D01*
X4461D01*
X4456Y4340D01*
X4485Y4365D02*
X4505D01*
Y4360D01*
X4485Y4340D01*
Y4335D01*
X5160Y4263D02*
Y4293D01*
X5175D01*
X5180Y4288D01*
Y4278D01*
X5175Y4273D01*
X5160D01*
X5170D02*
X5180Y4263D01*
X5210D02*
X5190D01*
X5210Y4283D01*
Y4288D01*
X5205Y4293D01*
X5195D01*
X5190Y4288D01*
X5240Y4293D02*
X5220D01*
Y4278D01*
X5230Y4283D01*
X5235D01*
X5240Y4278D01*
Y4268D01*
X5235Y4263D01*
X5225D01*
X5220Y4268D01*
X5050Y4266D02*
Y4296D01*
X5065D01*
X5070Y4291D01*
Y4281D01*
X5065Y4276D01*
X5050D01*
X5060D02*
X5070Y4266D01*
X5100D02*
X5080D01*
X5100Y4286D01*
Y4291D01*
X5095Y4296D01*
X5085D01*
X5080Y4291D01*
X5125Y4266D02*
Y4296D01*
X5110Y4281D01*
X5130D01*
X4944Y4266D02*
Y4296D01*
X4959D01*
X4964Y4291D01*
Y4281D01*
X4959Y4276D01*
X4944D01*
X4954D02*
X4964Y4266D01*
X4994D02*
X4974D01*
X4994Y4286D01*
Y4291D01*
X4989Y4296D01*
X4979D01*
X4974Y4291D01*
X5004D02*
X5009Y4296D01*
X5019D01*
X5024Y4291D01*
Y4286D01*
X5019Y4281D01*
X5014D01*
X5019D01*
X5024Y4276D01*
Y4271D01*
X5019Y4266D01*
X5009D01*
X5004Y4271D01*
X4825Y4263D02*
Y4293D01*
X4840D01*
X4845Y4288D01*
Y4278D01*
X4840Y4273D01*
X4825D01*
X4835D02*
X4845Y4263D01*
X4875D02*
X4855D01*
X4875Y4283D01*
Y4288D01*
X4870Y4293D01*
X4860D01*
X4855Y4288D01*
X4905Y4263D02*
X4885D01*
X4905Y4283D01*
Y4288D01*
X4900Y4293D01*
X4890D01*
X4885Y4288D01*
X4212Y3949D02*
X4232Y3919D01*
Y3949D02*
X4212Y3919D01*
X4242D02*
Y3949D01*
X4257D01*
X4262Y3944D01*
Y3934D01*
X4257Y3929D01*
X4242D01*
X4272Y3919D02*
X4282D01*
X4277D01*
Y3949D01*
X4272Y3944D01*
X4297D02*
X4302Y3949D01*
X4312D01*
X4317Y3944D01*
Y3939D01*
X4312Y3934D01*
X4317Y3929D01*
Y3924D01*
X4312Y3919D01*
X4302D01*
X4297Y3924D01*
Y3929D01*
X4302Y3934D01*
X4297Y3939D01*
Y3944D01*
X4302Y3934D02*
X4312D01*
X4212Y3841D02*
X4232Y3811D01*
Y3841D02*
X4212Y3811D01*
X4242D02*
Y3841D01*
X4257D01*
X4262Y3836D01*
Y3826D01*
X4257Y3821D01*
X4242D01*
X4272Y3811D02*
X4282D01*
X4277D01*
Y3841D01*
X4272Y3836D01*
X4297Y3816D02*
X4302Y3811D01*
X4312D01*
X4317Y3816D01*
Y3836D01*
X4312Y3841D01*
X4302D01*
X4297Y3836D01*
Y3831D01*
X4302Y3826D01*
X4317D01*
X4212Y3742D02*
X4232Y3712D01*
Y3742D02*
X4212Y3712D01*
X4242D02*
Y3742D01*
X4257D01*
X4262Y3737D01*
Y3727D01*
X4257Y3722D01*
X4242D01*
X4272Y3712D02*
X4282D01*
X4277D01*
Y3742D01*
X4272Y3737D01*
X4297Y3742D02*
X4317D01*
Y3737D01*
X4297Y3717D01*
Y3712D01*
X4717Y3703D02*
Y3673D01*
X4732D01*
X4737Y3678D01*
Y3698D01*
X4732Y3703D01*
X4717D01*
X4747D02*
Y3673D01*
X4762D01*
X4767Y3678D01*
Y3698D01*
X4762Y3703D01*
X4747D01*
X4777Y3698D02*
X4782Y3703D01*
X4792D01*
X4797Y3698D01*
Y3693D01*
X4792Y3688D01*
X4797Y3683D01*
Y3678D01*
X4792Y3673D01*
X4782D01*
X4777Y3678D01*
Y3683D01*
X4782Y3688D01*
X4777Y3693D01*
Y3698D01*
X4782Y3688D02*
X4792D01*
X4257Y4010D02*
X4252Y4005D01*
Y3995D01*
X4257Y3990D01*
X4277D01*
X4282Y3995D01*
Y4005D01*
X4277Y4010D01*
X4257Y4020D02*
X4252Y4025D01*
Y4035D01*
X4257Y4040D01*
X4262D01*
X4267Y4035D01*
Y4030D01*
Y4035D01*
X4272Y4040D01*
X4277D01*
X4282Y4035D01*
Y4025D01*
X4277Y4020D01*
X4257Y4050D02*
X4252Y4055D01*
Y4065D01*
X4257Y4070D01*
X4277D01*
X4282Y4065D01*
Y4055D01*
X4277Y4050D01*
X4257D01*
X4375Y4161D02*
Y4191D01*
X4390D01*
X4395Y4186D01*
Y4176D01*
X4390Y4171D01*
X4375D01*
X4385D02*
X4395Y4161D01*
X4405D02*
X4415D01*
X4410D01*
Y4191D01*
X4405Y4186D01*
X4430D02*
X4435Y4191D01*
X4445D01*
X4450Y4186D01*
Y4181D01*
X4445Y4176D01*
X4440D01*
X4445D01*
X4450Y4171D01*
Y4166D01*
X4445Y4161D01*
X4435D01*
X4430Y4166D01*
X4615Y4100D02*
X4585D01*
Y4115D01*
X4590Y4120D01*
X4600D01*
X4605Y4115D01*
Y4100D01*
Y4110D02*
X4615Y4120D01*
Y4130D02*
Y4140D01*
Y4135D01*
X4585D01*
X4590Y4130D01*
X4615Y4170D02*
X4585D01*
X4600Y4155D01*
Y4175D01*
X4947Y4090D02*
X4942Y4085D01*
Y4075D01*
X4947Y4070D01*
X4967D01*
X4972Y4075D01*
Y4085D01*
X4967Y4090D01*
X4947Y4100D02*
X4942Y4105D01*
Y4115D01*
X4947Y4120D01*
X4952D01*
X4957Y4115D01*
Y4110D01*
Y4115D01*
X4962Y4120D01*
X4967D01*
X4972Y4115D01*
Y4105D01*
X4967Y4100D01*
X4972Y4130D02*
Y4140D01*
Y4135D01*
X4942D01*
X4947Y4130D01*
X5220Y3668D02*
Y3688D01*
X5225D01*
X5245Y3668D01*
X5250D01*
Y3688D01*
X5245Y3718D02*
X5225D01*
X5220Y3713D01*
Y3703D01*
X5225Y3698D01*
X5245D01*
X5250Y3703D01*
Y3713D01*
X5240Y3708D02*
X5250Y3718D01*
Y3713D02*
X5245Y3718D01*
X5250Y3728D02*
Y3738D01*
Y3733D01*
X5220D01*
X5225Y3728D01*
X5230Y2950D02*
X5250D01*
X5260Y2960D01*
X5250Y2970D01*
X5230D01*
Y2980D02*
X5260D01*
Y2995D01*
X5255Y3000D01*
X5235D01*
X5230Y2995D01*
Y2980D01*
X5260Y3010D02*
Y3020D01*
Y3015D01*
X5230D01*
X5235Y3010D01*
X5230Y3055D02*
X5235Y3045D01*
X5245Y3035D01*
X5255D01*
X5260Y3040D01*
Y3050D01*
X5255Y3055D01*
X5250D01*
X5245Y3050D01*
Y3035D01*
X4629Y2950D02*
X4659D01*
Y2965D01*
X4654Y2970D01*
X4634D01*
X4629Y2965D01*
Y2950D01*
X4659Y2980D02*
X4639D01*
X4629Y2990D01*
X4639Y3000D01*
X4659D01*
X4644D01*
Y2980D01*
X4659Y3010D02*
Y3020D01*
Y3015D01*
X4629D01*
X4634Y3010D01*
X5025Y3270D02*
X5020Y3265D01*
Y3255D01*
X5025Y3250D01*
X5045D01*
X5050Y3255D01*
Y3265D01*
X5045Y3270D01*
X5025Y3280D02*
X5020Y3285D01*
Y3295D01*
X5025Y3300D01*
X5030D01*
X5035Y3295D01*
Y3290D01*
Y3295D01*
X5040Y3300D01*
X5045D01*
X5050Y3295D01*
Y3285D01*
X5045Y3280D01*
X5050Y3325D02*
X5020D01*
X5035Y3310D01*
Y3330D01*
X4781Y3249D02*
X4751D01*
Y3264D01*
X4756Y3269D01*
X4766D01*
X4771Y3264D01*
Y3249D01*
Y3259D02*
X4781Y3269D01*
Y3279D02*
Y3289D01*
Y3284D01*
X4751D01*
X4756Y3279D01*
X4751Y3304D02*
Y3324D01*
X4756D01*
X4776Y3304D01*
X4781D01*
X4216Y3275D02*
X4246Y3295D01*
X4216D02*
X4246Y3275D01*
Y3305D02*
X4216D01*
Y3320D01*
X4221Y3325D01*
X4231D01*
X4236Y3320D01*
Y3305D01*
X4246Y3355D02*
Y3335D01*
X4226Y3355D01*
X4221D01*
X4216Y3350D01*
Y3340D01*
X4221Y3335D01*
X4216Y2934D02*
X4246Y2954D01*
X4216D02*
X4246Y2934D01*
Y2964D02*
X4216D01*
Y2979D01*
X4221Y2984D01*
X4231D01*
X4236Y2979D01*
Y2964D01*
X4216Y3014D02*
Y2994D01*
X4231D01*
X4226Y3004D01*
Y3009D01*
X4231Y3014D01*
X4241D01*
X4246Y3009D01*
Y2999D01*
X4241Y2994D01*
X4220Y3070D02*
X4250Y3090D01*
X4220D02*
X4250Y3070D01*
Y3100D02*
X4220D01*
Y3115D01*
X4225Y3120D01*
X4235D01*
X4240Y3115D01*
Y3100D01*
X4250Y3145D02*
X4220D01*
X4235Y3130D01*
Y3150D01*
X4286Y2655D02*
X4306Y2625D01*
Y2655D02*
X4286Y2625D01*
X4316Y2655D02*
X4336D01*
X4326D01*
Y2625D01*
X4361D02*
Y2655D01*
X4346Y2640D01*
X4366D01*
X4405Y2725D02*
Y2755D01*
X4420D01*
X4425Y2750D01*
Y2740D01*
X4420Y2735D01*
X4405D01*
X4415D02*
X4425Y2725D01*
X4435D02*
X4445D01*
X4440D01*
Y2755D01*
X4435Y2750D01*
X4460Y2730D02*
X4465Y2725D01*
X4475D01*
X4480Y2730D01*
Y2750D01*
X4475Y2755D01*
X4465D01*
X4460Y2750D01*
Y2745D01*
X4465Y2740D01*
X4480D01*
X5110Y2610D02*
X5130Y2580D01*
Y2610D02*
X5110Y2580D01*
X5140D02*
Y2610D01*
X5155D01*
X5160Y2605D01*
Y2595D01*
X5155Y2590D01*
X5140D01*
X5170Y2580D02*
X5180D01*
X5175D01*
Y2610D01*
X5170Y2605D01*
X5210Y2580D02*
Y2610D01*
X5195Y2595D01*
X5215D01*
X5230Y2670D02*
X5250Y2640D01*
Y2670D02*
X5230Y2640D01*
X5260D02*
Y2670D01*
X5275D01*
X5280Y2665D01*
Y2655D01*
X5275Y2650D01*
X5260D01*
X5290Y2640D02*
X5300D01*
X5295D01*
Y2670D01*
X5290Y2665D01*
X5335Y2670D02*
X5325Y2665D01*
X5315Y2655D01*
Y2645D01*
X5320Y2640D01*
X5330D01*
X5335Y2645D01*
Y2650D01*
X5330Y2655D01*
X5315D01*
X5350Y2600D02*
X5370Y2570D01*
Y2600D02*
X5350Y2570D01*
X5380D02*
Y2600D01*
X5395D01*
X5400Y2595D01*
Y2585D01*
X5395Y2580D01*
X5380D01*
X5410Y2595D02*
X5415Y2600D01*
X5425D01*
X5430Y2595D01*
Y2590D01*
X5425Y2585D01*
X5420D01*
X5425D01*
X5430Y2580D01*
Y2575D01*
X5425Y2570D01*
X5415D01*
X5410Y2575D01*
X4296Y3143D02*
X4291Y3148D01*
X4281D01*
X4276Y3143D01*
Y3123D01*
X4281Y3118D01*
X4291D01*
X4296Y3123D01*
X4321Y3118D02*
Y3148D01*
X4306Y3133D01*
X4326D01*
X4336Y3143D02*
X4341Y3148D01*
X4351D01*
X4356Y3143D01*
Y3123D01*
X4351Y3118D01*
X4341D01*
X4336Y3123D01*
Y3143D01*
X4515Y2724D02*
Y2754D01*
X4530D01*
X4535Y2749D01*
Y2739D01*
X4530Y2734D01*
X4515D01*
X4525D02*
X4535Y2724D01*
X4565D02*
X4545D01*
X4565Y2744D01*
Y2749D01*
X4560Y2754D01*
X4550D01*
X4545Y2749D01*
X4575D02*
X4580Y2754D01*
X4590D01*
X4595Y2749D01*
Y2729D01*
X4590Y2724D01*
X4580D01*
X4575Y2729D01*
Y2749D01*
X4615Y2729D02*
Y2759D01*
X4630D01*
X4635Y2754D01*
Y2744D01*
X4630Y2739D01*
X4615D01*
X4625D02*
X4635Y2729D01*
X4665D02*
X4645D01*
X4665Y2749D01*
Y2754D01*
X4660Y2759D01*
X4650D01*
X4645Y2754D01*
X4675Y2729D02*
X4685D01*
X4680D01*
Y2759D01*
X4675Y2754D01*
X4815Y2729D02*
Y2759D01*
X4830D01*
X4835Y2754D01*
Y2744D01*
X4830Y2739D01*
X4815D01*
X4825D02*
X4835Y2729D01*
X4865D02*
X4845D01*
X4865Y2749D01*
Y2754D01*
X4860Y2759D01*
X4850D01*
X4845Y2754D01*
X4895Y2759D02*
X4885Y2754D01*
X4875Y2744D01*
Y2734D01*
X4880Y2729D01*
X4890D01*
X4895Y2734D01*
Y2739D01*
X4890Y2744D01*
X4875D01*
X4715Y2729D02*
Y2759D01*
X4730D01*
X4735Y2754D01*
Y2744D01*
X4730Y2739D01*
X4715D01*
X4725D02*
X4735Y2729D01*
X4745Y2754D02*
X4750Y2759D01*
X4760D01*
X4765Y2754D01*
Y2749D01*
X4760Y2744D01*
X4755D01*
X4760D01*
X4765Y2739D01*
Y2734D01*
X4760Y2729D01*
X4750D01*
X4745Y2734D01*
X4775Y2754D02*
X4780Y2759D01*
X4790D01*
X4795Y2754D01*
Y2749D01*
X4790Y2744D01*
X4785D01*
X4790D01*
X4795Y2739D01*
Y2734D01*
X4790Y2729D01*
X4780D01*
X4775Y2734D01*
X6335Y2934D02*
Y2904D01*
X6350D01*
X6355Y2909D01*
Y2929D01*
X6350Y2934D01*
X6335D01*
X6365D02*
Y2904D01*
X6380D01*
X6385Y2909D01*
Y2929D01*
X6380Y2934D01*
X6365D01*
X6395D02*
X6415D01*
Y2929D01*
X6395Y2909D01*
Y2904D01*
X6325Y3520D02*
Y3490D01*
X6340D01*
X6345Y3495D01*
Y3515D01*
X6340Y3520D01*
X6325D01*
X6355D02*
Y3490D01*
X6370D01*
X6375Y3495D01*
Y3515D01*
X6370Y3520D01*
X6355D01*
X6405D02*
X6395Y3515D01*
X6385Y3505D01*
Y3495D01*
X6390Y3490D01*
X6400D01*
X6405Y3495D01*
Y3500D01*
X6400Y3505D01*
X6385D01*
X6320Y4100D02*
Y4070D01*
X6335D01*
X6340Y4075D01*
Y4095D01*
X6335Y4100D01*
X6320D01*
X6350D02*
Y4070D01*
X6365D01*
X6370Y4075D01*
Y4095D01*
X6365Y4100D01*
X6350D01*
X6400D02*
X6380D01*
Y4085D01*
X6390Y4090D01*
X6395D01*
X6400Y4085D01*
Y4075D01*
X6395Y4070D01*
X6385D01*
X6380Y4075D01*
X6705Y4130D02*
X6700Y4135D01*
X6690D01*
X6685Y4130D01*
Y4110D01*
X6690Y4105D01*
X6700D01*
X6705Y4110D01*
X6715Y4130D02*
X6720Y4135D01*
X6730D01*
X6735Y4130D01*
Y4125D01*
X6730Y4120D01*
X6725D01*
X6730D01*
X6735Y4115D01*
Y4110D01*
X6730Y4105D01*
X6720D01*
X6715Y4110D01*
X6705Y3490D02*
X6700Y3495D01*
X6690D01*
X6685Y3490D01*
Y3470D01*
X6690Y3465D01*
X6700D01*
X6705Y3470D01*
X6715Y3465D02*
X6725D01*
X6720D01*
Y3495D01*
X6715Y3490D01*
X6740D02*
X6745Y3495D01*
X6755D01*
X6760Y3490D01*
Y3470D01*
X6755Y3465D01*
X6745D01*
X6740Y3470D01*
Y3490D01*
X6780Y3745D02*
X6775Y3750D01*
X6765D01*
X6760Y3745D01*
Y3725D01*
X6765Y3720D01*
X6775D01*
X6780Y3725D01*
X6790Y3720D02*
X6800D01*
X6795D01*
Y3750D01*
X6790Y3745D01*
X6835Y3720D02*
X6815D01*
X6835Y3740D01*
Y3745D01*
X6830Y3750D01*
X6820D01*
X6815Y3745D01*
X5818Y3624D02*
X5813Y3629D01*
X5803D01*
X5798Y3624D01*
Y3604D01*
X5803Y3599D01*
X5813D01*
X5818Y3604D01*
X5848Y3599D02*
X5828D01*
X5848Y3619D01*
Y3624D01*
X5843Y3629D01*
X5833D01*
X5828Y3624D01*
X5858D02*
X5863Y3629D01*
X5873D01*
X5878Y3624D01*
Y3619D01*
X5873Y3614D01*
X5868D01*
X5873D01*
X5878Y3609D01*
Y3604D01*
X5873Y3599D01*
X5863D01*
X5858Y3604D01*
X6919Y3445D02*
Y3425D01*
X6929Y3415D01*
X6939Y3425D01*
Y3445D01*
X6949D02*
Y3415D01*
X6964D01*
X6969Y3420D01*
Y3440D01*
X6964Y3445D01*
X6949D01*
X6999D02*
X6979D01*
Y3430D01*
X6989Y3435D01*
X6994D01*
X6999Y3430D01*
Y3420D01*
X6994Y3415D01*
X6984D01*
X6979Y3420D01*
X6000Y3855D02*
X5995Y3860D01*
X5985D01*
X5980Y3855D01*
Y3835D01*
X5985Y3830D01*
X5995D01*
X6000Y3835D01*
X6010Y3830D02*
X6020D01*
X6015D01*
Y3860D01*
X6010Y3855D01*
X6050Y3830D02*
Y3860D01*
X6035Y3845D01*
X6055D01*
X6705Y2710D02*
X6700Y2715D01*
X6690D01*
X6685Y2710D01*
Y2690D01*
X6690Y2685D01*
X6700D01*
X6705Y2690D01*
X6715Y2685D02*
X6725D01*
X6720D01*
Y2715D01*
X6715Y2710D01*
X6760Y2715D02*
X6750Y2710D01*
X6740Y2700D01*
Y2690D01*
X6745Y2685D01*
X6755D01*
X6760Y2690D01*
Y2695D01*
X6755Y2700D01*
X6740D01*
X6770Y3000D02*
X6765Y3005D01*
X6755D01*
X6750Y3000D01*
Y2980D01*
X6755Y2975D01*
X6765D01*
X6770Y2980D01*
X6780Y2975D02*
X6790D01*
X6785D01*
Y3005D01*
X6780Y3000D01*
X6805D02*
X6810Y3005D01*
X6820D01*
X6825Y3000D01*
Y2995D01*
X6820Y2990D01*
X6825Y2985D01*
Y2980D01*
X6820Y2975D01*
X6810D01*
X6805Y2980D01*
Y2985D01*
X6810Y2990D01*
X6805Y2995D01*
Y3000D01*
X6810Y2990D02*
X6820D01*
X5818Y2969D02*
X5813Y2974D01*
X5803D01*
X5798Y2969D01*
Y2949D01*
X5803Y2944D01*
X5813D01*
X5818Y2949D01*
X5848Y2944D02*
X5828D01*
X5848Y2964D01*
Y2969D01*
X5843Y2974D01*
X5833D01*
X5828Y2969D01*
X5878Y2974D02*
X5858D01*
Y2959D01*
X5868Y2964D01*
X5873D01*
X5878Y2959D01*
Y2949D01*
X5873Y2944D01*
X5863D01*
X5858Y2949D01*
X6919Y2710D02*
Y2690D01*
X6929Y2680D01*
X6939Y2690D01*
Y2710D01*
X6949D02*
Y2680D01*
X6964D01*
X6969Y2685D01*
Y2705D01*
X6964Y2710D01*
X6949D01*
X6979Y2705D02*
X6984Y2710D01*
X6994D01*
X6999Y2705D01*
Y2700D01*
X6994Y2695D01*
X6999Y2690D01*
Y2685D01*
X6994Y2680D01*
X6984D01*
X6979Y2685D01*
Y2690D01*
X6984Y2695D01*
X6979Y2700D01*
Y2705D01*
X6984Y2695D02*
X6994D01*
X6919Y3120D02*
Y3100D01*
X6929Y3090D01*
X6939Y3100D01*
Y3120D01*
X6949D02*
Y3090D01*
X6964D01*
X6969Y3095D01*
Y3115D01*
X6964Y3120D01*
X6949D01*
X6979Y3095D02*
X6984Y3090D01*
X6994D01*
X6999Y3095D01*
Y3115D01*
X6994Y3120D01*
X6984D01*
X6979Y3115D01*
Y3110D01*
X6984Y3105D01*
X6999D01*
X5556Y4150D02*
X5551Y4155D01*
X5541D01*
X5536Y4150D01*
Y4130D01*
X5541Y4125D01*
X5551D01*
X5556Y4130D01*
X5586Y4125D02*
X5566D01*
X5586Y4145D01*
Y4150D01*
X5581Y4155D01*
X5571D01*
X5566Y4150D01*
X5596D02*
X5601Y4155D01*
X5611D01*
X5616Y4150D01*
Y4145D01*
X5611Y4140D01*
X5616Y4135D01*
Y4130D01*
X5611Y4125D01*
X5601D01*
X5596Y4130D01*
Y4135D01*
X5601Y4140D01*
X5596Y4145D01*
Y4150D01*
X5601Y4140D02*
X5611D01*
X4293Y3523D02*
X4288Y3528D01*
X4278D01*
X4273Y3523D01*
Y3503D01*
X4278Y3498D01*
X4288D01*
X4293Y3503D01*
X4323Y3498D02*
X4303D01*
X4323Y3518D01*
Y3523D01*
X4318Y3528D01*
X4308D01*
X4303Y3523D01*
X4333Y3503D02*
X4338Y3498D01*
X4348D01*
X4353Y3503D01*
Y3523D01*
X4348Y3528D01*
X4338D01*
X4333Y3523D01*
Y3518D01*
X4338Y3513D01*
X4353D01*
X5445Y4020D02*
X5465Y3990D01*
Y4020D02*
X5445Y3990D01*
X5475Y4020D02*
X5495D01*
X5485D01*
Y3990D01*
X5525D02*
X5505D01*
X5525Y4010D01*
Y4015D01*
X5520Y4020D01*
X5510D01*
X5505Y4015D01*
X5616Y3970D02*
X5611Y3975D01*
X5601D01*
X5596Y3970D01*
Y3950D01*
X5601Y3945D01*
X5611D01*
X5616Y3950D01*
X5641Y3945D02*
Y3975D01*
X5626Y3960D01*
X5646D01*
X5656Y3945D02*
X5666D01*
X5661D01*
Y3975D01*
X5656Y3970D01*
X4505Y3144D02*
X4500Y3149D01*
X4490D01*
X4485Y3144D01*
Y3124D01*
X4490Y3119D01*
X4500D01*
X4505Y3124D01*
X4515Y3144D02*
X4520Y3149D01*
X4530D01*
X4535Y3144D01*
Y3139D01*
X4530Y3134D01*
X4525D01*
X4530D01*
X4535Y3129D01*
Y3124D01*
X4530Y3119D01*
X4520D01*
X4515Y3124D01*
X4565Y3149D02*
X4545D01*
Y3134D01*
X4555Y3139D01*
X4560D01*
X4565Y3134D01*
Y3124D01*
X4560Y3119D01*
X4550D01*
X4545Y3124D01*
X4400Y3200D02*
X4395Y3205D01*
X4385D01*
X4380Y3200D01*
Y3180D01*
X4385Y3175D01*
X4395D01*
X4400Y3180D01*
X4430Y3205D02*
X4420Y3200D01*
X4410Y3190D01*
Y3180D01*
X4415Y3175D01*
X4425D01*
X4430Y3180D01*
Y3185D01*
X4425Y3190D01*
X4410D01*
X4460Y3175D02*
X4440D01*
X4460Y3195D01*
Y3200D01*
X4455Y3205D01*
X4445D01*
X4440Y3200D01*
D11*
X5010Y3429D02*
G03*
X5010Y3429I-5J0D01*
G01*
X4734Y2820D02*
G03*
X4734Y2820I-5J0D01*
G01*
X6613Y3114D02*
G03*
X6613Y3114I-5J0D01*
G01*
Y3699D02*
G03*
X6613Y3699I-5J0D01*
G01*
Y4279D02*
G03*
X6613Y4279I-5J0D01*
G01*
D12*
X4926Y3486D02*
G03*
X4926Y3486I-12J0D01*
G01*
X6579Y3013D02*
G03*
X6579Y3013I-12J0D01*
G01*
Y3599D02*
G03*
X6579Y3599I-12J0D01*
G01*
Y4179D02*
G03*
X6579Y4179I-12J0D01*
G01*
D13*
X5869Y4345D02*
X5881D01*
X5869Y4355D02*
X5881D01*
X5859Y4345D02*
Y4355D01*
X5891Y4345D02*
Y4355D01*
X5934Y4346D02*
X5946D01*
X5934Y4356D02*
X5946D01*
X5924Y4346D02*
Y4356D01*
X5956Y4346D02*
Y4356D01*
X4619Y3030D02*
X4631D01*
X4619Y3040D02*
X4631D01*
X4609Y3030D02*
Y3040D01*
X4641Y3030D02*
Y3040D01*
X5144Y4425D02*
Y4435D01*
X5176Y4425D02*
Y4435D01*
X5044Y4425D02*
Y4435D01*
X5076Y4425D02*
Y4435D01*
X4944Y4420D02*
Y4430D01*
X4976Y4420D02*
Y4430D01*
X4844Y4425D02*
Y4435D01*
X4876Y4425D02*
Y4435D01*
X4954Y3447D02*
Y3939D01*
X4462Y3447D02*
Y3939D01*
Y3447D02*
X4954D01*
X4462Y3939D02*
X4954D01*
X4400Y4024D02*
Y4036D01*
X4390Y4024D02*
Y4036D01*
Y4014D02*
X4400D01*
X4390Y4046D02*
X4400D01*
X4496Y4125D02*
Y4135D01*
X4464Y4125D02*
Y4135D01*
X4561Y4125D02*
Y4135D01*
X4529Y4125D02*
Y4135D01*
X4899Y4095D02*
X4911D01*
X4899Y4105D02*
X4911D01*
X4889Y4095D02*
Y4105D01*
X4921Y4095D02*
Y4105D01*
X5273Y3485D02*
Y3942D01*
X5185Y3485D02*
X5273D01*
X5077D02*
X5185D01*
X5077D02*
Y3942D01*
X5273D01*
X5011Y2836D02*
X5080D01*
X5011D02*
Y3144D01*
X5080Y2836D02*
Y2842D01*
X5011D02*
X5080D01*
X5120D02*
X5189D01*
X5120Y2836D02*
Y2842D01*
X5011Y3144D02*
X5042D01*
X5120Y2836D02*
X5189D01*
X5158Y3144D02*
X5189D01*
Y2836D02*
Y3144D01*
X5080Y2974D02*
X5120D01*
X5100D02*
X5116Y3002D01*
X5080D02*
X5100Y2974D01*
X5080Y3002D02*
X5116D01*
X5100Y2966D02*
Y2974D01*
Y3002D02*
Y3014D01*
X4688Y3078D02*
X4952D01*
Y2932D02*
Y3078D01*
X4688Y2932D02*
X4952D01*
X4688D02*
Y3078D01*
X4954Y3285D02*
X4966D01*
X4954Y3275D02*
X4966D01*
X4976D02*
Y3285D01*
X4944Y3275D02*
Y3285D01*
X4841Y3275D02*
Y3285D01*
X4809Y3275D02*
Y3285D01*
X4429Y2640D02*
Y2650D01*
X4461Y2640D02*
Y2650D01*
X4280Y3034D02*
X4292D01*
X4280Y3044D02*
X4292D01*
X4270Y3034D02*
Y3044D01*
X4302Y3034D02*
Y3044D01*
X4509Y2640D02*
Y2650D01*
X4541Y2640D02*
Y2650D01*
X4609Y2645D02*
Y2655D01*
X4641Y2645D02*
Y2655D01*
X4841Y2645D02*
Y2655D01*
X4809Y2645D02*
Y2655D01*
X4741Y2645D02*
Y2655D01*
X4709Y2645D02*
Y2655D01*
X6193Y3053D02*
X6607D01*
X6193Y2816D02*
X6607D01*
Y3053D01*
X6193Y2816D02*
Y3053D01*
Y3638D02*
X6607D01*
X6193Y3402D02*
X6607D01*
Y3638D01*
X6193Y3402D02*
Y3638D01*
Y4218D02*
X6607D01*
X6193Y3982D02*
X6607D01*
Y4218D01*
X6193Y3982D02*
Y4218D01*
X5580Y4069D02*
Y4081D01*
X5570Y4069D02*
Y4081D01*
Y4059D02*
X5580D01*
X5570Y4091D02*
X5580D01*
X4317Y3442D02*
Y3454D01*
X4307Y3442D02*
Y3454D01*
Y3432D02*
X4317D01*
X4307Y3464D02*
X4317D01*
X5640Y3889D02*
Y3901D01*
X5630Y3889D02*
Y3901D01*
Y3879D02*
X5640D01*
X5630Y3911D02*
X5640D01*
X4489Y3035D02*
X4501D01*
X4489Y3045D02*
X4501D01*
X4479Y3035D02*
Y3045D01*
X4511Y3035D02*
Y3045D01*
M02*
