M48
;Layer_Color=9474304
;FILE_FORMAT=2:3
INCH,LZ
;TYPE=PLATED
T1F00S00C0.012
T2F00S00C0.028
T3F00S00C0.031
T4F00S00C0.038
T5F00S00C0.043
;TYPE=NON_PLATED
T6F00S00C0.108
%
T01
X044Y02815
X04545Y02925
X0462
X04725Y02815
X04975Y028
X0496Y02875
X0494Y0316
X0482Y03138
X04825Y03245
X04789Y03311
X04695Y03315
X0465
X04545
X04474Y03235
X045Y03175
X0465Y03138
X04688
X04684Y03467
X04763
Y03624
X04684
X04606
X04527
X04566Y03703
X04645
X04724
X04802
X04881
X04864Y0363
X04842Y03782
X04763
X04684
X04606
X04527
X04566Y03861
X04645
X04724
X04802
X04933Y03849
X04954Y03786
X05125Y038
Y0385
Y0374
X05074Y03713
X05098Y0363
X051Y0355
X052Y03467
X0524Y03341
X053Y0338
X0515Y03238
X05101Y032
X05098Y03075
X05005Y03245
X04958Y03355
X04606Y03467
X0457Y03458
X04533
X045Y03457
X04487Y03546
X04566
X04645
X04487Y03703
Y03861
X04354Y0377
X0432Y0375
X04321Y03704
X0427Y0372
X04292Y0361
X0433
X04324Y03575
X04292Y035
X043Y03405
X04386Y03375
X0435Y0366
X05217Y03734
X0551Y02908
X0511Y0266
X06375Y0276
X06392Y02844
X06421Y02925
X066Y02934
X06576Y0317
X06325
X064Y03275
X06375Y03341
X06475Y0334
X0639Y03433
X06421Y035
X06588Y03505
X066Y037
X06475Y03875
X06375
X06325Y03771
X06175Y03673
X06Y03175
X06225Y0305
X06475Y0275
X06624Y02669
X07379Y0307
X07379Y0327
X07374Y0382
X07374Y03984
X066Y0413
X064
X0639Y0405
X06325Y0437
X06245Y044
X06175Y043
X06588Y04375
X05805Y04488
X0565Y04158
X055Y04075
X05275Y04161
X05219Y04305
X053Y0434
X0506Y0435
X04877
X04825
X04559
X04425Y04265
X04445Y041
X0435Y0413
X04325Y04025
X0455Y0405
X04575Y04075
X0461Y041
X04657Y0409
X0465Y0413
Y0405
X04693Y04077
X04735Y04102
Y0405
X0485
X049Y04064
X04936Y0393
X05119Y03945
X05148Y03916
X04506Y03907
T02
X05175Y03622
Y03805
T03
X0607Y0299
Y0309
X06075Y03645
Y03745
X06805Y03585
X06905
X0678Y0338
Y0328
X06795Y0284
X06895
X0678Y026
Y025
Y0392
Y0402
X06805Y04235
X06905
X06075Y043
Y044
T04
X0412Y0276
X04125Y0299
Y031
Y03315
X0412Y03429
Y0361
X04125Y0374
Y0384
X051Y025
X052
X053
X054
X055
X056
X05695
X058
X059
X05985Y02615
Y02815
X05695Y0276
Y03429
Y0361
X05985Y0347
Y0327
X06675Y03125
X06875
X06955Y03005
Y0333
Y03735
X06875Y0382
X06675
X06955Y02595
X07155
X07193Y02698
Y02798
Y02898
X07155Y03005
X07368Y02897
Y02797
Y02697
Y03427
Y03527
Y03627
X07193Y03628
Y03528
Y03428
X07155Y0333
Y03735
Y04025
X07193Y04135
Y04235
Y04335
X07184Y0444
X07365Y0434
Y0424
Y0414
X06955Y04025
X06984Y0444
X06875
X06675
X05985Y0413
Y0393
X05695Y04279
Y04405
Y0454
X05495Y04405
X0412Y04279
X04125Y0394
T05
X0442Y0253
X0452
X0462
X0472
X0482
X0492
X0549Y03405
Y03505
Y03605
Y03705
Y03805
Y03905
X0526Y04545
X0516
X0506
X0496
X0486
X0476
T06
X04164Y02559
X06448
Y04488
X04164
M30
